%TF.GenerationSoftware,KiCad,Pcbnew,(6.0.4)*%
%TF.CreationDate,2022-04-22T11:51:34+02:00*%
%TF.ProjectId,ECM_Preamp,45434d5f-5072-4656-916d-702e6b696361,rev?*%
%TF.SameCoordinates,Original*%
%TF.FileFunction,Soldermask,Top*%
%TF.FilePolarity,Negative*%
%FSLAX46Y46*%
G04 Gerber Fmt 4.6, Leading zero omitted, Abs format (unit mm)*
G04 Created by KiCad (PCBNEW (6.0.4)) date 2022-04-22 11:51:34*
%MOMM*%
%LPD*%
G01*
G04 APERTURE LIST*
%ADD10C,1.400000*%
%ADD11O,1.400000X1.400000*%
%ADD12R,1.600000X1.600000*%
%ADD13C,1.600000*%
%ADD14R,1.800000X1.800000*%
%ADD15O,1.800000X1.800000*%
%ADD16C,5.500000*%
%ADD17O,1.600000X1.600000*%
%ADD18C,2.050000*%
%ADD19C,2.250000*%
%ADD20R,2.000000X2.000000*%
%ADD21O,2.000000X2.000000*%
%ADD22R,1.050000X1.500000*%
%ADD23O,1.050000X1.500000*%
%ADD24R,2.540000X2.540000*%
%ADD25C,2.540000*%
%ADD26C,3.400000*%
%ADD27C,2.900000*%
G04 APERTURE END LIST*
D10*
%TO.C,R3*%
X68580000Y-36830000D03*
D11*
X60960000Y-36830000D03*
%TD*%
D12*
%TO.C,C4*%
X68644888Y-48895000D03*
D13*
X71144888Y-48895000D03*
%TD*%
D14*
%TO.C,D1*%
X52070000Y-36830000D03*
D15*
X52070000Y-29210000D03*
%TD*%
D10*
%TO.C,R4*%
X59690000Y-42545000D03*
D11*
X67310000Y-42545000D03*
%TD*%
D12*
%TO.C,C1*%
X40640000Y-45720000D03*
D13*
X43140000Y-45720000D03*
%TD*%
D16*
%TO.C,REF\u002A\u002A*%
X127000000Y-30480000D03*
%TD*%
%TO.C,REF\u002A\u002A*%
X127000000Y-63500000D03*
%TD*%
D12*
%TO.C,SW1*%
X55875000Y-64760000D03*
D17*
X58415000Y-64760000D03*
X58415000Y-57140000D03*
X55875000Y-57140000D03*
%TD*%
D18*
%TO.C,J1*%
X33020000Y-45720000D03*
D19*
X30480000Y-43180000D03*
X35560000Y-48260000D03*
X35560000Y-43180000D03*
X30480000Y-48260000D03*
%TD*%
D20*
%TO.C,D2*%
X50800000Y-40640000D03*
D21*
X50800000Y-45720000D03*
%TD*%
D22*
%TO.C,Q1*%
X57150000Y-48260000D03*
D23*
X58420000Y-48260000D03*
X59690000Y-48260000D03*
%TD*%
D12*
%TO.C,C5*%
X78169888Y-48895000D03*
D13*
X80669888Y-48895000D03*
%TD*%
D10*
%TO.C,R1*%
X39370000Y-38100000D03*
D11*
X46990000Y-38100000D03*
%TD*%
D10*
%TO.C,R7*%
X92710000Y-32385000D03*
D11*
X100330000Y-32385000D03*
%TD*%
D16*
%TO.C,REF\u002A\u002A*%
X30480000Y-63500000D03*
%TD*%
D12*
%TO.C,C6*%
X74994887Y-40640000D03*
D13*
X77494887Y-40640000D03*
%TD*%
D12*
%TO.C,C2*%
X60325000Y-32320112D03*
D13*
X60325000Y-29820112D03*
%TD*%
D16*
%TO.C,REF\u002A\u002A*%
X30480000Y-30480000D03*
%TD*%
D10*
%TO.C,R5*%
X67310000Y-53340000D03*
D11*
X59690000Y-53340000D03*
%TD*%
D14*
%TO.C,D4*%
X71755000Y-33655000D03*
D15*
X79375000Y-33655000D03*
%TD*%
D10*
%TO.C,R2*%
X46990000Y-58420000D03*
D11*
X46990000Y-50800000D03*
%TD*%
D24*
%TO.C,TR1*%
X90805000Y-59690000D03*
D25*
X90805000Y-54610000D03*
X90805000Y-49530000D03*
X90805000Y-44450000D03*
X118745000Y-59690000D03*
X118745000Y-54610000D03*
X118745000Y-49690000D03*
X118745000Y-44450000D03*
X115805000Y-52190000D03*
%TD*%
D20*
%TO.C,D3*%
X50800000Y-50800000D03*
D21*
X50800000Y-55880000D03*
%TD*%
D10*
%TO.C,R8*%
X92710000Y-36830000D03*
D11*
X100330000Y-36830000D03*
%TD*%
D12*
%TO.C,C3*%
X64834888Y-60960000D03*
D13*
X67334888Y-60960000D03*
%TD*%
D10*
%TO.C,R6*%
X82550000Y-36322000D03*
D11*
X90170000Y-36322000D03*
%TD*%
D13*
%TO.C,J2*%
X139845000Y-50165000D03*
X144925000Y-42545000D03*
D26*
X136035000Y-42545000D03*
X135400000Y-50165000D03*
D27*
X131585000Y-46355000D03*
%TD*%
M02*
