%TF.GenerationSoftware,KiCad,Pcbnew,(6.0.4)*%
%TF.CreationDate,2022-04-22T11:51:34+02:00*%
%TF.ProjectId,ECM_Preamp,45434d5f-5072-4656-916d-702e6b696361,rev?*%
%TF.SameCoordinates,Original*%
%TF.FileFunction,Copper,L2,Bot*%
%TF.FilePolarity,Positive*%
%FSLAX46Y46*%
G04 Gerber Fmt 4.6, Leading zero omitted, Abs format (unit mm)*
G04 Created by KiCad (PCBNEW (6.0.4)) date 2022-04-22 11:51:34*
%MOMM*%
%LPD*%
G01*
G04 APERTURE LIST*
%TA.AperFunction,ComponentPad*%
%ADD10C,1.400000*%
%TD*%
%TA.AperFunction,ComponentPad*%
%ADD11O,1.400000X1.400000*%
%TD*%
%TA.AperFunction,ComponentPad*%
%ADD12R,1.600000X1.600000*%
%TD*%
%TA.AperFunction,ComponentPad*%
%ADD13C,1.600000*%
%TD*%
%TA.AperFunction,ComponentPad*%
%ADD14R,1.800000X1.800000*%
%TD*%
%TA.AperFunction,ComponentPad*%
%ADD15O,1.800000X1.800000*%
%TD*%
%TA.AperFunction,ComponentPad*%
%ADD16C,5.500000*%
%TD*%
%TA.AperFunction,ComponentPad*%
%ADD17O,1.600000X1.600000*%
%TD*%
%TA.AperFunction,ComponentPad*%
%ADD18C,2.050000*%
%TD*%
%TA.AperFunction,ComponentPad*%
%ADD19C,2.250000*%
%TD*%
%TA.AperFunction,ComponentPad*%
%ADD20R,2.000000X2.000000*%
%TD*%
%TA.AperFunction,ComponentPad*%
%ADD21O,2.000000X2.000000*%
%TD*%
%TA.AperFunction,ComponentPad*%
%ADD22R,1.050000X1.500000*%
%TD*%
%TA.AperFunction,ComponentPad*%
%ADD23O,1.050000X1.500000*%
%TD*%
%TA.AperFunction,ComponentPad*%
%ADD24R,2.540000X2.540000*%
%TD*%
%TA.AperFunction,ComponentPad*%
%ADD25C,2.540000*%
%TD*%
%TA.AperFunction,ComponentPad*%
%ADD26C,3.400000*%
%TD*%
%TA.AperFunction,ComponentPad*%
%ADD27C,2.900000*%
%TD*%
%TA.AperFunction,Conductor*%
%ADD28C,0.700000*%
%TD*%
G04 APERTURE END LIST*
D10*
%TO.P,R3,1*%
%TO.N,/V_SUP_A*%
X68580000Y-36830000D03*
D11*
%TO.P,R3,2*%
%TO.N,/V_SUP_B*%
X60960000Y-36830000D03*
%TD*%
D12*
%TO.P,C4,1*%
%TO.N,Net-(C4-Pad1)*%
X68644888Y-48895000D03*
D13*
%TO.P,C4,2*%
%TO.N,GND*%
X71144888Y-48895000D03*
%TD*%
D14*
%TO.P,D1,1,K*%
%TO.N,/V_SUP_B*%
X52070000Y-36830000D03*
D15*
%TO.P,D1,2,A*%
%TO.N,GND*%
X52070000Y-29210000D03*
%TD*%
D10*
%TO.P,R4,1*%
%TO.N,Net-(C5-Pad1)*%
X59690000Y-42545000D03*
D11*
%TO.P,R4,2*%
%TO.N,/V_SUP_A*%
X67310000Y-42545000D03*
%TD*%
D12*
%TO.P,C1,1*%
%TO.N,Net-(C1-Pad1)*%
X40640000Y-45720000D03*
D13*
%TO.P,C1,2*%
%TO.N,Net-(C1-Pad2)*%
X43140000Y-45720000D03*
%TD*%
D16*
%TO.P,REF\u002A\u002A,1*%
%TO.N,N/C*%
X127000000Y-30480000D03*
%TD*%
%TO.P,REF\u002A\u002A,1*%
%TO.N,N/C*%
X127000000Y-63500000D03*
%TD*%
D12*
%TO.P,SW1,1*%
%TO.N,Net-(C3-Pad1)*%
X55875000Y-64760000D03*
D17*
%TO.P,SW1,2*%
%TO.N,unconnected-(SW1-Pad2)*%
X58415000Y-64760000D03*
%TO.P,SW1,3*%
%TO.N,unconnected-(SW1-Pad3)*%
X58415000Y-57140000D03*
%TO.P,SW1,4*%
%TO.N,Net-(C4-Pad1)*%
X55875000Y-57140000D03*
%TD*%
D18*
%TO.P,J1,1,In*%
%TO.N,Net-(C1-Pad1)*%
X33020000Y-45720000D03*
D19*
%TO.P,J1,2,Ext*%
%TO.N,GND*%
X30480000Y-43180000D03*
X35560000Y-48260000D03*
X35560000Y-43180000D03*
X30480000Y-48260000D03*
%TD*%
D20*
%TO.P,D2,1,K*%
%TO.N,/V_SUP_A*%
X50800000Y-40640000D03*
D21*
%TO.P,D2,2,A*%
%TO.N,Net-(C1-Pad2)*%
X50800000Y-45720000D03*
%TD*%
D22*
%TO.P,Q1,1,G*%
%TO.N,Net-(C1-Pad2)*%
X57150000Y-48260000D03*
D23*
%TO.P,Q1,2,S*%
%TO.N,Net-(C4-Pad1)*%
X58420000Y-48260000D03*
%TO.P,Q1,3,D*%
%TO.N,Net-(C5-Pad1)*%
X59690000Y-48260000D03*
%TD*%
D12*
%TO.P,C5,1*%
%TO.N,Net-(C5-Pad1)*%
X78169888Y-48895000D03*
D13*
%TO.P,C5,2*%
%TO.N,Net-(C5-Pad2)*%
X80669888Y-48895000D03*
%TD*%
D10*
%TO.P,R1,1*%
%TO.N,Net-(C1-Pad1)*%
X39370000Y-38100000D03*
D11*
%TO.P,R1,2*%
%TO.N,/V_SUP_B*%
X46990000Y-38100000D03*
%TD*%
D10*
%TO.P,R7,1*%
%TO.N,/P48*%
X92710000Y-32385000D03*
D11*
%TO.P,R7,2*%
%TO.N,/MIC_A*%
X100330000Y-32385000D03*
%TD*%
D16*
%TO.P,REF\u002A\u002A,1*%
%TO.N,N/C*%
X30480000Y-63500000D03*
%TD*%
D12*
%TO.P,C6,1*%
%TO.N,/V_SUP_A*%
X74994887Y-40640000D03*
D13*
%TO.P,C6,2*%
%TO.N,GND*%
X77494887Y-40640000D03*
%TD*%
D12*
%TO.P,C2,1*%
%TO.N,/V_SUP_B*%
X60325000Y-32320112D03*
D13*
%TO.P,C2,2*%
%TO.N,GND*%
X60325000Y-29820112D03*
%TD*%
D16*
%TO.P,REF\u002A\u002A,1*%
%TO.N,N/C*%
X30480000Y-30480000D03*
%TD*%
D10*
%TO.P,R5,1*%
%TO.N,GND*%
X67310000Y-53340000D03*
D11*
%TO.P,R5,2*%
%TO.N,Net-(C4-Pad1)*%
X59690000Y-53340000D03*
%TD*%
D14*
%TO.P,D4,1,K*%
%TO.N,/V_SUP_A*%
X71755000Y-33655000D03*
D15*
%TO.P,D4,2,A*%
%TO.N,GND*%
X79375000Y-33655000D03*
%TD*%
D10*
%TO.P,R2,1*%
%TO.N,GND*%
X46990000Y-58420000D03*
D11*
%TO.P,R2,2*%
%TO.N,Net-(C1-Pad2)*%
X46990000Y-50800000D03*
%TD*%
D24*
%TO.P,TR1,1,1*%
%TO.N,Net-(C5-Pad2)*%
X90805000Y-59690000D03*
D25*
%TO.P,TR1,2,2*%
%TO.N,GND*%
X90805000Y-54610000D03*
%TO.P,TR1,3,3*%
X90805000Y-49530000D03*
%TO.P,TR1,4,4*%
%TO.N,Net-(C5-Pad2)*%
X90805000Y-44450000D03*
%TO.P,TR1,5,5*%
%TO.N,/MIC_A*%
X118745000Y-59690000D03*
%TO.P,TR1,6,6*%
%TO.N,/MIC_B*%
X118745000Y-54610000D03*
%TO.P,TR1,7,7*%
X118745000Y-49690000D03*
%TO.P,TR1,8,8*%
%TO.N,/MIC_A*%
X118745000Y-44450000D03*
%TO.P,TR1,9,SHLD*%
%TO.N,GND*%
X115805000Y-52190000D03*
%TD*%
D20*
%TO.P,D3,1,K*%
%TO.N,Net-(C1-Pad2)*%
X50800000Y-50800000D03*
D21*
%TO.P,D3,2,A*%
%TO.N,GND*%
X50800000Y-55880000D03*
%TD*%
D10*
%TO.P,R8,1*%
%TO.N,/P48*%
X92710000Y-36830000D03*
D11*
%TO.P,R8,2*%
%TO.N,/MIC_B*%
X100330000Y-36830000D03*
%TD*%
D12*
%TO.P,C3,1*%
%TO.N,Net-(C3-Pad1)*%
X64834888Y-60960000D03*
D13*
%TO.P,C3,2*%
%TO.N,GND*%
X67334888Y-60960000D03*
%TD*%
D10*
%TO.P,R6,1*%
%TO.N,/V_SUP_A*%
X82550000Y-36322000D03*
D11*
%TO.P,R6,2*%
%TO.N,/P48*%
X90170000Y-36322000D03*
%TD*%
D26*
%TO.P,J2,1*%
%TO.N,GND*%
X136035000Y-42545000D03*
%TO.P,J2,2*%
%TO.N,/MIC_A*%
X135400000Y-50165000D03*
D27*
%TO.P,J2,3*%
%TO.N,/MIC_B*%
X131585000Y-46355000D03*
%TD*%
D28*
%TO.N,Net-(C1-Pad1)*%
X40640000Y-45720000D02*
X40640000Y-39370000D01*
X33020000Y-45720000D02*
X40640000Y-45720000D01*
X40640000Y-39370000D02*
X39370000Y-38100000D01*
%TO.N,Net-(C1-Pad2)*%
X46990000Y-50800000D02*
X50800000Y-50800000D01*
X50800000Y-48260000D02*
X50800000Y-45720000D01*
X43140000Y-45720000D02*
X50800000Y-45720000D01*
X57150000Y-48260000D02*
X50800000Y-48260000D01*
X50800000Y-50800000D02*
X50800000Y-48260000D01*
%TO.N,/V_SUP_B*%
X60325000Y-32320112D02*
X60325000Y-36195000D01*
X46990000Y-38100000D02*
X50800000Y-38100000D01*
X50800000Y-38100000D02*
X52070000Y-36830000D01*
X60325000Y-36195000D02*
X60960000Y-36830000D01*
X52070000Y-36830000D02*
X60960000Y-36830000D01*
%TO.N,Net-(C3-Pad1)*%
X55875000Y-64760000D02*
X55875000Y-62235000D01*
X55875000Y-62235000D02*
X57150000Y-60960000D01*
X57150000Y-60960000D02*
X64834888Y-60960000D01*
%TO.N,Net-(C4-Pad1)*%
X55890000Y-57140000D02*
X59690000Y-53340000D01*
X58420000Y-48260000D02*
X58420000Y-52070000D01*
X64135000Y-48895000D02*
X59690000Y-53340000D01*
X68644888Y-48895000D02*
X64135000Y-48895000D01*
X55875000Y-57140000D02*
X55890000Y-57140000D01*
X58420000Y-52070000D02*
X59690000Y-53340000D01*
%TO.N,Net-(C5-Pad1)*%
X75565000Y-44450000D02*
X59690000Y-44450000D01*
X78169888Y-47054888D02*
X75565000Y-44450000D01*
X59690000Y-44450000D02*
X59690000Y-42545000D01*
X78169888Y-48895000D02*
X78169888Y-47054888D01*
X59690000Y-48260000D02*
X59690000Y-44450000D01*
%TO.N,Net-(C5-Pad2)*%
X80669888Y-48895000D02*
X83185000Y-48895000D01*
X83185000Y-46990000D02*
X85725000Y-44450000D01*
X85725000Y-44450000D02*
X90805000Y-44450000D01*
X83185000Y-48895000D02*
X83185000Y-46990000D01*
X90805000Y-59690000D02*
X84455000Y-59690000D01*
X84455000Y-59690000D02*
X83185000Y-58420000D01*
X83185000Y-58420000D02*
X83185000Y-48895000D01*
%TO.N,/V_SUP_A*%
X71755000Y-37400113D02*
X74994887Y-40640000D01*
X71755000Y-33655000D02*
X71755000Y-36830000D01*
X67310000Y-41275000D02*
X68580000Y-40005000D01*
X71755000Y-36830000D02*
X71755000Y-37400113D01*
X74994887Y-39305113D02*
X77978000Y-36322000D01*
X67310000Y-42545000D02*
X67310000Y-41275000D01*
X68580000Y-40005000D02*
X68580000Y-36830000D01*
X68580000Y-36830000D02*
X71755000Y-36830000D01*
X77978000Y-36322000D02*
X82550000Y-36322000D01*
X65405000Y-40640000D02*
X67310000Y-42545000D01*
X74994887Y-40640000D02*
X74994887Y-39305113D01*
X50800000Y-40640000D02*
X65405000Y-40640000D01*
%TO.N,/MIC_A*%
X100330000Y-32385000D02*
X112395000Y-32385000D01*
X125095000Y-43180000D02*
X122555000Y-45720000D01*
X118745000Y-59690000D02*
X122555000Y-55880000D01*
X122555000Y-55880000D02*
X122555000Y-45720000D01*
X122555000Y-45720000D02*
X121285000Y-44450000D01*
X132715000Y-43180000D02*
X125095000Y-43180000D01*
X112395000Y-32385000D02*
X118745000Y-38735000D01*
X121285000Y-44450000D02*
X118745000Y-44450000D01*
X118745000Y-38735000D02*
X118745000Y-44450000D01*
X135400000Y-45865000D02*
X132715000Y-43180000D01*
X135400000Y-50165000D02*
X135400000Y-45865000D01*
%TO.N,/MIC_B*%
X105885000Y-36830000D02*
X118745000Y-49690000D01*
X113665000Y-61595000D02*
X113665000Y-59690000D01*
X100330000Y-36830000D02*
X105885000Y-36830000D01*
X131585000Y-46355000D02*
X127000000Y-46355000D01*
X124460000Y-48895000D02*
X124460000Y-58420000D01*
X114935000Y-62865000D02*
X113665000Y-61595000D01*
X127000000Y-46355000D02*
X124460000Y-48895000D01*
X118745000Y-54610000D02*
X118745000Y-49690000D01*
X113665000Y-59690000D02*
X118745000Y-54610000D01*
X120015000Y-62865000D02*
X114935000Y-62865000D01*
X124460000Y-58420000D02*
X120015000Y-62865000D01*
%TO.N,/P48*%
X92202000Y-36322000D02*
X92710000Y-36830000D01*
X92710000Y-36830000D02*
X92710000Y-32385000D01*
X90170000Y-36322000D02*
X92202000Y-36322000D01*
%TD*%
%TA.AperFunction,Conductor*%
%TO.N,GND*%
G36*
X147769621Y-25928502D02*
G01*
X147816114Y-25982158D01*
X147827500Y-26034500D01*
X147827500Y-66929500D01*
X147807498Y-66997621D01*
X147753842Y-67044114D01*
X147701500Y-67055500D01*
X26034500Y-67055500D01*
X25966379Y-67035498D01*
X25919886Y-66981842D01*
X25908500Y-66929500D01*
X25908500Y-63488609D01*
X27216734Y-63488609D01*
X27216906Y-63492004D01*
X27216906Y-63492005D01*
X27227752Y-63706109D01*
X27234591Y-63841106D01*
X27235128Y-63844461D01*
X27235129Y-63844467D01*
X27254190Y-63963471D01*
X27290412Y-64189613D01*
X27383546Y-64530053D01*
X27512903Y-64858443D01*
X27514486Y-64861458D01*
X27675384Y-65167926D01*
X27675389Y-65167934D01*
X27676968Y-65170942D01*
X27678862Y-65173760D01*
X27678867Y-65173769D01*
X27838792Y-65411762D01*
X27873824Y-65463895D01*
X28101167Y-65733873D01*
X28103627Y-65736224D01*
X28103630Y-65736227D01*
X28353875Y-65975366D01*
X28353882Y-65975372D01*
X28356338Y-65977719D01*
X28636351Y-66192581D01*
X28639269Y-66194355D01*
X28935017Y-66374173D01*
X28935022Y-66374176D01*
X28937932Y-66375945D01*
X28941020Y-66377391D01*
X28941019Y-66377391D01*
X29254468Y-66524222D01*
X29254478Y-66524226D01*
X29257552Y-66525666D01*
X29260770Y-66526768D01*
X29260773Y-66526769D01*
X29588241Y-66638887D01*
X29588245Y-66638888D01*
X29591472Y-66639993D01*
X29594802Y-66640743D01*
X29594811Y-66640746D01*
X29838164Y-66695587D01*
X29935786Y-66717587D01*
X29939171Y-66717973D01*
X29939179Y-66717974D01*
X30283083Y-66757157D01*
X30283091Y-66757157D01*
X30286466Y-66757542D01*
X30289870Y-66757560D01*
X30289873Y-66757560D01*
X30481627Y-66758564D01*
X30639411Y-66759390D01*
X30642797Y-66759040D01*
X30642799Y-66759040D01*
X30987098Y-66723461D01*
X30987107Y-66723460D01*
X30990490Y-66723110D01*
X30993823Y-66722396D01*
X30993826Y-66722395D01*
X31163692Y-66685979D01*
X31335598Y-66649125D01*
X31670697Y-66538301D01*
X31991867Y-66391936D01*
X32085405Y-66336397D01*
X32292407Y-66213489D01*
X32292412Y-66213486D01*
X32295352Y-66211740D01*
X32320870Y-66192581D01*
X32574867Y-66001874D01*
X32577600Y-65999822D01*
X32835310Y-65758661D01*
X32964784Y-65608134D01*
X54566500Y-65608134D01*
X54573255Y-65670316D01*
X54624385Y-65806705D01*
X54711739Y-65923261D01*
X54828295Y-66010615D01*
X54964684Y-66061745D01*
X55026866Y-66068500D01*
X56723134Y-66068500D01*
X56785316Y-66061745D01*
X56921705Y-66010615D01*
X57038261Y-65923261D01*
X57125615Y-65806705D01*
X57176745Y-65670316D01*
X57177917Y-65659526D01*
X57178803Y-65657394D01*
X57179425Y-65654778D01*
X57179848Y-65654879D01*
X57205155Y-65593965D01*
X57263517Y-65553537D01*
X57334471Y-65551078D01*
X57395490Y-65587371D01*
X57402489Y-65596031D01*
X57405643Y-65599789D01*
X57408802Y-65604300D01*
X57570700Y-65766198D01*
X57575208Y-65769355D01*
X57575211Y-65769357D01*
X57616542Y-65798297D01*
X57758251Y-65897523D01*
X57763233Y-65899846D01*
X57763238Y-65899849D01*
X57960775Y-65991961D01*
X57965757Y-65994284D01*
X57971065Y-65995706D01*
X57971067Y-65995707D01*
X58181598Y-66052119D01*
X58181600Y-66052119D01*
X58186913Y-66053543D01*
X58415000Y-66073498D01*
X58643087Y-66053543D01*
X58648400Y-66052119D01*
X58648402Y-66052119D01*
X58858933Y-65995707D01*
X58858935Y-65995706D01*
X58864243Y-65994284D01*
X58869225Y-65991961D01*
X59066762Y-65899849D01*
X59066767Y-65899846D01*
X59071749Y-65897523D01*
X59213458Y-65798297D01*
X59254789Y-65769357D01*
X59254792Y-65769355D01*
X59259300Y-65766198D01*
X59421198Y-65604300D01*
X59552523Y-65416749D01*
X59554846Y-65411767D01*
X59554849Y-65411762D01*
X59646961Y-65214225D01*
X59646961Y-65214224D01*
X59649284Y-65209243D01*
X59708543Y-64988087D01*
X59728498Y-64760000D01*
X59708543Y-64531913D01*
X59649284Y-64310757D01*
X59609880Y-64226254D01*
X59554849Y-64108238D01*
X59554846Y-64108233D01*
X59552523Y-64103251D01*
X59421198Y-63915700D01*
X59259300Y-63753802D01*
X59254792Y-63750645D01*
X59254789Y-63750643D01*
X59157456Y-63682490D01*
X59071749Y-63622477D01*
X59066767Y-63620154D01*
X59066762Y-63620151D01*
X58869225Y-63528039D01*
X58869224Y-63528039D01*
X58864243Y-63525716D01*
X58858935Y-63524294D01*
X58858933Y-63524293D01*
X58648402Y-63467881D01*
X58648400Y-63467881D01*
X58643087Y-63466457D01*
X58415000Y-63446502D01*
X58186913Y-63466457D01*
X58181600Y-63467881D01*
X58181598Y-63467881D01*
X57971067Y-63524293D01*
X57971065Y-63524294D01*
X57965757Y-63525716D01*
X57960776Y-63528039D01*
X57960775Y-63528039D01*
X57763238Y-63620151D01*
X57763233Y-63620154D01*
X57758251Y-63622477D01*
X57672544Y-63682490D01*
X57575211Y-63750643D01*
X57575208Y-63750645D01*
X57570700Y-63753802D01*
X57408802Y-63915700D01*
X57405643Y-63920211D01*
X57402108Y-63924424D01*
X57400974Y-63923473D01*
X57350929Y-63963471D01*
X57280310Y-63970776D01*
X57216951Y-63938742D01*
X57180970Y-63877538D01*
X57177918Y-63860483D01*
X57176745Y-63849684D01*
X57125615Y-63713295D01*
X57038261Y-63596739D01*
X56921705Y-63509385D01*
X56891853Y-63498194D01*
X56815270Y-63469484D01*
X56758506Y-63426842D01*
X56733806Y-63360281D01*
X56733500Y-63351502D01*
X56733500Y-62642792D01*
X56753502Y-62574671D01*
X56770405Y-62553697D01*
X57468697Y-61855405D01*
X57531009Y-61821379D01*
X57557792Y-61818500D01*
X63426390Y-61818500D01*
X63494511Y-61838502D01*
X63541004Y-61892158D01*
X63544372Y-61900270D01*
X63584273Y-62006705D01*
X63671627Y-62123261D01*
X63788183Y-62210615D01*
X63924572Y-62261745D01*
X63986754Y-62268500D01*
X65683022Y-62268500D01*
X65745204Y-62261745D01*
X65881593Y-62210615D01*
X65998149Y-62123261D01*
X66085503Y-62006705D01*
X66136633Y-61870316D01*
X66143388Y-61808134D01*
X66143388Y-60111866D01*
X66136633Y-60049684D01*
X66085503Y-59913295D01*
X65998149Y-59796739D01*
X65881593Y-59709385D01*
X65745204Y-59658255D01*
X65683022Y-59651500D01*
X63986754Y-59651500D01*
X63924572Y-59658255D01*
X63788183Y-59709385D01*
X63671627Y-59796739D01*
X63584273Y-59913295D01*
X63581121Y-59921703D01*
X63544372Y-60019730D01*
X63501730Y-60076494D01*
X63435169Y-60101194D01*
X63426390Y-60101500D01*
X57191390Y-60101500D01*
X57180847Y-60101058D01*
X57128901Y-60096696D01*
X57122141Y-60097598D01*
X57122139Y-60097598D01*
X57048398Y-60107437D01*
X57045343Y-60107807D01*
X57013111Y-60111309D01*
X56964563Y-60116583D01*
X56958099Y-60118758D01*
X56954824Y-60119478D01*
X56954428Y-60119548D01*
X56954004Y-60119671D01*
X56950784Y-60120462D01*
X56944011Y-60121366D01*
X56867677Y-60149149D01*
X56864802Y-60150156D01*
X56846227Y-60156407D01*
X56787777Y-60176078D01*
X56781923Y-60179596D01*
X56778916Y-60180985D01*
X56778511Y-60181152D01*
X56778135Y-60181357D01*
X56775148Y-60182827D01*
X56768732Y-60185162D01*
X56700080Y-60228730D01*
X56697611Y-60230255D01*
X56627891Y-60272147D01*
X56622934Y-60276834D01*
X56620277Y-60278851D01*
X56619531Y-60279369D01*
X56615598Y-60282344D01*
X56611241Y-60285109D01*
X56606968Y-60288930D01*
X56552989Y-60342909D01*
X56550467Y-60345363D01*
X56492364Y-60400308D01*
X56488526Y-60405956D01*
X56484107Y-60411148D01*
X56483707Y-60410808D01*
X56477098Y-60418800D01*
X55886037Y-61009860D01*
X55297217Y-61598680D01*
X55289451Y-61605822D01*
X55249633Y-61639471D01*
X55245486Y-61644895D01*
X55245485Y-61644896D01*
X55200326Y-61703962D01*
X55198432Y-61706379D01*
X55147490Y-61769738D01*
X55144453Y-61775857D01*
X55142665Y-61778652D01*
X55142412Y-61779013D01*
X55142210Y-61779380D01*
X55140479Y-61782238D01*
X55136340Y-61787652D01*
X55121590Y-61819283D01*
X55102015Y-61861262D01*
X55100681Y-61864033D01*
X55064553Y-61936814D01*
X55062902Y-61943435D01*
X55061751Y-61946563D01*
X55061587Y-61946956D01*
X55061468Y-61947361D01*
X55060391Y-61950525D01*
X55057510Y-61956704D01*
X55046334Y-62006705D01*
X55039785Y-62036002D01*
X55039076Y-62038998D01*
X55019428Y-62117801D01*
X55019237Y-62124622D01*
X55018785Y-62127925D01*
X55018626Y-62128809D01*
X55017948Y-62133692D01*
X55016820Y-62138740D01*
X55016500Y-62144463D01*
X55016500Y-62220844D01*
X55016451Y-62224363D01*
X55014219Y-62304257D01*
X55015498Y-62310961D01*
X55016045Y-62317762D01*
X55015525Y-62317804D01*
X55016500Y-62328125D01*
X55016500Y-63351502D01*
X54996498Y-63419623D01*
X54942842Y-63466116D01*
X54934730Y-63469484D01*
X54858147Y-63498194D01*
X54828295Y-63509385D01*
X54711739Y-63596739D01*
X54624385Y-63713295D01*
X54573255Y-63849684D01*
X54566500Y-63911866D01*
X54566500Y-65608134D01*
X32964784Y-65608134D01*
X33065468Y-65491078D01*
X33265380Y-65200203D01*
X33266992Y-65197209D01*
X33266997Y-65197201D01*
X33431087Y-64892452D01*
X33432709Y-64889440D01*
X33565498Y-64562422D01*
X33573816Y-64533223D01*
X33613844Y-64392699D01*
X33662191Y-64222976D01*
X33668469Y-64186247D01*
X33721087Y-63878420D01*
X33721087Y-63878418D01*
X33721659Y-63875073D01*
X33722553Y-63860471D01*
X33743096Y-63524580D01*
X33743206Y-63522782D01*
X33743286Y-63500000D01*
X33724199Y-63147567D01*
X33667161Y-62799257D01*
X33572839Y-62459145D01*
X33569849Y-62451630D01*
X33445335Y-62138740D01*
X33442338Y-62131208D01*
X33344858Y-61947100D01*
X33278777Y-61822295D01*
X33278775Y-61822292D01*
X33277182Y-61819283D01*
X33272609Y-61812529D01*
X33081211Y-61529834D01*
X33081204Y-61529825D01*
X33079305Y-61527020D01*
X33077109Y-61524430D01*
X33077104Y-61524424D01*
X32909767Y-61327108D01*
X32851021Y-61257837D01*
X32595001Y-61014883D01*
X32592294Y-61012821D01*
X32592286Y-61012814D01*
X32396094Y-60863357D01*
X32314239Y-60801000D01*
X32012020Y-60618689D01*
X32008930Y-60617255D01*
X32008925Y-60617252D01*
X31812174Y-60525924D01*
X31691879Y-60470085D01*
X31688654Y-60468993D01*
X31688648Y-60468991D01*
X31360798Y-60358020D01*
X31360793Y-60358018D01*
X31357562Y-60356925D01*
X31343832Y-60353881D01*
X31170105Y-60315367D01*
X31012979Y-60280533D01*
X30888353Y-60266774D01*
X30665543Y-60242175D01*
X30665538Y-60242175D01*
X30662162Y-60241802D01*
X30658763Y-60241796D01*
X30658762Y-60241796D01*
X30492289Y-60241506D01*
X30309213Y-60241186D01*
X30178206Y-60255187D01*
X29961646Y-60278330D01*
X29961640Y-60278331D01*
X29958262Y-60278692D01*
X29613414Y-60353881D01*
X29278704Y-60465873D01*
X28958047Y-60613359D01*
X28655194Y-60794613D01*
X28373687Y-61007515D01*
X28116820Y-61249574D01*
X28114608Y-61252164D01*
X28114607Y-61252165D01*
X27935609Y-61461745D01*
X27887598Y-61517959D01*
X27885670Y-61520786D01*
X27885668Y-61520788D01*
X27859677Y-61558889D01*
X27688702Y-61809530D01*
X27651734Y-61878765D01*
X27527589Y-62111267D01*
X27522458Y-62120876D01*
X27521183Y-62124048D01*
X27521181Y-62124052D01*
X27443311Y-62317762D01*
X27390813Y-62448355D01*
X27389894Y-62451623D01*
X27389892Y-62451630D01*
X27296225Y-62784858D01*
X27295304Y-62788136D01*
X27294743Y-62791489D01*
X27294742Y-62791493D01*
X27237614Y-63132880D01*
X27237051Y-63136245D01*
X27216734Y-63488609D01*
X25908500Y-63488609D01*
X25908500Y-45720000D01*
X31481758Y-45720000D01*
X31500696Y-45960634D01*
X31501850Y-45965441D01*
X31501851Y-45965447D01*
X31528955Y-46078340D01*
X31557045Y-46195343D01*
X31558938Y-46199914D01*
X31558939Y-46199916D01*
X31646449Y-46411183D01*
X31649416Y-46418347D01*
X31775536Y-46624156D01*
X31932299Y-46807701D01*
X32115844Y-46964464D01*
X32321653Y-47090584D01*
X32326223Y-47092477D01*
X32326227Y-47092479D01*
X32540084Y-47181061D01*
X32544657Y-47182955D01*
X32627039Y-47202733D01*
X32774553Y-47238149D01*
X32774559Y-47238150D01*
X32779366Y-47239304D01*
X33020000Y-47258242D01*
X33260634Y-47239304D01*
X33265441Y-47238150D01*
X33265447Y-47238149D01*
X33412961Y-47202733D01*
X33495343Y-47182955D01*
X33499916Y-47181061D01*
X33713773Y-47092479D01*
X33713777Y-47092477D01*
X33718347Y-47090584D01*
X33924156Y-46964464D01*
X34107701Y-46807701D01*
X34177312Y-46726198D01*
X34264464Y-46624156D01*
X34265940Y-46625417D01*
X34315622Y-46587093D01*
X34361355Y-46578500D01*
X39231502Y-46578500D01*
X39299623Y-46598502D01*
X39346116Y-46652158D01*
X39349484Y-46660270D01*
X39372739Y-46722301D01*
X39389385Y-46766705D01*
X39476739Y-46883261D01*
X39593295Y-46970615D01*
X39729684Y-47021745D01*
X39791866Y-47028500D01*
X41488134Y-47028500D01*
X41550316Y-47021745D01*
X41686705Y-46970615D01*
X41803261Y-46883261D01*
X41890615Y-46766705D01*
X41941745Y-46630316D01*
X41943691Y-46631046D01*
X41973545Y-46578795D01*
X42036503Y-46545979D01*
X42107207Y-46552409D01*
X42150000Y-46580498D01*
X42295700Y-46726198D01*
X42300208Y-46729355D01*
X42300211Y-46729357D01*
X42327929Y-46748765D01*
X42483251Y-46857523D01*
X42488233Y-46859846D01*
X42488238Y-46859849D01*
X42644806Y-46932857D01*
X42690757Y-46954284D01*
X42696065Y-46955706D01*
X42696067Y-46955707D01*
X42906598Y-47012119D01*
X42906600Y-47012119D01*
X42911913Y-47013543D01*
X43140000Y-47033498D01*
X43368087Y-47013543D01*
X43373400Y-47012119D01*
X43373402Y-47012119D01*
X43583933Y-46955707D01*
X43583935Y-46955706D01*
X43589243Y-46954284D01*
X43635194Y-46932857D01*
X43791762Y-46859849D01*
X43791767Y-46859846D01*
X43796749Y-46857523D01*
X43952071Y-46748765D01*
X43979789Y-46729357D01*
X43979792Y-46729355D01*
X43984300Y-46726198D01*
X44095093Y-46615405D01*
X44157405Y-46581379D01*
X44184188Y-46578500D01*
X49491332Y-46578500D01*
X49559453Y-46598502D01*
X49587143Y-46622669D01*
X49710162Y-46766705D01*
X49730031Y-46789969D01*
X49733787Y-46793177D01*
X49897331Y-46932857D01*
X49936140Y-46992308D01*
X49941500Y-47028668D01*
X49941500Y-48178990D01*
X49939808Y-48199569D01*
X49937784Y-48211795D01*
X49938141Y-48218611D01*
X49938141Y-48218615D01*
X49941327Y-48279393D01*
X49941500Y-48285988D01*
X49941500Y-49165500D01*
X49921498Y-49233621D01*
X49867842Y-49280114D01*
X49815500Y-49291500D01*
X49751866Y-49291500D01*
X49689684Y-49298255D01*
X49553295Y-49349385D01*
X49436739Y-49436739D01*
X49349385Y-49553295D01*
X49298255Y-49689684D01*
X49291500Y-49751866D01*
X49291500Y-49815500D01*
X49271498Y-49883621D01*
X49217842Y-49930114D01*
X49165500Y-49941500D01*
X47892767Y-49941500D01*
X47824646Y-49921498D01*
X47803672Y-49904595D01*
X47769776Y-49870699D01*
X47596558Y-49749411D01*
X47591580Y-49747090D01*
X47591577Y-49747088D01*
X47409892Y-49662367D01*
X47409891Y-49662366D01*
X47404910Y-49660044D01*
X47399602Y-49658622D01*
X47399600Y-49658621D01*
X47205970Y-49606738D01*
X47205968Y-49606738D01*
X47200655Y-49605314D01*
X46990000Y-49586884D01*
X46779345Y-49605314D01*
X46774032Y-49606738D01*
X46774030Y-49606738D01*
X46580400Y-49658621D01*
X46580398Y-49658622D01*
X46575090Y-49660044D01*
X46570109Y-49662366D01*
X46570108Y-49662367D01*
X46388423Y-49747088D01*
X46388420Y-49747090D01*
X46383442Y-49749411D01*
X46210224Y-49870699D01*
X46060699Y-50020224D01*
X45939411Y-50193442D01*
X45937090Y-50198420D01*
X45937088Y-50198423D01*
X45852367Y-50380108D01*
X45850044Y-50385090D01*
X45795314Y-50589345D01*
X45776884Y-50800000D01*
X45795314Y-51010655D01*
X45796738Y-51015968D01*
X45796738Y-51015970D01*
X45805572Y-51048937D01*
X45850044Y-51214910D01*
X45852366Y-51219891D01*
X45852367Y-51219892D01*
X45936683Y-51400707D01*
X45939411Y-51406558D01*
X46060699Y-51579776D01*
X46210224Y-51729301D01*
X46383442Y-51850589D01*
X46388420Y-51852910D01*
X46388423Y-51852912D01*
X46570108Y-51937633D01*
X46575090Y-51939956D01*
X46580398Y-51941378D01*
X46580400Y-51941379D01*
X46774030Y-51993262D01*
X46774032Y-51993262D01*
X46779345Y-51994686D01*
X46990000Y-52013116D01*
X47200655Y-51994686D01*
X47205968Y-51993262D01*
X47205970Y-51993262D01*
X47399600Y-51941379D01*
X47399602Y-51941378D01*
X47404910Y-51939956D01*
X47409892Y-51937633D01*
X47591577Y-51852912D01*
X47591580Y-51852910D01*
X47596558Y-51850589D01*
X47769776Y-51729301D01*
X47803672Y-51695405D01*
X47865984Y-51661379D01*
X47892767Y-51658500D01*
X49165500Y-51658500D01*
X49233621Y-51678502D01*
X49280114Y-51732158D01*
X49291500Y-51784500D01*
X49291500Y-51848134D01*
X49298255Y-51910316D01*
X49349385Y-52046705D01*
X49436739Y-52163261D01*
X49553295Y-52250615D01*
X49689684Y-52301745D01*
X49751866Y-52308500D01*
X51848134Y-52308500D01*
X51910316Y-52301745D01*
X52046705Y-52250615D01*
X52163261Y-52163261D01*
X52250615Y-52046705D01*
X52301745Y-51910316D01*
X52308500Y-51848134D01*
X52308500Y-49751866D01*
X52301745Y-49689684D01*
X52250615Y-49553295D01*
X52163261Y-49436739D01*
X52046705Y-49349385D01*
X52047571Y-49348229D01*
X52004202Y-49304763D01*
X51989187Y-49235372D01*
X52014071Y-49168880D01*
X52070954Y-49126396D01*
X52114856Y-49118500D01*
X56035246Y-49118500D01*
X56103367Y-49138502D01*
X56149860Y-49192158D01*
X56153228Y-49200270D01*
X56165731Y-49233621D01*
X56174385Y-49256705D01*
X56261739Y-49373261D01*
X56378295Y-49460615D01*
X56514684Y-49511745D01*
X56576866Y-49518500D01*
X57435500Y-49518500D01*
X57503621Y-49538502D01*
X57550114Y-49592158D01*
X57561500Y-49644500D01*
X57561500Y-52028610D01*
X57561058Y-52039152D01*
X57556696Y-52091099D01*
X57557598Y-52097859D01*
X57557598Y-52097861D01*
X57567437Y-52171602D01*
X57567807Y-52174657D01*
X57576583Y-52255437D01*
X57578758Y-52261901D01*
X57579478Y-52265176D01*
X57579548Y-52265572D01*
X57579671Y-52265996D01*
X57580462Y-52269216D01*
X57581366Y-52275989D01*
X57609139Y-52352294D01*
X57610156Y-52355198D01*
X57611538Y-52359304D01*
X57636078Y-52432223D01*
X57639596Y-52438077D01*
X57640985Y-52441084D01*
X57641152Y-52441489D01*
X57641357Y-52441865D01*
X57642827Y-52444852D01*
X57645162Y-52451268D01*
X57688730Y-52519920D01*
X57690255Y-52522389D01*
X57732147Y-52592109D01*
X57736834Y-52597066D01*
X57738851Y-52599723D01*
X57739369Y-52600469D01*
X57742344Y-52604402D01*
X57745109Y-52608759D01*
X57748930Y-52613032D01*
X57802908Y-52667010D01*
X57805362Y-52669532D01*
X57860308Y-52727636D01*
X57865950Y-52731471D01*
X57871148Y-52735894D01*
X57870811Y-52736290D01*
X57878802Y-52742904D01*
X58386803Y-53250905D01*
X58420829Y-53313217D01*
X58415764Y-53384032D01*
X58386803Y-53429095D01*
X57202737Y-54613160D01*
X56021739Y-55794158D01*
X55959427Y-55828184D01*
X55921664Y-55830584D01*
X55880477Y-55826981D01*
X55880475Y-55826981D01*
X55875000Y-55826502D01*
X55646913Y-55846457D01*
X55641600Y-55847881D01*
X55641598Y-55847881D01*
X55431067Y-55904293D01*
X55431065Y-55904294D01*
X55425757Y-55905716D01*
X55420776Y-55908039D01*
X55420775Y-55908039D01*
X55223238Y-56000151D01*
X55223233Y-56000154D01*
X55218251Y-56002477D01*
X55150591Y-56049853D01*
X55035211Y-56130643D01*
X55035208Y-56130645D01*
X55030700Y-56133802D01*
X54868802Y-56295700D01*
X54865645Y-56300208D01*
X54865643Y-56300211D01*
X54840340Y-56336348D01*
X54737477Y-56483251D01*
X54735154Y-56488233D01*
X54735151Y-56488238D01*
X54643039Y-56685775D01*
X54640716Y-56690757D01*
X54581457Y-56911913D01*
X54561502Y-57140000D01*
X54581457Y-57368087D01*
X54640716Y-57589243D01*
X54643039Y-57594224D01*
X54643039Y-57594225D01*
X54735151Y-57791762D01*
X54735154Y-57791767D01*
X54737477Y-57796749D01*
X54740634Y-57801257D01*
X54862130Y-57974771D01*
X54868802Y-57984300D01*
X55030700Y-58146198D01*
X55035208Y-58149355D01*
X55035211Y-58149357D01*
X55069398Y-58173295D01*
X55218251Y-58277523D01*
X55223233Y-58279846D01*
X55223238Y-58279849D01*
X55420775Y-58371961D01*
X55425757Y-58374284D01*
X55431065Y-58375706D01*
X55431067Y-58375707D01*
X55641598Y-58432119D01*
X55641600Y-58432119D01*
X55646913Y-58433543D01*
X55875000Y-58453498D01*
X56103087Y-58433543D01*
X56108400Y-58432119D01*
X56108402Y-58432119D01*
X56318933Y-58375707D01*
X56318935Y-58375706D01*
X56324243Y-58374284D01*
X56329225Y-58371961D01*
X56526762Y-58279849D01*
X56526767Y-58279846D01*
X56531749Y-58277523D01*
X56680602Y-58173295D01*
X56714789Y-58149357D01*
X56714792Y-58149355D01*
X56719300Y-58146198D01*
X56881198Y-57984300D01*
X56887871Y-57974771D01*
X57009366Y-57801257D01*
X57012523Y-57796749D01*
X57014846Y-57791767D01*
X57014849Y-57791762D01*
X57030805Y-57757543D01*
X57077722Y-57704258D01*
X57145999Y-57684797D01*
X57213959Y-57705339D01*
X57259195Y-57757543D01*
X57275151Y-57791762D01*
X57275154Y-57791767D01*
X57277477Y-57796749D01*
X57280634Y-57801257D01*
X57402130Y-57974771D01*
X57408802Y-57984300D01*
X57570700Y-58146198D01*
X57575208Y-58149355D01*
X57575211Y-58149357D01*
X57609398Y-58173295D01*
X57758251Y-58277523D01*
X57763233Y-58279846D01*
X57763238Y-58279849D01*
X57960775Y-58371961D01*
X57965757Y-58374284D01*
X57971065Y-58375706D01*
X57971067Y-58375707D01*
X58181598Y-58432119D01*
X58181600Y-58432119D01*
X58186913Y-58433543D01*
X58415000Y-58453498D01*
X58643087Y-58433543D01*
X58648400Y-58432119D01*
X58648402Y-58432119D01*
X58858933Y-58375707D01*
X58858935Y-58375706D01*
X58864243Y-58374284D01*
X58869225Y-58371961D01*
X59066762Y-58279849D01*
X59066767Y-58279846D01*
X59071749Y-58277523D01*
X59220602Y-58173295D01*
X59254789Y-58149357D01*
X59254792Y-58149355D01*
X59259300Y-58146198D01*
X59421198Y-57984300D01*
X59427871Y-57974771D01*
X59549366Y-57801257D01*
X59552523Y-57796749D01*
X59554846Y-57791767D01*
X59554849Y-57791762D01*
X59646961Y-57594225D01*
X59646961Y-57594224D01*
X59649284Y-57589243D01*
X59708543Y-57368087D01*
X59728498Y-57140000D01*
X59708543Y-56911913D01*
X59649284Y-56690757D01*
X59646961Y-56685775D01*
X59554849Y-56488238D01*
X59554846Y-56488233D01*
X59552523Y-56483251D01*
X59449660Y-56336348D01*
X59424357Y-56300211D01*
X59424355Y-56300208D01*
X59421198Y-56295700D01*
X59259300Y-56133802D01*
X59254792Y-56130645D01*
X59254789Y-56130643D01*
X59139409Y-56049853D01*
X59071749Y-56002477D01*
X59066767Y-56000154D01*
X59066762Y-56000151D01*
X58869225Y-55908039D01*
X58869224Y-55908039D01*
X58864243Y-55905716D01*
X58660314Y-55851073D01*
X58599692Y-55814121D01*
X58568670Y-55750260D01*
X58577099Y-55679766D01*
X58603831Y-55640271D01*
X59658652Y-54585450D01*
X59720964Y-54551424D01*
X59736764Y-54549024D01*
X59900655Y-54534686D01*
X60035882Y-54498452D01*
X60099600Y-54481379D01*
X60099602Y-54481378D01*
X60104910Y-54479956D01*
X60109892Y-54477633D01*
X60291577Y-54392912D01*
X60291580Y-54392910D01*
X60296558Y-54390589D01*
X60469776Y-54269301D01*
X60619301Y-54119776D01*
X60740589Y-53946558D01*
X60791149Y-53838133D01*
X60827633Y-53759892D01*
X60827634Y-53759891D01*
X60829956Y-53754910D01*
X60884686Y-53550655D01*
X60899024Y-53386765D01*
X60924887Y-53320647D01*
X60935450Y-53308652D01*
X64453697Y-49790405D01*
X64516009Y-49756379D01*
X64542792Y-49753500D01*
X67236390Y-49753500D01*
X67304511Y-49773502D01*
X67351004Y-49827158D01*
X67354372Y-49835270D01*
X67394273Y-49941705D01*
X67481627Y-50058261D01*
X67598183Y-50145615D01*
X67734572Y-50196745D01*
X67796754Y-50203500D01*
X69493022Y-50203500D01*
X69555204Y-50196745D01*
X69691593Y-50145615D01*
X69808149Y-50058261D01*
X69895503Y-49941705D01*
X69946633Y-49805316D01*
X69953388Y-49743134D01*
X69953388Y-48046866D01*
X69946633Y-47984684D01*
X69895503Y-47848295D01*
X69808149Y-47731739D01*
X69691593Y-47644385D01*
X69555204Y-47593255D01*
X69493022Y-47586500D01*
X67796754Y-47586500D01*
X67734572Y-47593255D01*
X67598183Y-47644385D01*
X67481627Y-47731739D01*
X67394273Y-47848295D01*
X67391121Y-47856703D01*
X67354372Y-47954730D01*
X67311730Y-48011494D01*
X67245169Y-48036194D01*
X67236390Y-48036500D01*
X64176390Y-48036500D01*
X64165847Y-48036058D01*
X64113901Y-48031696D01*
X64107141Y-48032598D01*
X64107139Y-48032598D01*
X64033398Y-48042437D01*
X64030343Y-48042807D01*
X63998111Y-48046309D01*
X63949563Y-48051583D01*
X63943099Y-48053758D01*
X63939824Y-48054478D01*
X63939428Y-48054548D01*
X63939004Y-48054671D01*
X63935784Y-48055462D01*
X63929011Y-48056366D01*
X63852677Y-48084149D01*
X63849802Y-48085156D01*
X63831227Y-48091407D01*
X63772777Y-48111078D01*
X63766923Y-48114596D01*
X63763916Y-48115985D01*
X63763511Y-48116152D01*
X63763135Y-48116357D01*
X63760148Y-48117827D01*
X63753732Y-48120162D01*
X63685080Y-48163730D01*
X63682611Y-48165255D01*
X63612891Y-48207147D01*
X63607934Y-48211834D01*
X63605277Y-48213851D01*
X63604531Y-48214369D01*
X63600598Y-48217344D01*
X63596241Y-48220109D01*
X63591968Y-48223930D01*
X63537990Y-48277908D01*
X63535468Y-48280362D01*
X63477364Y-48335308D01*
X63473526Y-48340956D01*
X63469107Y-48346148D01*
X63468707Y-48345808D01*
X63462098Y-48353800D01*
X59779095Y-52036802D01*
X59716783Y-52070828D01*
X59645967Y-52065763D01*
X59600905Y-52036802D01*
X59315405Y-51751302D01*
X59281379Y-51688990D01*
X59278500Y-51662207D01*
X59278500Y-49610452D01*
X59298502Y-49542331D01*
X59352158Y-49495838D01*
X59422432Y-49485734D01*
X59441755Y-49490086D01*
X59481180Y-49502290D01*
X59487305Y-49502934D01*
X59487306Y-49502934D01*
X59676622Y-49522832D01*
X59676623Y-49522832D01*
X59682750Y-49523476D01*
X59766014Y-49515898D01*
X59878457Y-49505665D01*
X59878460Y-49505664D01*
X59884596Y-49505106D01*
X59890502Y-49503368D01*
X59890506Y-49503367D01*
X60073120Y-49449620D01*
X60073119Y-49449620D01*
X60079029Y-49447881D01*
X60084486Y-49445028D01*
X60084489Y-49445027D01*
X60221765Y-49373261D01*
X60258645Y-49353981D01*
X60416601Y-49226981D01*
X60546881Y-49071719D01*
X60549845Y-49066327D01*
X60549848Y-49066323D01*
X60641556Y-48899506D01*
X60644523Y-48894109D01*
X60705807Y-48700916D01*
X60707142Y-48689019D01*
X60717484Y-48596814D01*
X60723500Y-48543183D01*
X60723500Y-47983996D01*
X60708723Y-47833287D01*
X60650142Y-47639258D01*
X60563248Y-47475833D01*
X60548500Y-47416680D01*
X60548500Y-45434500D01*
X60568502Y-45366379D01*
X60622158Y-45319886D01*
X60674500Y-45308500D01*
X75157208Y-45308500D01*
X75225329Y-45328502D01*
X75246303Y-45345405D01*
X77274483Y-47373586D01*
X77308509Y-47435898D01*
X77311388Y-47462681D01*
X77311388Y-47486502D01*
X77291386Y-47554623D01*
X77237730Y-47601116D01*
X77229618Y-47604484D01*
X77151368Y-47633819D01*
X77123183Y-47644385D01*
X77006627Y-47731739D01*
X76919273Y-47848295D01*
X76868143Y-47984684D01*
X76861388Y-48046866D01*
X76861388Y-49743134D01*
X76868143Y-49805316D01*
X76919273Y-49941705D01*
X77006627Y-50058261D01*
X77123183Y-50145615D01*
X77259572Y-50196745D01*
X77321754Y-50203500D01*
X79018022Y-50203500D01*
X79080204Y-50196745D01*
X79216593Y-50145615D01*
X79333149Y-50058261D01*
X79420503Y-49941705D01*
X79471633Y-49805316D01*
X79473579Y-49806046D01*
X79503433Y-49753795D01*
X79566391Y-49720979D01*
X79637095Y-49727409D01*
X79679888Y-49755498D01*
X79825588Y-49901198D01*
X79830096Y-49904355D01*
X79830099Y-49904357D01*
X79871430Y-49933297D01*
X80013139Y-50032523D01*
X80018121Y-50034846D01*
X80018126Y-50034849D01*
X80215663Y-50126961D01*
X80220645Y-50129284D01*
X80225953Y-50130706D01*
X80225955Y-50130707D01*
X80436486Y-50187119D01*
X80436488Y-50187119D01*
X80441801Y-50188543D01*
X80669888Y-50208498D01*
X80897975Y-50188543D01*
X80903288Y-50187119D01*
X80903290Y-50187119D01*
X81113821Y-50130707D01*
X81113823Y-50130706D01*
X81119131Y-50129284D01*
X81124113Y-50126961D01*
X81321650Y-50034849D01*
X81321655Y-50034846D01*
X81326637Y-50032523D01*
X81468346Y-49933297D01*
X81509677Y-49904357D01*
X81509680Y-49904355D01*
X81514188Y-49901198D01*
X81624981Y-49790405D01*
X81687293Y-49756379D01*
X81714076Y-49753500D01*
X82200500Y-49753500D01*
X82268621Y-49773502D01*
X82315114Y-49827158D01*
X82326500Y-49879500D01*
X82326500Y-58378610D01*
X82326058Y-58389152D01*
X82321696Y-58441099D01*
X82322598Y-58447859D01*
X82322598Y-58447861D01*
X82332437Y-58521602D01*
X82332807Y-58524657D01*
X82333070Y-58527075D01*
X82341583Y-58605437D01*
X82343758Y-58611901D01*
X82344478Y-58615176D01*
X82344548Y-58615572D01*
X82344671Y-58615996D01*
X82345462Y-58619216D01*
X82346366Y-58625989D01*
X82374139Y-58702294D01*
X82375156Y-58705198D01*
X82376114Y-58708044D01*
X82401078Y-58782223D01*
X82404596Y-58788077D01*
X82405985Y-58791084D01*
X82406152Y-58791489D01*
X82406357Y-58791865D01*
X82407827Y-58794852D01*
X82410162Y-58801268D01*
X82453730Y-58869920D01*
X82455255Y-58872389D01*
X82497147Y-58942109D01*
X82501834Y-58947066D01*
X82503851Y-58949723D01*
X82504369Y-58950469D01*
X82507344Y-58954402D01*
X82510109Y-58958759D01*
X82513930Y-58963032D01*
X82567908Y-59017010D01*
X82570362Y-59019532D01*
X82625308Y-59077636D01*
X82630950Y-59081471D01*
X82636148Y-59085894D01*
X82635811Y-59086290D01*
X82643802Y-59092904D01*
X83818674Y-60267776D01*
X83825816Y-60275542D01*
X83859471Y-60315367D01*
X83864890Y-60319510D01*
X83864892Y-60319512D01*
X83924008Y-60364710D01*
X83926429Y-60366609D01*
X83981826Y-60411148D01*
X83989738Y-60417509D01*
X83995850Y-60420543D01*
X83998644Y-60422330D01*
X83999004Y-60422582D01*
X83999373Y-60422785D01*
X84002234Y-60424517D01*
X84007652Y-60428660D01*
X84081277Y-60462992D01*
X84084048Y-60464326D01*
X84156814Y-60500447D01*
X84163435Y-60502098D01*
X84166563Y-60503249D01*
X84166956Y-60503413D01*
X84167361Y-60503532D01*
X84170525Y-60504609D01*
X84176704Y-60507490D01*
X84250498Y-60523985D01*
X84256002Y-60525215D01*
X84259000Y-60525924D01*
X84337801Y-60545572D01*
X84344622Y-60545763D01*
X84347925Y-60546215D01*
X84348809Y-60546374D01*
X84353692Y-60547052D01*
X84358740Y-60548180D01*
X84364463Y-60548500D01*
X84440844Y-60548500D01*
X84444363Y-60548549D01*
X84524257Y-60550781D01*
X84530961Y-60549502D01*
X84537762Y-60548955D01*
X84537804Y-60549475D01*
X84548125Y-60548500D01*
X88900500Y-60548500D01*
X88968621Y-60568502D01*
X89015114Y-60622158D01*
X89026500Y-60674500D01*
X89026500Y-61008134D01*
X89033255Y-61070316D01*
X89084385Y-61206705D01*
X89171739Y-61323261D01*
X89288295Y-61410615D01*
X89424684Y-61461745D01*
X89486866Y-61468500D01*
X92123134Y-61468500D01*
X92185316Y-61461745D01*
X92321705Y-61410615D01*
X92438261Y-61323261D01*
X92525615Y-61206705D01*
X92576745Y-61070316D01*
X92583500Y-61008134D01*
X92583500Y-58371866D01*
X92576745Y-58309684D01*
X92525615Y-58173295D01*
X92438261Y-58056739D01*
X92321705Y-57969385D01*
X92185316Y-57918255D01*
X92123134Y-57911500D01*
X89486866Y-57911500D01*
X89424684Y-57918255D01*
X89288295Y-57969385D01*
X89171739Y-58056739D01*
X89084385Y-58173295D01*
X89033255Y-58309684D01*
X89026500Y-58371866D01*
X89026500Y-58705500D01*
X89006498Y-58773621D01*
X88952842Y-58820114D01*
X88900500Y-58831500D01*
X84862793Y-58831500D01*
X84794672Y-58811498D01*
X84773697Y-58794595D01*
X84080404Y-58101301D01*
X84046379Y-58038989D01*
X84043500Y-58012206D01*
X84043500Y-48976010D01*
X84045192Y-48955431D01*
X84046101Y-48949942D01*
X84046101Y-48949939D01*
X84047216Y-48943205D01*
X84046684Y-48933039D01*
X84043673Y-48875607D01*
X84043500Y-48869012D01*
X84043500Y-47397792D01*
X84063502Y-47329671D01*
X84080405Y-47308697D01*
X86043697Y-45345405D01*
X86106009Y-45311379D01*
X86132792Y-45308500D01*
X89171880Y-45308500D01*
X89240001Y-45328502D01*
X89282872Y-45374862D01*
X89298605Y-45404142D01*
X89298608Y-45404147D01*
X89300822Y-45408267D01*
X89458985Y-45620073D01*
X89462292Y-45623351D01*
X89462297Y-45623357D01*
X89635757Y-45795308D01*
X89646718Y-45806174D01*
X89650485Y-45808936D01*
X89650486Y-45808937D01*
X89688949Y-45837139D01*
X89859896Y-45962483D01*
X89864031Y-45964659D01*
X89864035Y-45964661D01*
X89987293Y-46029510D01*
X90093836Y-46085565D01*
X90343400Y-46172716D01*
X90347993Y-46173588D01*
X90598515Y-46221151D01*
X90598518Y-46221151D01*
X90603104Y-46222022D01*
X90735173Y-46227211D01*
X90862575Y-46232218D01*
X90862581Y-46232218D01*
X90867243Y-46232401D01*
X91130015Y-46203622D01*
X91134526Y-46202434D01*
X91134528Y-46202434D01*
X91381124Y-46137511D01*
X91381126Y-46137510D01*
X91385647Y-46136320D01*
X91389944Y-46134474D01*
X91624229Y-46033817D01*
X91624231Y-46033816D01*
X91628523Y-46031972D01*
X91831461Y-45906390D01*
X91849332Y-45895331D01*
X91849334Y-45895330D01*
X91853307Y-45892871D01*
X91946710Y-45813800D01*
X92051496Y-45725093D01*
X92051498Y-45725091D01*
X92055063Y-45722073D01*
X92229356Y-45523329D01*
X92235005Y-45514548D01*
X92350372Y-45335189D01*
X92372359Y-45301006D01*
X92480930Y-45059988D01*
X92487319Y-45037336D01*
X92517302Y-44931021D01*
X92552683Y-44805570D01*
X92583425Y-44563919D01*
X92585645Y-44546471D01*
X92585645Y-44546465D01*
X92586043Y-44543340D01*
X92587024Y-44505897D01*
X92587772Y-44477294D01*
X92588487Y-44450000D01*
X92584176Y-44391983D01*
X92569243Y-44191036D01*
X92569242Y-44191032D01*
X92568897Y-44186384D01*
X92510557Y-43928559D01*
X92502873Y-43908800D01*
X92416442Y-43686542D01*
X92416441Y-43686540D01*
X92414749Y-43682189D01*
X92410734Y-43675163D01*
X92362359Y-43590525D01*
X92283578Y-43452687D01*
X92119925Y-43245094D01*
X91927385Y-43063970D01*
X91890212Y-43038182D01*
X91714026Y-42915958D01*
X91714021Y-42915955D01*
X91710188Y-42913296D01*
X91705997Y-42911229D01*
X91477294Y-42798445D01*
X91477291Y-42798444D01*
X91473106Y-42796380D01*
X91416150Y-42778148D01*
X91225792Y-42717214D01*
X91225794Y-42717214D01*
X91221347Y-42715791D01*
X91078825Y-42692580D01*
X90965053Y-42674051D01*
X90965052Y-42674051D01*
X90960441Y-42673300D01*
X90828281Y-42671570D01*
X90700798Y-42669901D01*
X90700795Y-42669901D01*
X90696121Y-42669840D01*
X90434192Y-42705486D01*
X90429702Y-42706795D01*
X90429696Y-42706796D01*
X90321732Y-42738265D01*
X90180410Y-42779457D01*
X90176163Y-42781415D01*
X90176160Y-42781416D01*
X90103385Y-42814966D01*
X89940348Y-42890127D01*
X89936439Y-42892690D01*
X89723195Y-43032499D01*
X89723190Y-43032503D01*
X89719282Y-43035065D01*
X89715790Y-43038182D01*
X89538116Y-43196762D01*
X89522067Y-43211086D01*
X89353036Y-43414324D01*
X89350613Y-43418317D01*
X89282316Y-43530866D01*
X89229876Y-43578726D01*
X89174597Y-43591500D01*
X85766390Y-43591500D01*
X85755847Y-43591058D01*
X85755692Y-43591045D01*
X85703901Y-43586696D01*
X85697141Y-43587598D01*
X85697139Y-43587598D01*
X85623398Y-43597437D01*
X85620343Y-43597807D01*
X85588111Y-43601309D01*
X85539563Y-43606583D01*
X85533099Y-43608758D01*
X85529824Y-43609478D01*
X85529428Y-43609548D01*
X85529004Y-43609671D01*
X85525785Y-43610462D01*
X85519011Y-43611366D01*
X85442680Y-43639148D01*
X85439830Y-43640145D01*
X85369245Y-43663900D01*
X85369235Y-43663905D01*
X85362777Y-43666078D01*
X85356931Y-43669590D01*
X85353898Y-43670992D01*
X85353514Y-43671150D01*
X85353124Y-43671363D01*
X85350145Y-43672828D01*
X85343732Y-43675163D01*
X85337974Y-43678817D01*
X85337968Y-43678820D01*
X85275147Y-43718687D01*
X85272529Y-43720304D01*
X85208742Y-43758631D01*
X85208740Y-43758633D01*
X85202891Y-43762147D01*
X85197932Y-43766837D01*
X85195280Y-43768850D01*
X85194555Y-43769354D01*
X85190615Y-43772334D01*
X85186241Y-43775109D01*
X85181968Y-43778930D01*
X85127990Y-43832908D01*
X85125468Y-43835362D01*
X85067364Y-43890308D01*
X85063526Y-43895956D01*
X85059107Y-43901148D01*
X85058707Y-43900808D01*
X85052098Y-43908800D01*
X82607217Y-46353680D01*
X82599451Y-46360822D01*
X82559633Y-46394471D01*
X82511169Y-46457860D01*
X82510326Y-46458962D01*
X82508432Y-46461379D01*
X82457490Y-46524738D01*
X82454453Y-46530857D01*
X82452665Y-46533652D01*
X82452412Y-46534013D01*
X82452210Y-46534380D01*
X82450479Y-46537238D01*
X82446340Y-46542652D01*
X82412415Y-46615405D01*
X82412015Y-46616262D01*
X82410681Y-46619033D01*
X82374553Y-46691814D01*
X82372902Y-46698435D01*
X82371751Y-46701563D01*
X82371587Y-46701956D01*
X82371468Y-46702361D01*
X82370391Y-46705525D01*
X82367510Y-46711704D01*
X82353900Y-46772594D01*
X82349785Y-46791002D01*
X82349076Y-46793998D01*
X82332769Y-46859403D01*
X82329428Y-46872801D01*
X82329237Y-46879622D01*
X82328785Y-46882925D01*
X82328626Y-46883809D01*
X82327948Y-46888692D01*
X82326820Y-46893740D01*
X82326500Y-46899463D01*
X82326500Y-46975844D01*
X82326451Y-46979363D01*
X82324219Y-47059257D01*
X82325498Y-47065961D01*
X82326045Y-47072762D01*
X82325525Y-47072804D01*
X82326500Y-47083125D01*
X82326500Y-47910500D01*
X82306498Y-47978621D01*
X82252842Y-48025114D01*
X82200500Y-48036500D01*
X81714076Y-48036500D01*
X81645955Y-48016498D01*
X81624981Y-47999595D01*
X81514188Y-47888802D01*
X81509680Y-47885645D01*
X81509677Y-47885643D01*
X81363187Y-47783070D01*
X81326637Y-47757477D01*
X81321655Y-47755154D01*
X81321650Y-47755151D01*
X81124113Y-47663039D01*
X81124112Y-47663039D01*
X81119131Y-47660716D01*
X81113823Y-47659294D01*
X81113821Y-47659293D01*
X80903290Y-47602881D01*
X80903288Y-47602881D01*
X80897975Y-47601457D01*
X80669888Y-47581502D01*
X80441801Y-47601457D01*
X80436488Y-47602881D01*
X80436486Y-47602881D01*
X80225955Y-47659293D01*
X80225953Y-47659294D01*
X80220645Y-47660716D01*
X80215664Y-47663039D01*
X80215663Y-47663039D01*
X80018126Y-47755151D01*
X80018121Y-47755154D01*
X80013139Y-47757477D01*
X79976589Y-47783070D01*
X79830099Y-47885643D01*
X79830096Y-47885645D01*
X79825588Y-47888802D01*
X79679888Y-48034502D01*
X79617576Y-48068528D01*
X79546761Y-48063463D01*
X79489925Y-48020916D01*
X79472756Y-47984263D01*
X79471633Y-47984684D01*
X79456702Y-47944856D01*
X79420503Y-47848295D01*
X79333149Y-47731739D01*
X79216593Y-47644385D01*
X79188408Y-47633819D01*
X79110158Y-47604484D01*
X79053394Y-47561842D01*
X79028694Y-47495281D01*
X79028388Y-47486502D01*
X79028388Y-47096278D01*
X79028830Y-47085735D01*
X79029973Y-47072119D01*
X79033192Y-47033789D01*
X79031912Y-47024195D01*
X79022451Y-46953286D01*
X79022081Y-46950231D01*
X79016471Y-46898596D01*
X79013305Y-46869451D01*
X79011130Y-46862987D01*
X79010410Y-46859712D01*
X79010340Y-46859316D01*
X79010217Y-46858892D01*
X79009426Y-46855672D01*
X79008522Y-46848899D01*
X78980739Y-46772565D01*
X78979732Y-46769690D01*
X78965095Y-46726198D01*
X78953810Y-46692665D01*
X78950292Y-46686811D01*
X78948903Y-46683804D01*
X78948736Y-46683399D01*
X78948531Y-46683023D01*
X78947061Y-46680036D01*
X78944726Y-46673620D01*
X78901158Y-46604968D01*
X78899633Y-46602499D01*
X78857741Y-46532779D01*
X78853054Y-46527822D01*
X78851037Y-46525165D01*
X78850527Y-46524431D01*
X78847549Y-46520493D01*
X78844779Y-46516129D01*
X78840959Y-46511856D01*
X78786963Y-46457860D01*
X78784509Y-46455338D01*
X78745203Y-46413773D01*
X78729580Y-46397252D01*
X78723932Y-46393414D01*
X78718740Y-46388995D01*
X78719080Y-46388595D01*
X78711091Y-46381988D01*
X76201320Y-43872217D01*
X76194177Y-43864450D01*
X76160529Y-43824633D01*
X76096031Y-43775321D01*
X76093615Y-43773427D01*
X76035583Y-43726768D01*
X76035582Y-43726767D01*
X76030262Y-43722490D01*
X76024143Y-43719453D01*
X76021348Y-43717665D01*
X76020987Y-43717412D01*
X76020620Y-43717210D01*
X76017762Y-43715479D01*
X76012348Y-43711340D01*
X75938736Y-43677014D01*
X75935964Y-43675680D01*
X75869296Y-43642586D01*
X75863186Y-43639553D01*
X75856565Y-43637902D01*
X75853437Y-43636751D01*
X75853044Y-43636587D01*
X75852639Y-43636468D01*
X75849475Y-43635391D01*
X75843296Y-43632510D01*
X75764000Y-43614785D01*
X75761002Y-43614076D01*
X75688821Y-43596079D01*
X75688820Y-43596079D01*
X75682199Y-43594428D01*
X75675378Y-43594237D01*
X75672075Y-43593785D01*
X75671191Y-43593626D01*
X75666308Y-43592948D01*
X75661260Y-43591820D01*
X75655537Y-43591500D01*
X75579156Y-43591500D01*
X75575637Y-43591451D01*
X75495743Y-43589219D01*
X75489039Y-43590498D01*
X75482238Y-43591045D01*
X75482196Y-43590525D01*
X75471875Y-43591500D01*
X68276767Y-43591500D01*
X68208646Y-43571498D01*
X68162153Y-43517842D01*
X68152049Y-43447568D01*
X68181543Y-43382988D01*
X68187672Y-43376405D01*
X68239301Y-43324776D01*
X68360589Y-43151558D01*
X68436423Y-42988933D01*
X68447633Y-42964892D01*
X68447634Y-42964891D01*
X68449956Y-42959910D01*
X68459737Y-42923409D01*
X68503262Y-42760970D01*
X68503262Y-42760968D01*
X68504686Y-42755655D01*
X68523116Y-42545000D01*
X68504686Y-42334345D01*
X68502029Y-42324428D01*
X68451379Y-42135400D01*
X68451378Y-42135398D01*
X68449956Y-42130090D01*
X68447633Y-42125108D01*
X68362912Y-41943423D01*
X68362910Y-41943420D01*
X68360589Y-41938442D01*
X68239301Y-41765224D01*
X68225685Y-41751608D01*
X68191659Y-41689296D01*
X68196724Y-41618481D01*
X68225684Y-41573418D01*
X69157787Y-40641315D01*
X69165543Y-40634183D01*
X69205367Y-40600529D01*
X69227937Y-40571009D01*
X69254710Y-40535992D01*
X69256609Y-40533571D01*
X69303232Y-40475582D01*
X69303233Y-40475580D01*
X69307509Y-40470262D01*
X69310543Y-40464150D01*
X69312330Y-40461356D01*
X69312582Y-40460996D01*
X69312785Y-40460627D01*
X69314517Y-40457766D01*
X69318660Y-40452348D01*
X69352993Y-40378721D01*
X69354327Y-40375949D01*
X69387414Y-40309296D01*
X69390447Y-40303186D01*
X69392098Y-40296565D01*
X69393249Y-40293437D01*
X69393413Y-40293044D01*
X69393532Y-40292639D01*
X69394609Y-40289475D01*
X69397490Y-40283296D01*
X69415215Y-40203998D01*
X69415924Y-40201002D01*
X69433921Y-40128821D01*
X69433921Y-40128820D01*
X69435572Y-40122199D01*
X69435763Y-40115378D01*
X69436215Y-40112075D01*
X69436374Y-40111191D01*
X69437052Y-40106308D01*
X69438180Y-40101260D01*
X69438500Y-40095537D01*
X69438500Y-40019156D01*
X69438549Y-40015637D01*
X69438693Y-40010485D01*
X69440781Y-39935743D01*
X69439502Y-39929039D01*
X69438955Y-39922238D01*
X69439475Y-39922196D01*
X69438500Y-39911875D01*
X69438500Y-37814500D01*
X69458502Y-37746379D01*
X69512158Y-37699886D01*
X69564500Y-37688500D01*
X70857192Y-37688500D01*
X70925313Y-37708502D01*
X70970388Y-37760285D01*
X70971078Y-37762336D01*
X70974592Y-37768183D01*
X70975982Y-37771192D01*
X70976148Y-37771595D01*
X70976357Y-37771978D01*
X70977827Y-37774965D01*
X70980162Y-37781381D01*
X71023730Y-37850033D01*
X71025255Y-37852502D01*
X71067147Y-37922222D01*
X71071834Y-37927179D01*
X71073851Y-37929836D01*
X71074369Y-37930582D01*
X71077344Y-37934515D01*
X71080109Y-37938872D01*
X71083930Y-37943145D01*
X71137908Y-37997123D01*
X71140362Y-37999645D01*
X71195308Y-38057749D01*
X71200950Y-38061584D01*
X71206148Y-38066007D01*
X71205811Y-38066403D01*
X71213802Y-38073017D01*
X73649482Y-40508697D01*
X73683508Y-40571009D01*
X73686387Y-40597792D01*
X73686387Y-41488134D01*
X73693142Y-41550316D01*
X73744272Y-41686705D01*
X73831626Y-41803261D01*
X73948182Y-41890615D01*
X74084571Y-41941745D01*
X74146753Y-41948500D01*
X75843021Y-41948500D01*
X75905203Y-41941745D01*
X76041592Y-41890615D01*
X76158148Y-41803261D01*
X76245502Y-41686705D01*
X76296632Y-41550316D01*
X76303387Y-41488134D01*
X76303387Y-39791866D01*
X76296632Y-39729684D01*
X76245502Y-39593295D01*
X76171917Y-39495111D01*
X76147070Y-39428607D01*
X76162123Y-39359225D01*
X76183649Y-39330453D01*
X77228958Y-38285145D01*
X78296698Y-37217405D01*
X78359010Y-37183379D01*
X78385793Y-37180500D01*
X81647233Y-37180500D01*
X81715354Y-37200502D01*
X81736328Y-37217405D01*
X81770224Y-37251301D01*
X81943442Y-37372589D01*
X81948420Y-37374910D01*
X81948423Y-37374912D01*
X82130108Y-37459633D01*
X82135090Y-37461956D01*
X82140398Y-37463378D01*
X82140400Y-37463379D01*
X82334030Y-37515262D01*
X82334032Y-37515262D01*
X82339345Y-37516686D01*
X82550000Y-37535116D01*
X82760655Y-37516686D01*
X82765968Y-37515262D01*
X82765970Y-37515262D01*
X82959600Y-37463379D01*
X82959602Y-37463378D01*
X82964910Y-37461956D01*
X82969892Y-37459633D01*
X83151577Y-37374912D01*
X83151580Y-37374910D01*
X83156558Y-37372589D01*
X83329776Y-37251301D01*
X83479301Y-37101776D01*
X83600589Y-36928558D01*
X83611652Y-36904835D01*
X83687633Y-36741892D01*
X83687634Y-36741891D01*
X83689956Y-36736910D01*
X83721458Y-36619345D01*
X83743262Y-36537970D01*
X83743262Y-36537968D01*
X83744686Y-36532655D01*
X83763116Y-36322000D01*
X88956884Y-36322000D01*
X88975314Y-36532655D01*
X88976738Y-36537968D01*
X88976738Y-36537970D01*
X88998543Y-36619345D01*
X89030044Y-36736910D01*
X89032366Y-36741891D01*
X89032367Y-36741892D01*
X89108349Y-36904835D01*
X89119411Y-36928558D01*
X89240699Y-37101776D01*
X89390224Y-37251301D01*
X89563442Y-37372589D01*
X89568420Y-37374910D01*
X89568423Y-37374912D01*
X89750108Y-37459633D01*
X89755090Y-37461956D01*
X89760398Y-37463378D01*
X89760400Y-37463379D01*
X89954030Y-37515262D01*
X89954032Y-37515262D01*
X89959345Y-37516686D01*
X90170000Y-37535116D01*
X90380655Y-37516686D01*
X90385968Y-37515262D01*
X90385970Y-37515262D01*
X90579600Y-37463379D01*
X90579602Y-37463378D01*
X90584910Y-37461956D01*
X90589892Y-37459633D01*
X90771577Y-37374912D01*
X90771580Y-37374910D01*
X90776558Y-37372589D01*
X90949776Y-37251301D01*
X90983672Y-37217405D01*
X91045984Y-37183379D01*
X91072767Y-37180500D01*
X91459738Y-37180500D01*
X91527859Y-37200502D01*
X91573933Y-37253250D01*
X91628111Y-37369434D01*
X91659411Y-37436558D01*
X91780699Y-37609776D01*
X91930224Y-37759301D01*
X92103442Y-37880589D01*
X92108420Y-37882910D01*
X92108423Y-37882912D01*
X92240274Y-37944395D01*
X92295090Y-37969956D01*
X92300398Y-37971378D01*
X92300400Y-37971379D01*
X92494030Y-38023262D01*
X92494032Y-38023262D01*
X92499345Y-38024686D01*
X92710000Y-38043116D01*
X92920655Y-38024686D01*
X92925968Y-38023262D01*
X92925970Y-38023262D01*
X93119600Y-37971379D01*
X93119602Y-37971378D01*
X93124910Y-37969956D01*
X93179726Y-37944395D01*
X93311577Y-37882912D01*
X93311580Y-37882910D01*
X93316558Y-37880589D01*
X93489776Y-37759301D01*
X93639301Y-37609776D01*
X93760589Y-37436558D01*
X93790419Y-37372589D01*
X93847633Y-37249892D01*
X93847634Y-37249891D01*
X93849956Y-37244910D01*
X93860759Y-37204595D01*
X93903262Y-37045970D01*
X93903262Y-37045968D01*
X93904686Y-37040655D01*
X93923116Y-36830000D01*
X99116884Y-36830000D01*
X99135314Y-37040655D01*
X99136738Y-37045968D01*
X99136738Y-37045970D01*
X99179242Y-37204595D01*
X99190044Y-37244910D01*
X99192366Y-37249891D01*
X99192367Y-37249892D01*
X99249582Y-37372589D01*
X99279411Y-37436558D01*
X99400699Y-37609776D01*
X99550224Y-37759301D01*
X99723442Y-37880589D01*
X99728420Y-37882910D01*
X99728423Y-37882912D01*
X99860274Y-37944395D01*
X99915090Y-37969956D01*
X99920398Y-37971378D01*
X99920400Y-37971379D01*
X100114030Y-38023262D01*
X100114032Y-38023262D01*
X100119345Y-38024686D01*
X100330000Y-38043116D01*
X100540655Y-38024686D01*
X100545968Y-38023262D01*
X100545970Y-38023262D01*
X100739600Y-37971379D01*
X100739602Y-37971378D01*
X100744910Y-37969956D01*
X100799726Y-37944395D01*
X100931577Y-37882912D01*
X100931580Y-37882910D01*
X100936558Y-37880589D01*
X101109776Y-37759301D01*
X101143672Y-37725405D01*
X101205984Y-37691379D01*
X101232767Y-37688500D01*
X105477208Y-37688500D01*
X105545329Y-37708502D01*
X105566303Y-37725405D01*
X116985050Y-49144152D01*
X117019076Y-49206464D01*
X117018078Y-49264262D01*
X116988608Y-49380301D01*
X116962124Y-49643314D01*
X116962348Y-49647980D01*
X116962348Y-49647985D01*
X116965859Y-49721067D01*
X116974807Y-49907352D01*
X116981777Y-49942393D01*
X117024968Y-50159525D01*
X117026378Y-50166616D01*
X117027957Y-50171014D01*
X117027959Y-50171021D01*
X117114121Y-50411001D01*
X117115704Y-50415410D01*
X117117921Y-50419536D01*
X117185301Y-50544936D01*
X117240822Y-50648267D01*
X117243617Y-50652011D01*
X117243619Y-50652013D01*
X117326743Y-50763329D01*
X117398985Y-50860073D01*
X117402292Y-50863351D01*
X117402297Y-50863357D01*
X117552214Y-51011970D01*
X117586718Y-51046174D01*
X117799896Y-51202483D01*
X117804031Y-51204659D01*
X117804035Y-51204661D01*
X117819170Y-51212624D01*
X117870141Y-51262044D01*
X117886500Y-51324131D01*
X117886500Y-52978037D01*
X117866498Y-53046158D01*
X117829585Y-53083409D01*
X117663195Y-53192499D01*
X117663190Y-53192503D01*
X117659282Y-53195065D01*
X117462067Y-53371086D01*
X117340187Y-53517631D01*
X117308303Y-53555968D01*
X117293036Y-53574324D01*
X117155901Y-53800314D01*
X117154095Y-53804622D01*
X117154094Y-53804623D01*
X117096665Y-53941577D01*
X117053677Y-54044091D01*
X117052526Y-54048623D01*
X117052525Y-54048626D01*
X117041226Y-54093116D01*
X116988608Y-54300301D01*
X116962124Y-54563314D01*
X116962348Y-54567980D01*
X116962348Y-54567985D01*
X116964518Y-54613160D01*
X116974807Y-54827352D01*
X117017869Y-55043837D01*
X117011541Y-55114549D01*
X116983385Y-55157512D01*
X113087217Y-59053680D01*
X113079451Y-59060822D01*
X113039633Y-59094471D01*
X113035486Y-59099895D01*
X113035485Y-59099896D01*
X112990326Y-59158962D01*
X112988432Y-59161379D01*
X112937490Y-59224738D01*
X112934453Y-59230857D01*
X112932665Y-59233652D01*
X112932412Y-59234013D01*
X112932210Y-59234380D01*
X112930479Y-59237238D01*
X112926340Y-59242652D01*
X112923459Y-59248831D01*
X112892015Y-59316262D01*
X112890681Y-59319033D01*
X112854553Y-59391814D01*
X112852902Y-59398435D01*
X112851751Y-59401563D01*
X112851587Y-59401956D01*
X112851468Y-59402361D01*
X112850391Y-59405525D01*
X112847510Y-59411704D01*
X112846023Y-59418358D01*
X112829785Y-59491002D01*
X112829076Y-59493998D01*
X112809428Y-59572801D01*
X112809237Y-59579622D01*
X112808785Y-59582925D01*
X112808626Y-59583809D01*
X112807948Y-59588692D01*
X112806820Y-59593740D01*
X112806500Y-59599463D01*
X112806500Y-59675844D01*
X112806451Y-59679363D01*
X112804219Y-59759257D01*
X112805498Y-59765961D01*
X112806045Y-59772762D01*
X112805525Y-59772804D01*
X112806500Y-59783125D01*
X112806500Y-61553610D01*
X112806058Y-61564152D01*
X112801696Y-61616099D01*
X112802598Y-61622859D01*
X112802598Y-61622861D01*
X112812437Y-61696602D01*
X112812807Y-61699657D01*
X112821583Y-61780437D01*
X112823758Y-61786901D01*
X112824478Y-61790176D01*
X112824548Y-61790572D01*
X112824671Y-61790996D01*
X112825462Y-61794216D01*
X112826366Y-61800989D01*
X112851599Y-61870316D01*
X112854139Y-61877294D01*
X112855156Y-61880198D01*
X112881078Y-61957223D01*
X112884596Y-61963077D01*
X112885985Y-61966084D01*
X112886152Y-61966489D01*
X112886357Y-61966865D01*
X112887827Y-61969852D01*
X112890162Y-61976268D01*
X112933730Y-62044920D01*
X112935255Y-62047389D01*
X112977147Y-62117109D01*
X112981834Y-62122066D01*
X112983851Y-62124723D01*
X112984369Y-62125469D01*
X112987344Y-62129402D01*
X112990109Y-62133759D01*
X112993930Y-62138032D01*
X113047908Y-62192010D01*
X113050362Y-62194532D01*
X113078572Y-62224363D01*
X113105308Y-62252636D01*
X113110950Y-62256471D01*
X113116148Y-62260894D01*
X113115811Y-62261290D01*
X113123802Y-62267904D01*
X114298674Y-63442776D01*
X114305816Y-63450542D01*
X114339471Y-63490367D01*
X114344890Y-63494510D01*
X114344892Y-63494512D01*
X114404008Y-63539710D01*
X114406429Y-63541609D01*
X114464418Y-63588232D01*
X114469738Y-63592509D01*
X114475850Y-63595543D01*
X114478644Y-63597330D01*
X114479004Y-63597582D01*
X114479373Y-63597785D01*
X114482234Y-63599517D01*
X114487652Y-63603660D01*
X114523017Y-63620151D01*
X114561277Y-63637992D01*
X114564048Y-63639326D01*
X114636814Y-63675447D01*
X114643435Y-63677098D01*
X114646563Y-63678249D01*
X114646956Y-63678413D01*
X114647361Y-63678532D01*
X114650525Y-63679609D01*
X114656704Y-63682490D01*
X114730498Y-63698985D01*
X114736002Y-63700215D01*
X114738998Y-63700924D01*
X114805733Y-63717563D01*
X114817801Y-63720572D01*
X114824622Y-63720763D01*
X114827925Y-63721215D01*
X114828809Y-63721374D01*
X114833692Y-63722052D01*
X114838740Y-63723180D01*
X114844463Y-63723500D01*
X114920844Y-63723500D01*
X114924363Y-63723549D01*
X115004257Y-63725781D01*
X115010961Y-63724502D01*
X115017762Y-63723955D01*
X115017804Y-63724475D01*
X115028125Y-63723500D01*
X119973610Y-63723500D01*
X119984152Y-63723942D01*
X120036099Y-63728304D01*
X120042859Y-63727402D01*
X120042861Y-63727402D01*
X120116602Y-63717563D01*
X120119657Y-63717193D01*
X120155535Y-63713295D01*
X120200437Y-63708417D01*
X120206901Y-63706242D01*
X120210176Y-63705522D01*
X120210572Y-63705452D01*
X120210996Y-63705329D01*
X120214216Y-63704538D01*
X120220989Y-63703634D01*
X120297323Y-63675851D01*
X120300198Y-63674844D01*
X120318773Y-63668593D01*
X120377223Y-63648922D01*
X120383077Y-63645404D01*
X120386084Y-63644015D01*
X120386489Y-63643848D01*
X120386865Y-63643643D01*
X120389852Y-63642173D01*
X120396268Y-63639838D01*
X120464920Y-63596270D01*
X120467389Y-63594745D01*
X120537109Y-63552853D01*
X120542066Y-63548166D01*
X120544723Y-63546149D01*
X120545469Y-63545631D01*
X120549402Y-63542656D01*
X120553759Y-63539891D01*
X120558032Y-63536070D01*
X120605493Y-63488609D01*
X123736734Y-63488609D01*
X123736906Y-63492004D01*
X123736906Y-63492005D01*
X123747752Y-63706109D01*
X123754591Y-63841106D01*
X123755128Y-63844461D01*
X123755129Y-63844467D01*
X123774190Y-63963471D01*
X123810412Y-64189613D01*
X123903546Y-64530053D01*
X124032903Y-64858443D01*
X124034486Y-64861458D01*
X124195384Y-65167926D01*
X124195389Y-65167934D01*
X124196968Y-65170942D01*
X124198862Y-65173760D01*
X124198867Y-65173769D01*
X124358792Y-65411762D01*
X124393824Y-65463895D01*
X124621167Y-65733873D01*
X124623627Y-65736224D01*
X124623630Y-65736227D01*
X124873875Y-65975366D01*
X124873882Y-65975372D01*
X124876338Y-65977719D01*
X125156351Y-66192581D01*
X125159269Y-66194355D01*
X125455017Y-66374173D01*
X125455022Y-66374176D01*
X125457932Y-66375945D01*
X125461020Y-66377391D01*
X125461019Y-66377391D01*
X125774468Y-66524222D01*
X125774478Y-66524226D01*
X125777552Y-66525666D01*
X125780770Y-66526768D01*
X125780773Y-66526769D01*
X126108241Y-66638887D01*
X126108245Y-66638888D01*
X126111472Y-66639993D01*
X126114802Y-66640743D01*
X126114811Y-66640746D01*
X126358164Y-66695587D01*
X126455786Y-66717587D01*
X126459171Y-66717973D01*
X126459179Y-66717974D01*
X126803083Y-66757157D01*
X126803091Y-66757157D01*
X126806466Y-66757542D01*
X126809870Y-66757560D01*
X126809873Y-66757560D01*
X127001627Y-66758564D01*
X127159411Y-66759390D01*
X127162797Y-66759040D01*
X127162799Y-66759040D01*
X127507098Y-66723461D01*
X127507107Y-66723460D01*
X127510490Y-66723110D01*
X127513823Y-66722396D01*
X127513826Y-66722395D01*
X127683692Y-66685979D01*
X127855598Y-66649125D01*
X128190697Y-66538301D01*
X128511867Y-66391936D01*
X128605405Y-66336397D01*
X128812407Y-66213489D01*
X128812412Y-66213486D01*
X128815352Y-66211740D01*
X128840870Y-66192581D01*
X129094867Y-66001874D01*
X129097600Y-65999822D01*
X129355310Y-65758661D01*
X129585468Y-65491078D01*
X129785380Y-65200203D01*
X129786992Y-65197209D01*
X129786997Y-65197201D01*
X129951087Y-64892452D01*
X129952709Y-64889440D01*
X130085498Y-64562422D01*
X130093816Y-64533223D01*
X130133845Y-64392699D01*
X130182191Y-64222976D01*
X130188469Y-64186247D01*
X130241087Y-63878420D01*
X130241087Y-63878418D01*
X130241659Y-63875073D01*
X130242553Y-63860471D01*
X130263096Y-63524580D01*
X130263206Y-63522782D01*
X130263286Y-63500000D01*
X130244199Y-63147567D01*
X130187161Y-62799257D01*
X130092839Y-62459145D01*
X130089849Y-62451630D01*
X129965335Y-62138740D01*
X129962338Y-62131208D01*
X129864858Y-61947100D01*
X129798777Y-61822295D01*
X129798775Y-61822292D01*
X129797182Y-61819283D01*
X129792609Y-61812529D01*
X129601211Y-61529834D01*
X129601204Y-61529825D01*
X129599305Y-61527020D01*
X129597109Y-61524430D01*
X129597104Y-61524424D01*
X129429767Y-61327108D01*
X129371021Y-61257837D01*
X129115001Y-61014883D01*
X129112294Y-61012821D01*
X129112286Y-61012814D01*
X128916094Y-60863357D01*
X128834239Y-60801000D01*
X128532020Y-60618689D01*
X128528930Y-60617255D01*
X128528925Y-60617252D01*
X128332174Y-60525924D01*
X128211879Y-60470085D01*
X128208654Y-60468993D01*
X128208648Y-60468991D01*
X127880798Y-60358020D01*
X127880793Y-60358018D01*
X127877562Y-60356925D01*
X127863832Y-60353881D01*
X127690105Y-60315367D01*
X127532979Y-60280533D01*
X127408353Y-60266774D01*
X127185543Y-60242175D01*
X127185538Y-60242175D01*
X127182162Y-60241802D01*
X127178763Y-60241796D01*
X127178762Y-60241796D01*
X127012289Y-60241506D01*
X126829213Y-60241186D01*
X126698206Y-60255187D01*
X126481646Y-60278330D01*
X126481640Y-60278331D01*
X126478262Y-60278692D01*
X126133414Y-60353881D01*
X125798704Y-60465873D01*
X125478047Y-60613359D01*
X125175194Y-60794613D01*
X124893687Y-61007515D01*
X124636820Y-61249574D01*
X124634608Y-61252164D01*
X124634607Y-61252165D01*
X124455609Y-61461745D01*
X124407598Y-61517959D01*
X124405670Y-61520786D01*
X124405668Y-61520788D01*
X124379677Y-61558889D01*
X124208702Y-61809530D01*
X124171734Y-61878765D01*
X124047589Y-62111267D01*
X124042458Y-62120876D01*
X124041183Y-62124048D01*
X124041181Y-62124052D01*
X123963311Y-62317762D01*
X123910813Y-62448355D01*
X123909894Y-62451623D01*
X123909892Y-62451630D01*
X123816225Y-62784858D01*
X123815304Y-62788136D01*
X123814743Y-62791489D01*
X123814742Y-62791493D01*
X123757614Y-63132880D01*
X123757051Y-63136245D01*
X123736734Y-63488609D01*
X120605493Y-63488609D01*
X120612010Y-63482092D01*
X120614532Y-63479638D01*
X120667680Y-63429379D01*
X120667682Y-63429377D01*
X120672636Y-63424692D01*
X120676471Y-63419050D01*
X120680894Y-63413852D01*
X120681290Y-63414189D01*
X120687904Y-63406198D01*
X125037776Y-59056326D01*
X125045543Y-59049183D01*
X125080154Y-59019934D01*
X125085367Y-59015529D01*
X125089512Y-59010108D01*
X125134710Y-58950992D01*
X125136609Y-58948571D01*
X125183232Y-58890582D01*
X125183233Y-58890580D01*
X125187509Y-58885262D01*
X125190543Y-58879150D01*
X125192330Y-58876356D01*
X125192582Y-58875996D01*
X125192785Y-58875627D01*
X125194517Y-58872766D01*
X125198660Y-58867348D01*
X125232993Y-58793721D01*
X125234327Y-58790949D01*
X125267414Y-58724296D01*
X125270447Y-58718186D01*
X125272098Y-58711565D01*
X125273249Y-58708437D01*
X125273413Y-58708044D01*
X125273532Y-58707639D01*
X125274609Y-58704475D01*
X125277490Y-58698296D01*
X125295215Y-58618998D01*
X125295924Y-58616002D01*
X125313921Y-58543821D01*
X125313921Y-58543820D01*
X125315572Y-58537199D01*
X125315763Y-58530378D01*
X125316215Y-58527075D01*
X125316374Y-58526191D01*
X125317052Y-58521308D01*
X125318180Y-58516260D01*
X125318500Y-58510537D01*
X125318500Y-58434156D01*
X125318549Y-58430637D01*
X125320002Y-58378610D01*
X125320781Y-58350743D01*
X125319502Y-58344039D01*
X125318955Y-58337238D01*
X125319475Y-58337196D01*
X125318500Y-58326875D01*
X125318500Y-49302792D01*
X125338502Y-49234671D01*
X125355405Y-49213697D01*
X127318697Y-47250405D01*
X127381009Y-47216379D01*
X127407792Y-47213500D01*
X129746579Y-47213500D01*
X129814700Y-47233502D01*
X129859292Y-47283181D01*
X129882522Y-47329671D01*
X129894930Y-47354504D01*
X130052623Y-47582666D01*
X130069678Y-47601116D01*
X130237874Y-47783070D01*
X130237879Y-47783075D01*
X130240890Y-47786332D01*
X130455975Y-47961439D01*
X130459793Y-47963738D01*
X130459795Y-47963739D01*
X130660667Y-48084674D01*
X130693588Y-48104494D01*
X130697683Y-48106228D01*
X130697685Y-48106229D01*
X130944886Y-48210905D01*
X130944893Y-48210907D01*
X130948987Y-48212641D01*
X130996278Y-48225180D01*
X131212779Y-48282585D01*
X131212784Y-48282586D01*
X131217076Y-48283724D01*
X131221485Y-48284246D01*
X131221491Y-48284247D01*
X131388135Y-48303970D01*
X131492506Y-48316323D01*
X131769782Y-48309789D01*
X131912777Y-48285988D01*
X132038981Y-48264982D01*
X132038985Y-48264981D01*
X132043371Y-48264251D01*
X132047612Y-48262910D01*
X132047615Y-48262909D01*
X132303568Y-48181962D01*
X132303570Y-48181961D01*
X132307814Y-48180619D01*
X132311825Y-48178693D01*
X132311830Y-48178691D01*
X132553816Y-48062491D01*
X132553817Y-48062490D01*
X132557835Y-48060561D01*
X132710393Y-47958625D01*
X132784737Y-47908950D01*
X132784741Y-47908947D01*
X132788445Y-47906472D01*
X132995043Y-47721427D01*
X133173507Y-47509118D01*
X133320276Y-47273782D01*
X133432422Y-47020113D01*
X133435767Y-47008255D01*
X133477747Y-46859403D01*
X133507707Y-46753173D01*
X133521275Y-46652158D01*
X133544201Y-46481471D01*
X133544202Y-46481463D01*
X133544628Y-46478289D01*
X133545196Y-46460207D01*
X133548402Y-46358222D01*
X133548402Y-46358217D01*
X133548503Y-46355000D01*
X133528914Y-46078340D01*
X133518932Y-46031972D01*
X133471476Y-45811547D01*
X133471475Y-45811545D01*
X133470540Y-45807200D01*
X133374543Y-45546990D01*
X133253128Y-45321968D01*
X133244953Y-45306818D01*
X133242840Y-45302902D01*
X133167788Y-45201290D01*
X133143405Y-45134612D01*
X133158942Y-45065336D01*
X133209465Y-45015458D01*
X133278935Y-45000812D01*
X133345294Y-45026050D01*
X133358234Y-45037336D01*
X134504595Y-46183697D01*
X134538621Y-46246009D01*
X134541500Y-46272792D01*
X134541500Y-48047568D01*
X134521498Y-48115689D01*
X134471229Y-48160574D01*
X134293381Y-48248279D01*
X134052665Y-48409119D01*
X134049573Y-48411831D01*
X134049566Y-48411836D01*
X133899795Y-48543183D01*
X133835004Y-48600004D01*
X133832295Y-48603093D01*
X133646836Y-48814566D01*
X133646831Y-48814573D01*
X133644119Y-48817665D01*
X133483279Y-49058381D01*
X133476701Y-49071719D01*
X133361777Y-49304763D01*
X133355234Y-49318030D01*
X133353911Y-49321928D01*
X133353910Y-49321930D01*
X133280394Y-49538502D01*
X133262175Y-49592172D01*
X133261371Y-49596216D01*
X133261369Y-49596222D01*
X133217753Y-49815500D01*
X133205696Y-49876114D01*
X133205427Y-49880225D01*
X133205426Y-49880229D01*
X133194589Y-50045570D01*
X133186761Y-50165000D01*
X133187031Y-50169119D01*
X133203445Y-50419536D01*
X133205696Y-50453886D01*
X133206500Y-50457926D01*
X133206500Y-50457929D01*
X133245106Y-50652013D01*
X133262175Y-50737828D01*
X133263501Y-50741734D01*
X133263502Y-50741738D01*
X133337103Y-50958557D01*
X133355234Y-51011970D01*
X133357055Y-51015663D01*
X133357056Y-51015665D01*
X133373464Y-51048937D01*
X133483279Y-51271619D01*
X133644119Y-51512335D01*
X133646831Y-51515427D01*
X133646836Y-51515434D01*
X133799042Y-51688990D01*
X133835004Y-51729996D01*
X133838093Y-51732705D01*
X134049565Y-51918163D01*
X134049571Y-51918168D01*
X134052665Y-51920881D01*
X134293380Y-52081721D01*
X134297079Y-52083545D01*
X134297084Y-52083548D01*
X134549335Y-52207944D01*
X134553030Y-52209766D01*
X134556928Y-52211089D01*
X134556930Y-52211090D01*
X134823262Y-52301498D01*
X134823266Y-52301499D01*
X134827172Y-52302825D01*
X134831216Y-52303629D01*
X134831222Y-52303631D01*
X135107071Y-52358500D01*
X135107074Y-52358500D01*
X135111114Y-52359304D01*
X135115225Y-52359573D01*
X135115229Y-52359574D01*
X135395881Y-52377969D01*
X135400000Y-52378239D01*
X135404119Y-52377969D01*
X135684771Y-52359574D01*
X135684775Y-52359573D01*
X135688886Y-52359304D01*
X135692926Y-52358500D01*
X135692929Y-52358500D01*
X135968778Y-52303631D01*
X135968784Y-52303629D01*
X135972828Y-52302825D01*
X135976734Y-52301499D01*
X135976738Y-52301498D01*
X136243070Y-52211090D01*
X136243072Y-52211089D01*
X136246970Y-52209766D01*
X136250665Y-52207944D01*
X136502916Y-52083548D01*
X136502921Y-52083545D01*
X136506620Y-52081721D01*
X136747335Y-51920881D01*
X136750429Y-51918168D01*
X136750435Y-51918163D01*
X136961907Y-51732705D01*
X136964996Y-51729996D01*
X137000958Y-51688990D01*
X137153164Y-51515434D01*
X137153169Y-51515427D01*
X137155881Y-51512335D01*
X137316721Y-51271619D01*
X137426536Y-51048937D01*
X137442944Y-51015665D01*
X137442945Y-51015663D01*
X137444766Y-51011970D01*
X137462897Y-50958557D01*
X137536498Y-50741738D01*
X137536499Y-50741734D01*
X137537825Y-50737828D01*
X137554895Y-50652013D01*
X137593500Y-50457929D01*
X137593500Y-50457926D01*
X137594304Y-50453886D01*
X137596556Y-50419536D01*
X137612969Y-50169119D01*
X137613239Y-50165000D01*
X138531502Y-50165000D01*
X138551457Y-50393087D01*
X138552881Y-50398400D01*
X138552881Y-50398402D01*
X138604045Y-50589345D01*
X138610716Y-50614243D01*
X138613039Y-50619224D01*
X138613039Y-50619225D01*
X138705151Y-50816762D01*
X138705154Y-50816767D01*
X138707477Y-50821749D01*
X138838802Y-51009300D01*
X139000700Y-51171198D01*
X139005208Y-51174355D01*
X139005211Y-51174357D01*
X139063127Y-51214910D01*
X139188251Y-51302523D01*
X139193233Y-51304846D01*
X139193238Y-51304849D01*
X139390775Y-51396961D01*
X139395757Y-51399284D01*
X139401065Y-51400706D01*
X139401067Y-51400707D01*
X139611598Y-51457119D01*
X139611600Y-51457119D01*
X139616913Y-51458543D01*
X139716480Y-51467254D01*
X139785149Y-51473262D01*
X139785156Y-51473262D01*
X139787873Y-51473500D01*
X139902127Y-51473500D01*
X139904844Y-51473262D01*
X139904851Y-51473262D01*
X139973520Y-51467254D01*
X140073087Y-51458543D01*
X140078400Y-51457119D01*
X140078402Y-51457119D01*
X140288933Y-51400707D01*
X140288935Y-51400706D01*
X140294243Y-51399284D01*
X140299225Y-51396961D01*
X140496762Y-51304849D01*
X140496767Y-51304846D01*
X140501749Y-51302523D01*
X140626873Y-51214910D01*
X140684789Y-51174357D01*
X140684792Y-51174355D01*
X140689300Y-51171198D01*
X140851198Y-51009300D01*
X140982523Y-50821749D01*
X140984846Y-50816767D01*
X140984849Y-50816762D01*
X141076961Y-50619225D01*
X141076961Y-50619224D01*
X141079284Y-50614243D01*
X141085956Y-50589345D01*
X141137119Y-50398402D01*
X141137119Y-50398400D01*
X141138543Y-50393087D01*
X141158498Y-50165000D01*
X141138543Y-49936913D01*
X141134413Y-49921498D01*
X141080707Y-49721067D01*
X141080706Y-49721065D01*
X141079284Y-49715757D01*
X141068747Y-49693160D01*
X140984849Y-49513238D01*
X140984846Y-49513233D01*
X140982523Y-49508251D01*
X140870474Y-49348229D01*
X140854357Y-49325211D01*
X140854355Y-49325208D01*
X140851198Y-49320700D01*
X140689300Y-49158802D01*
X140684792Y-49155645D01*
X140684789Y-49155643D01*
X140564933Y-49071719D01*
X140501749Y-49027477D01*
X140496767Y-49025154D01*
X140496762Y-49025151D01*
X140299225Y-48933039D01*
X140299224Y-48933039D01*
X140294243Y-48930716D01*
X140288935Y-48929294D01*
X140288933Y-48929293D01*
X140078402Y-48872881D01*
X140078400Y-48872881D01*
X140073087Y-48871457D01*
X139973520Y-48862746D01*
X139904851Y-48856738D01*
X139904844Y-48856738D01*
X139902127Y-48856500D01*
X139787873Y-48856500D01*
X139785156Y-48856738D01*
X139785149Y-48856738D01*
X139716480Y-48862746D01*
X139616913Y-48871457D01*
X139611600Y-48872881D01*
X139611598Y-48872881D01*
X139401067Y-48929293D01*
X139401065Y-48929294D01*
X139395757Y-48930716D01*
X139390776Y-48933039D01*
X139390775Y-48933039D01*
X139193238Y-49025151D01*
X139193233Y-49025154D01*
X139188251Y-49027477D01*
X139125067Y-49071719D01*
X139005211Y-49155643D01*
X139005208Y-49155645D01*
X139000700Y-49158802D01*
X138838802Y-49320700D01*
X138835645Y-49325208D01*
X138835643Y-49325211D01*
X138819526Y-49348229D01*
X138707477Y-49508251D01*
X138705154Y-49513233D01*
X138705151Y-49513238D01*
X138621253Y-49693160D01*
X138610716Y-49715757D01*
X138609294Y-49721065D01*
X138609293Y-49721067D01*
X138555587Y-49921498D01*
X138551457Y-49936913D01*
X138531502Y-50165000D01*
X137613239Y-50165000D01*
X137605411Y-50045570D01*
X137594574Y-49880229D01*
X137594573Y-49880225D01*
X137594304Y-49876114D01*
X137582247Y-49815500D01*
X137538631Y-49596222D01*
X137538629Y-49596216D01*
X137537825Y-49592172D01*
X137519607Y-49538502D01*
X137446090Y-49321930D01*
X137446089Y-49321928D01*
X137444766Y-49318030D01*
X137438224Y-49304763D01*
X137323299Y-49071719D01*
X137316721Y-49058381D01*
X137155881Y-48817665D01*
X137153169Y-48814573D01*
X137153164Y-48814566D01*
X136967705Y-48603093D01*
X136964996Y-48600004D01*
X136878372Y-48524036D01*
X136750435Y-48411837D01*
X136750429Y-48411832D01*
X136747335Y-48409119D01*
X136506620Y-48248279D01*
X136502921Y-48246455D01*
X136502916Y-48246452D01*
X136328772Y-48160574D01*
X136276523Y-48112506D01*
X136258500Y-48047568D01*
X136258500Y-45906390D01*
X136258942Y-45895847D01*
X136262733Y-45850699D01*
X136263304Y-45843901D01*
X136258267Y-45806148D01*
X136252563Y-45763398D01*
X136252193Y-45760343D01*
X136248363Y-45725093D01*
X136243417Y-45679563D01*
X136241242Y-45673099D01*
X136240522Y-45669824D01*
X136240452Y-45669428D01*
X136240329Y-45669004D01*
X136239538Y-45665785D01*
X136238634Y-45659011D01*
X136210852Y-45582680D01*
X136209855Y-45579830D01*
X136186100Y-45509245D01*
X136186095Y-45509235D01*
X136183922Y-45502777D01*
X136180410Y-45496931D01*
X136179008Y-45493898D01*
X136178850Y-45493514D01*
X136178637Y-45493124D01*
X136177172Y-45490145D01*
X136174837Y-45483732D01*
X136171183Y-45477974D01*
X136171180Y-45477968D01*
X136131313Y-45415147D01*
X136129696Y-45412529D01*
X136091369Y-45348742D01*
X136091367Y-45348740D01*
X136087853Y-45342891D01*
X136083163Y-45337932D01*
X136081150Y-45335280D01*
X136080646Y-45334555D01*
X136077666Y-45330615D01*
X136074891Y-45326241D01*
X136071070Y-45321968D01*
X136017092Y-45267990D01*
X136014638Y-45265468D01*
X136001285Y-45251348D01*
X135959692Y-45207364D01*
X135954044Y-45203526D01*
X135948852Y-45199107D01*
X135949192Y-45198707D01*
X135941200Y-45192098D01*
X133351320Y-42602217D01*
X133344177Y-42594450D01*
X133314935Y-42559847D01*
X133310529Y-42554633D01*
X133299344Y-42546081D01*
X133297930Y-42545000D01*
X143611502Y-42545000D01*
X143631457Y-42773087D01*
X143632881Y-42778400D01*
X143632881Y-42778402D01*
X143680094Y-42954600D01*
X143690716Y-42994243D01*
X143693039Y-42999224D01*
X143693039Y-42999225D01*
X143785151Y-43196762D01*
X143785154Y-43196767D01*
X143787477Y-43201749D01*
X143794015Y-43211086D01*
X143909773Y-43376405D01*
X143918802Y-43389300D01*
X144080700Y-43551198D01*
X144085208Y-43554355D01*
X144085211Y-43554357D01*
X144146736Y-43597437D01*
X144268251Y-43682523D01*
X144273233Y-43684846D01*
X144273238Y-43684849D01*
X144467269Y-43775326D01*
X144475757Y-43779284D01*
X144481065Y-43780706D01*
X144481067Y-43780707D01*
X144691598Y-43837119D01*
X144691600Y-43837119D01*
X144696913Y-43838543D01*
X144796480Y-43847254D01*
X144865149Y-43853262D01*
X144865156Y-43853262D01*
X144867873Y-43853500D01*
X144982127Y-43853500D01*
X144984844Y-43853262D01*
X144984851Y-43853262D01*
X145053520Y-43847254D01*
X145153087Y-43838543D01*
X145158400Y-43837119D01*
X145158402Y-43837119D01*
X145368933Y-43780707D01*
X145368935Y-43780706D01*
X145374243Y-43779284D01*
X145382731Y-43775326D01*
X145576762Y-43684849D01*
X145576767Y-43684846D01*
X145581749Y-43682523D01*
X145703264Y-43597437D01*
X145764789Y-43554357D01*
X145764792Y-43554355D01*
X145769300Y-43551198D01*
X145931198Y-43389300D01*
X145940228Y-43376405D01*
X146055985Y-43211086D01*
X146062523Y-43201749D01*
X146064846Y-43196767D01*
X146064849Y-43196762D01*
X146156961Y-42999225D01*
X146156961Y-42999224D01*
X146159284Y-42994243D01*
X146169907Y-42954600D01*
X146217119Y-42778402D01*
X146217119Y-42778400D01*
X146218543Y-42773087D01*
X146238498Y-42545000D01*
X146218543Y-42316913D01*
X146170863Y-42138971D01*
X146160707Y-42101067D01*
X146160706Y-42101065D01*
X146159284Y-42095757D01*
X146112805Y-41996081D01*
X146064849Y-41893238D01*
X146064846Y-41893233D01*
X146062523Y-41888251D01*
X145973651Y-41761329D01*
X145934357Y-41705211D01*
X145934355Y-41705208D01*
X145931198Y-41700700D01*
X145769300Y-41538802D01*
X145764792Y-41535645D01*
X145764789Y-41535643D01*
X145686611Y-41480902D01*
X145581749Y-41407477D01*
X145576767Y-41405154D01*
X145576762Y-41405151D01*
X145379225Y-41313039D01*
X145379224Y-41313039D01*
X145374243Y-41310716D01*
X145368935Y-41309294D01*
X145368933Y-41309293D01*
X145158402Y-41252881D01*
X145158400Y-41252881D01*
X145153087Y-41251457D01*
X145053520Y-41242746D01*
X144984851Y-41236738D01*
X144984844Y-41236738D01*
X144982127Y-41236500D01*
X144867873Y-41236500D01*
X144865156Y-41236738D01*
X144865149Y-41236738D01*
X144796480Y-41242746D01*
X144696913Y-41251457D01*
X144691600Y-41252881D01*
X144691598Y-41252881D01*
X144481067Y-41309293D01*
X144481065Y-41309294D01*
X144475757Y-41310716D01*
X144470776Y-41313039D01*
X144470775Y-41313039D01*
X144273238Y-41405151D01*
X144273233Y-41405154D01*
X144268251Y-41407477D01*
X144163389Y-41480902D01*
X144085211Y-41535643D01*
X144085208Y-41535645D01*
X144080700Y-41538802D01*
X143918802Y-41700700D01*
X143915645Y-41705208D01*
X143915643Y-41705211D01*
X143876349Y-41761329D01*
X143787477Y-41888251D01*
X143785154Y-41893233D01*
X143785151Y-41893238D01*
X143737195Y-41996081D01*
X143690716Y-42095757D01*
X143689294Y-42101065D01*
X143689293Y-42101067D01*
X143679137Y-42138971D01*
X143631457Y-42316913D01*
X143611502Y-42545000D01*
X133297930Y-42545000D01*
X133246038Y-42505326D01*
X133243615Y-42503427D01*
X133185583Y-42456768D01*
X133185582Y-42456767D01*
X133180262Y-42452490D01*
X133174143Y-42449453D01*
X133171348Y-42447665D01*
X133170987Y-42447412D01*
X133170620Y-42447210D01*
X133167762Y-42445479D01*
X133162348Y-42441340D01*
X133088736Y-42407014D01*
X133085964Y-42405680D01*
X133019296Y-42372586D01*
X133013186Y-42369553D01*
X133006565Y-42367902D01*
X133003437Y-42366751D01*
X133003044Y-42366587D01*
X133002639Y-42366468D01*
X132999475Y-42365391D01*
X132993296Y-42362510D01*
X132914000Y-42344785D01*
X132911002Y-42344076D01*
X132838821Y-42326079D01*
X132838820Y-42326079D01*
X132832199Y-42324428D01*
X132825378Y-42324237D01*
X132822075Y-42323785D01*
X132821191Y-42323626D01*
X132816308Y-42322948D01*
X132811260Y-42321820D01*
X132805537Y-42321500D01*
X132729156Y-42321500D01*
X132725637Y-42321451D01*
X132645743Y-42319219D01*
X132639039Y-42320498D01*
X132632238Y-42321045D01*
X132632196Y-42320525D01*
X132621875Y-42321500D01*
X125136390Y-42321500D01*
X125125847Y-42321058D01*
X125125692Y-42321045D01*
X125073901Y-42316696D01*
X125067141Y-42317598D01*
X125067139Y-42317598D01*
X124993398Y-42327437D01*
X124990343Y-42327807D01*
X124958111Y-42331309D01*
X124909563Y-42336583D01*
X124903099Y-42338758D01*
X124899824Y-42339478D01*
X124899428Y-42339548D01*
X124899004Y-42339671D01*
X124895785Y-42340462D01*
X124889011Y-42341366D01*
X124812680Y-42369148D01*
X124809830Y-42370145D01*
X124739245Y-42393900D01*
X124739235Y-42393905D01*
X124732777Y-42396078D01*
X124726931Y-42399590D01*
X124723898Y-42400992D01*
X124723514Y-42401150D01*
X124723124Y-42401363D01*
X124720145Y-42402828D01*
X124713732Y-42405163D01*
X124707974Y-42408817D01*
X124707968Y-42408820D01*
X124645147Y-42448687D01*
X124642529Y-42450304D01*
X124578742Y-42488631D01*
X124578740Y-42488633D01*
X124572891Y-42492147D01*
X124567932Y-42496837D01*
X124565280Y-42498850D01*
X124564555Y-42499354D01*
X124560615Y-42502334D01*
X124556241Y-42505109D01*
X124551968Y-42508930D01*
X124497990Y-42562908D01*
X124495468Y-42565362D01*
X124437364Y-42620308D01*
X124433526Y-42625956D01*
X124429107Y-42631148D01*
X124428707Y-42630808D01*
X124422098Y-42638800D01*
X122644095Y-44416802D01*
X122581783Y-44450828D01*
X122510967Y-44445763D01*
X122465905Y-44416802D01*
X121921320Y-43872217D01*
X121914177Y-43864450D01*
X121880529Y-43824633D01*
X121816031Y-43775321D01*
X121813615Y-43773427D01*
X121755583Y-43726768D01*
X121755582Y-43726767D01*
X121750262Y-43722490D01*
X121744143Y-43719453D01*
X121741348Y-43717665D01*
X121740987Y-43717412D01*
X121740620Y-43717210D01*
X121737762Y-43715479D01*
X121732348Y-43711340D01*
X121658736Y-43677014D01*
X121655964Y-43675680D01*
X121589296Y-43642586D01*
X121583186Y-43639553D01*
X121576565Y-43637902D01*
X121573437Y-43636751D01*
X121573044Y-43636587D01*
X121572639Y-43636468D01*
X121569475Y-43635391D01*
X121563296Y-43632510D01*
X121484000Y-43614785D01*
X121481002Y-43614076D01*
X121408821Y-43596079D01*
X121408820Y-43596079D01*
X121402199Y-43594428D01*
X121395378Y-43594237D01*
X121392075Y-43593785D01*
X121391191Y-43593626D01*
X121386308Y-43592948D01*
X121381260Y-43591820D01*
X121375537Y-43591500D01*
X121299156Y-43591500D01*
X121295637Y-43591451D01*
X121215743Y-43589219D01*
X121209039Y-43590498D01*
X121202238Y-43591045D01*
X121202196Y-43590525D01*
X121191875Y-43591500D01*
X120376029Y-43591500D01*
X120307908Y-43571498D01*
X120266636Y-43528023D01*
X120260817Y-43517842D01*
X120223578Y-43452687D01*
X120059925Y-43245094D01*
X119867385Y-43063970D01*
X119825718Y-43035065D01*
X119657681Y-42918494D01*
X119613110Y-42863231D01*
X119603500Y-42814966D01*
X119603500Y-38776390D01*
X119603942Y-38765847D01*
X119608304Y-38713901D01*
X119603317Y-38676522D01*
X119597563Y-38633398D01*
X119597193Y-38630343D01*
X119589153Y-38556342D01*
X119588417Y-38549563D01*
X119586242Y-38543099D01*
X119585522Y-38539824D01*
X119585452Y-38539428D01*
X119585329Y-38539004D01*
X119584538Y-38535784D01*
X119583634Y-38529011D01*
X119555851Y-38452677D01*
X119554844Y-38449802D01*
X119548593Y-38431227D01*
X119528922Y-38372777D01*
X119525404Y-38366923D01*
X119524015Y-38363916D01*
X119523848Y-38363511D01*
X119523643Y-38363135D01*
X119522173Y-38360148D01*
X119519838Y-38353732D01*
X119476270Y-38285080D01*
X119474745Y-38282611D01*
X119432853Y-38212891D01*
X119428166Y-38207934D01*
X119426149Y-38205277D01*
X119425631Y-38204531D01*
X119422656Y-38200598D01*
X119419891Y-38196241D01*
X119416070Y-38191968D01*
X119362092Y-38137990D01*
X119359638Y-38135468D01*
X119331275Y-38105475D01*
X119304692Y-38077364D01*
X119299044Y-38073526D01*
X119293852Y-38069107D01*
X119294192Y-38068707D01*
X119286200Y-38062098D01*
X113031320Y-31807217D01*
X113024177Y-31799450D01*
X112994935Y-31764847D01*
X112990529Y-31759633D01*
X112926031Y-31710321D01*
X112923615Y-31708427D01*
X112865583Y-31661768D01*
X112865582Y-31661767D01*
X112860262Y-31657490D01*
X112854143Y-31654453D01*
X112851348Y-31652665D01*
X112850987Y-31652412D01*
X112850620Y-31652210D01*
X112847762Y-31650479D01*
X112842348Y-31646340D01*
X112768736Y-31612014D01*
X112765964Y-31610680D01*
X112699296Y-31577586D01*
X112693186Y-31574553D01*
X112686565Y-31572902D01*
X112683437Y-31571751D01*
X112683044Y-31571587D01*
X112682639Y-31571468D01*
X112679475Y-31570391D01*
X112673296Y-31567510D01*
X112594000Y-31549785D01*
X112591002Y-31549076D01*
X112518821Y-31531079D01*
X112518820Y-31531079D01*
X112512199Y-31529428D01*
X112505378Y-31529237D01*
X112502075Y-31528785D01*
X112501191Y-31528626D01*
X112496308Y-31527948D01*
X112491260Y-31526820D01*
X112485537Y-31526500D01*
X112409156Y-31526500D01*
X112405637Y-31526451D01*
X112325743Y-31524219D01*
X112319039Y-31525498D01*
X112312238Y-31526045D01*
X112312196Y-31525525D01*
X112301875Y-31526500D01*
X101232767Y-31526500D01*
X101164646Y-31506498D01*
X101143672Y-31489595D01*
X101109776Y-31455699D01*
X100936558Y-31334411D01*
X100931580Y-31332090D01*
X100931577Y-31332088D01*
X100749892Y-31247367D01*
X100749891Y-31247366D01*
X100744910Y-31245044D01*
X100739602Y-31243622D01*
X100739600Y-31243621D01*
X100545970Y-31191738D01*
X100545968Y-31191738D01*
X100540655Y-31190314D01*
X100330000Y-31171884D01*
X100119345Y-31190314D01*
X100114032Y-31191738D01*
X100114030Y-31191738D01*
X99920400Y-31243621D01*
X99920398Y-31243622D01*
X99915090Y-31245044D01*
X99910109Y-31247366D01*
X99910108Y-31247367D01*
X99728423Y-31332088D01*
X99728420Y-31332090D01*
X99723442Y-31334411D01*
X99550224Y-31455699D01*
X99400699Y-31605224D01*
X99279411Y-31778442D01*
X99277090Y-31783420D01*
X99277088Y-31783423D01*
X99265993Y-31807217D01*
X99190044Y-31970090D01*
X99135314Y-32174345D01*
X99116884Y-32385000D01*
X99135314Y-32595655D01*
X99136738Y-32600968D01*
X99136738Y-32600970D01*
X99166029Y-32710283D01*
X99190044Y-32799910D01*
X99192366Y-32804891D01*
X99192367Y-32804892D01*
X99263632Y-32957719D01*
X99279411Y-32991558D01*
X99400699Y-33164776D01*
X99550224Y-33314301D01*
X99723442Y-33435589D01*
X99728420Y-33437910D01*
X99728423Y-33437912D01*
X99900818Y-33518301D01*
X99915090Y-33524956D01*
X99920398Y-33526378D01*
X99920400Y-33526379D01*
X100114030Y-33578262D01*
X100114032Y-33578262D01*
X100119345Y-33579686D01*
X100330000Y-33598116D01*
X100540655Y-33579686D01*
X100545968Y-33578262D01*
X100545970Y-33578262D01*
X100739600Y-33526379D01*
X100739602Y-33526378D01*
X100744910Y-33524956D01*
X100759182Y-33518301D01*
X100931577Y-33437912D01*
X100931580Y-33437910D01*
X100936558Y-33435589D01*
X101109776Y-33314301D01*
X101143672Y-33280405D01*
X101205984Y-33246379D01*
X101232767Y-33243500D01*
X111987208Y-33243500D01*
X112055329Y-33263502D01*
X112076303Y-33280405D01*
X117849595Y-39053697D01*
X117883621Y-39116009D01*
X117886500Y-39142792D01*
X117886500Y-42818037D01*
X117866498Y-42886158D01*
X117829585Y-42923409D01*
X117663195Y-43032499D01*
X117663190Y-43032503D01*
X117659282Y-43035065D01*
X117655790Y-43038182D01*
X117478116Y-43196762D01*
X117462067Y-43211086D01*
X117293036Y-43414324D01*
X117155901Y-43640314D01*
X117154095Y-43644622D01*
X117154094Y-43644623D01*
X117066505Y-43853500D01*
X117053677Y-43884091D01*
X117052526Y-43888623D01*
X117052525Y-43888626D01*
X117041226Y-43933116D01*
X116988608Y-44140301D01*
X116962124Y-44403314D01*
X116962348Y-44407980D01*
X116962348Y-44407985D01*
X116968093Y-44527576D01*
X116974807Y-44667352D01*
X117000027Y-44794141D01*
X117015488Y-44871866D01*
X117026378Y-44926616D01*
X117027957Y-44931014D01*
X117027959Y-44931021D01*
X117076183Y-45065336D01*
X117115704Y-45175410D01*
X117117921Y-45179536D01*
X117238606Y-45404142D01*
X117240822Y-45408267D01*
X117243617Y-45412011D01*
X117243619Y-45412013D01*
X117396192Y-45616333D01*
X117398985Y-45620073D01*
X117402292Y-45623351D01*
X117402297Y-45623357D01*
X117575757Y-45795308D01*
X117586718Y-45806174D01*
X117590485Y-45808936D01*
X117590486Y-45808937D01*
X117628949Y-45837139D01*
X117799896Y-45962483D01*
X117804031Y-45964659D01*
X117804035Y-45964661D01*
X117927293Y-46029510D01*
X118033836Y-46085565D01*
X118283400Y-46172716D01*
X118287993Y-46173588D01*
X118538515Y-46221151D01*
X118538518Y-46221151D01*
X118543104Y-46222022D01*
X118675173Y-46227211D01*
X118802575Y-46232218D01*
X118802581Y-46232218D01*
X118807243Y-46232401D01*
X119070015Y-46203622D01*
X119074526Y-46202434D01*
X119074528Y-46202434D01*
X119321124Y-46137511D01*
X119321126Y-46137510D01*
X119325647Y-46136320D01*
X119329944Y-46134474D01*
X119564229Y-46033817D01*
X119564231Y-46033816D01*
X119568523Y-46031972D01*
X119771461Y-45906390D01*
X119789332Y-45895331D01*
X119789334Y-45895330D01*
X119793307Y-45892871D01*
X119886710Y-45813800D01*
X119991496Y-45725093D01*
X119991498Y-45725091D01*
X119995063Y-45722073D01*
X120169356Y-45523329D01*
X120175005Y-45514548D01*
X120270337Y-45366337D01*
X120324011Y-45319866D01*
X120376308Y-45308500D01*
X120877208Y-45308500D01*
X120945329Y-45328502D01*
X120966303Y-45345405D01*
X121659595Y-46038697D01*
X121693621Y-46101009D01*
X121696500Y-46127792D01*
X121696500Y-55472207D01*
X121676498Y-55540328D01*
X121659595Y-55561302D01*
X119294277Y-57926620D01*
X119231965Y-57960646D01*
X119170490Y-57957703D01*
X119170345Y-57958307D01*
X119167164Y-57957543D01*
X119166761Y-57957524D01*
X119165794Y-57957214D01*
X119165788Y-57957212D01*
X119161347Y-57955791D01*
X119018825Y-57932580D01*
X118905053Y-57914051D01*
X118905052Y-57914051D01*
X118900441Y-57913300D01*
X118768281Y-57911570D01*
X118640798Y-57909901D01*
X118640795Y-57909901D01*
X118636121Y-57909840D01*
X118374192Y-57945486D01*
X118369702Y-57946795D01*
X118369696Y-57946796D01*
X118273720Y-57974771D01*
X118120410Y-58019457D01*
X118116163Y-58021415D01*
X118116160Y-58021416D01*
X118051211Y-58051358D01*
X117880348Y-58130127D01*
X117876439Y-58132690D01*
X117663195Y-58272499D01*
X117663190Y-58272503D01*
X117659282Y-58275065D01*
X117655790Y-58278182D01*
X117481186Y-58434022D01*
X117462067Y-58451086D01*
X117293036Y-58654324D01*
X117155901Y-58880314D01*
X117154095Y-58884622D01*
X117154094Y-58884623D01*
X117063823Y-59099896D01*
X117053677Y-59124091D01*
X117052526Y-59128623D01*
X117052525Y-59128626D01*
X117036957Y-59189926D01*
X116988608Y-59380301D01*
X116962124Y-59643314D01*
X116962348Y-59647980D01*
X116962348Y-59647985D01*
X116964518Y-59693160D01*
X116974807Y-59907352D01*
X116999138Y-60029671D01*
X117022902Y-60149139D01*
X117026378Y-60166616D01*
X117027957Y-60171014D01*
X117027959Y-60171021D01*
X117093352Y-60353154D01*
X117115704Y-60415410D01*
X117117921Y-60419536D01*
X117221298Y-60611930D01*
X117240822Y-60648267D01*
X117243617Y-60652011D01*
X117243619Y-60652013D01*
X117354873Y-60801000D01*
X117398985Y-60860073D01*
X117402292Y-60863351D01*
X117402297Y-60863357D01*
X117557522Y-61017232D01*
X117586718Y-61046174D01*
X117799896Y-61202483D01*
X117804031Y-61204659D01*
X117804035Y-61204661D01*
X117821765Y-61213989D01*
X118033836Y-61325565D01*
X118173891Y-61374474D01*
X118277384Y-61410615D01*
X118283400Y-61412716D01*
X118287993Y-61413588D01*
X118538515Y-61461151D01*
X118538518Y-61461151D01*
X118543104Y-61462022D01*
X118675174Y-61467212D01*
X118802575Y-61472218D01*
X118802581Y-61472218D01*
X118807243Y-61472401D01*
X119070015Y-61443622D01*
X119074526Y-61442434D01*
X119074528Y-61442434D01*
X119321124Y-61377511D01*
X119321126Y-61377510D01*
X119325647Y-61376320D01*
X119329944Y-61374474D01*
X119564229Y-61273817D01*
X119564231Y-61273816D01*
X119568523Y-61271972D01*
X119793307Y-61132871D01*
X119858460Y-61077715D01*
X119991496Y-60965093D01*
X119991498Y-60965091D01*
X119995063Y-60962073D01*
X120169356Y-60763329D01*
X120243367Y-60648267D01*
X120294673Y-60568502D01*
X120312359Y-60541006D01*
X120420930Y-60299988D01*
X120492683Y-60045570D01*
X120523425Y-59803919D01*
X120525645Y-59786471D01*
X120525645Y-59786465D01*
X120526043Y-59783340D01*
X120528487Y-59690000D01*
X120513922Y-59493998D01*
X120509243Y-59431036D01*
X120509242Y-59431032D01*
X120508897Y-59426384D01*
X120471425Y-59260782D01*
X120475900Y-59189926D01*
X120505223Y-59143879D01*
X123132783Y-56516320D01*
X123140550Y-56509177D01*
X123175153Y-56479935D01*
X123180367Y-56475529D01*
X123229679Y-56411031D01*
X123231573Y-56408615D01*
X123278232Y-56350583D01*
X123278233Y-56350582D01*
X123282510Y-56345262D01*
X123285547Y-56339143D01*
X123287335Y-56336348D01*
X123287588Y-56335987D01*
X123287790Y-56335620D01*
X123289521Y-56332762D01*
X123293660Y-56327348D01*
X123327986Y-56253736D01*
X123329320Y-56250964D01*
X123362640Y-56183841D01*
X123410845Y-56131718D01*
X123479577Y-56113931D01*
X123547015Y-56136127D01*
X123591747Y-56191259D01*
X123601500Y-56239865D01*
X123601500Y-58012208D01*
X123581498Y-58080329D01*
X123564595Y-58101303D01*
X119696302Y-61969595D01*
X119633990Y-62003621D01*
X119607207Y-62006500D01*
X115342793Y-62006500D01*
X115274672Y-61986498D01*
X115253697Y-61969595D01*
X114560404Y-61276301D01*
X114526379Y-61213989D01*
X114523500Y-61187206D01*
X114523500Y-60097792D01*
X114543502Y-60029671D01*
X114560405Y-60008697D01*
X118196764Y-56372339D01*
X118259076Y-56338313D01*
X118309361Y-56337645D01*
X118538515Y-56381151D01*
X118538518Y-56381151D01*
X118543104Y-56382022D01*
X118675173Y-56387211D01*
X118802575Y-56392218D01*
X118802581Y-56392218D01*
X118807243Y-56392401D01*
X119070015Y-56363622D01*
X119074526Y-56362434D01*
X119074528Y-56362434D01*
X119321124Y-56297511D01*
X119321126Y-56297510D01*
X119325647Y-56296320D01*
X119424759Y-56253738D01*
X119564229Y-56193817D01*
X119564231Y-56193816D01*
X119568523Y-56191972D01*
X119793307Y-56052871D01*
X119883804Y-55976260D01*
X119991496Y-55885093D01*
X119991498Y-55885091D01*
X119995063Y-55882073D01*
X120169356Y-55683329D01*
X120247847Y-55561302D01*
X120309831Y-55464936D01*
X120312359Y-55461006D01*
X120420930Y-55219988D01*
X120492683Y-54965570D01*
X120526043Y-54703340D01*
X120528487Y-54610000D01*
X120518823Y-54479956D01*
X120509243Y-54351036D01*
X120509242Y-54351032D01*
X120508897Y-54346384D01*
X120450557Y-54088559D01*
X120435028Y-54048626D01*
X120356442Y-53846542D01*
X120356441Y-53846540D01*
X120354749Y-53842189D01*
X120328535Y-53796323D01*
X120225897Y-53616745D01*
X120223578Y-53612687D01*
X120059925Y-53405094D01*
X119867385Y-53223970D01*
X119825718Y-53195065D01*
X119657681Y-53078494D01*
X119613110Y-53023231D01*
X119603500Y-52974966D01*
X119603500Y-51320530D01*
X119623502Y-51252409D01*
X119663197Y-51213386D01*
X119664429Y-51212624D01*
X119793307Y-51132871D01*
X119809788Y-51118919D01*
X119991496Y-50965093D01*
X119991498Y-50965091D01*
X119995063Y-50962073D01*
X120169356Y-50763329D01*
X120243367Y-50648267D01*
X120309831Y-50544936D01*
X120312359Y-50541006D01*
X120420930Y-50299988D01*
X120492683Y-50045570D01*
X120514755Y-49872071D01*
X120525645Y-49786471D01*
X120525645Y-49786465D01*
X120526043Y-49783340D01*
X120526932Y-49749411D01*
X120527507Y-49727409D01*
X120528487Y-49690000D01*
X120516064Y-49522832D01*
X120509243Y-49431036D01*
X120509242Y-49431032D01*
X120508897Y-49426384D01*
X120450557Y-49168559D01*
X120441066Y-49144152D01*
X120356442Y-48926542D01*
X120356441Y-48926540D01*
X120354749Y-48922189D01*
X120223578Y-48692687D01*
X120059925Y-48485094D01*
X119867385Y-48303970D01*
X119836716Y-48282694D01*
X119654026Y-48155958D01*
X119654021Y-48155955D01*
X119650188Y-48153296D01*
X119582999Y-48120162D01*
X119417294Y-48038445D01*
X119417291Y-48038444D01*
X119413106Y-48036380D01*
X119407240Y-48034502D01*
X119239884Y-47980931D01*
X119161347Y-47955791D01*
X118995394Y-47928764D01*
X118905053Y-47914051D01*
X118905052Y-47914051D01*
X118900441Y-47913300D01*
X118768281Y-47911570D01*
X118640798Y-47909901D01*
X118640795Y-47909901D01*
X118636121Y-47909840D01*
X118374192Y-47945486D01*
X118322218Y-47960635D01*
X118251224Y-47960495D01*
X118197866Y-47928764D01*
X112370170Y-42101067D01*
X106521320Y-36252217D01*
X106514177Y-36244450D01*
X106484935Y-36209847D01*
X106480529Y-36204633D01*
X106416031Y-36155321D01*
X106413615Y-36153427D01*
X106355583Y-36106768D01*
X106355582Y-36106767D01*
X106350262Y-36102490D01*
X106344143Y-36099453D01*
X106341348Y-36097665D01*
X106340987Y-36097412D01*
X106340620Y-36097210D01*
X106337762Y-36095479D01*
X106332348Y-36091340D01*
X106258736Y-36057014D01*
X106255964Y-36055680D01*
X106189296Y-36022586D01*
X106183186Y-36019553D01*
X106176565Y-36017902D01*
X106173437Y-36016751D01*
X106173044Y-36016587D01*
X106172639Y-36016468D01*
X106169475Y-36015391D01*
X106163296Y-36012510D01*
X106084000Y-35994785D01*
X106081002Y-35994076D01*
X106008821Y-35976079D01*
X106008820Y-35976079D01*
X106002199Y-35974428D01*
X105995378Y-35974237D01*
X105992075Y-35973785D01*
X105991191Y-35973626D01*
X105986308Y-35972948D01*
X105981260Y-35971820D01*
X105975537Y-35971500D01*
X105899156Y-35971500D01*
X105895637Y-35971451D01*
X105815743Y-35969219D01*
X105809039Y-35970498D01*
X105802238Y-35971045D01*
X105802196Y-35970525D01*
X105791875Y-35971500D01*
X101232767Y-35971500D01*
X101164646Y-35951498D01*
X101143672Y-35934595D01*
X101109776Y-35900699D01*
X100936558Y-35779411D01*
X100931580Y-35777090D01*
X100931577Y-35777088D01*
X100749892Y-35692367D01*
X100749891Y-35692366D01*
X100744910Y-35690044D01*
X100739602Y-35688622D01*
X100739600Y-35688621D01*
X100545970Y-35636738D01*
X100545968Y-35636738D01*
X100540655Y-35635314D01*
X100330000Y-35616884D01*
X100119345Y-35635314D01*
X100114032Y-35636738D01*
X100114030Y-35636738D01*
X99920400Y-35688621D01*
X99920398Y-35688622D01*
X99915090Y-35690044D01*
X99910109Y-35692366D01*
X99910108Y-35692367D01*
X99728423Y-35777088D01*
X99728420Y-35777090D01*
X99723442Y-35779411D01*
X99550224Y-35900699D01*
X99400699Y-36050224D01*
X99279411Y-36223442D01*
X99277090Y-36228420D01*
X99277088Y-36228423D01*
X99192367Y-36410108D01*
X99190044Y-36415090D01*
X99188622Y-36420398D01*
X99188621Y-36420400D01*
X99157118Y-36537970D01*
X99135314Y-36619345D01*
X99116884Y-36830000D01*
X93923116Y-36830000D01*
X93904686Y-36619345D01*
X93882882Y-36537970D01*
X93851379Y-36420400D01*
X93851378Y-36420398D01*
X93849956Y-36415090D01*
X93847633Y-36410108D01*
X93762912Y-36228423D01*
X93762910Y-36228420D01*
X93760589Y-36223442D01*
X93639301Y-36050224D01*
X93605405Y-36016328D01*
X93571379Y-35954016D01*
X93568500Y-35927233D01*
X93568500Y-33287767D01*
X93588502Y-33219646D01*
X93605405Y-33198672D01*
X93639301Y-33164776D01*
X93760589Y-32991558D01*
X93776369Y-32957719D01*
X93847633Y-32804892D01*
X93847634Y-32804891D01*
X93849956Y-32799910D01*
X93873972Y-32710283D01*
X93903262Y-32600970D01*
X93903262Y-32600968D01*
X93904686Y-32595655D01*
X93923116Y-32385000D01*
X93904686Y-32174345D01*
X93849956Y-31970090D01*
X93774007Y-31807217D01*
X93762912Y-31783423D01*
X93762910Y-31783420D01*
X93760589Y-31778442D01*
X93639301Y-31605224D01*
X93489776Y-31455699D01*
X93316558Y-31334411D01*
X93311580Y-31332090D01*
X93311577Y-31332088D01*
X93129892Y-31247367D01*
X93129891Y-31247366D01*
X93124910Y-31245044D01*
X93119602Y-31243622D01*
X93119600Y-31243621D01*
X92925970Y-31191738D01*
X92925968Y-31191738D01*
X92920655Y-31190314D01*
X92710000Y-31171884D01*
X92499345Y-31190314D01*
X92494032Y-31191738D01*
X92494030Y-31191738D01*
X92300400Y-31243621D01*
X92300398Y-31243622D01*
X92295090Y-31245044D01*
X92290109Y-31247366D01*
X92290108Y-31247367D01*
X92108423Y-31332088D01*
X92108420Y-31332090D01*
X92103442Y-31334411D01*
X91930224Y-31455699D01*
X91780699Y-31605224D01*
X91659411Y-31778442D01*
X91657090Y-31783420D01*
X91657088Y-31783423D01*
X91645993Y-31807217D01*
X91570044Y-31970090D01*
X91515314Y-32174345D01*
X91496884Y-32385000D01*
X91515314Y-32595655D01*
X91516738Y-32600968D01*
X91516738Y-32600970D01*
X91546029Y-32710283D01*
X91570044Y-32799910D01*
X91572366Y-32804891D01*
X91572367Y-32804892D01*
X91643632Y-32957719D01*
X91659411Y-32991558D01*
X91780699Y-33164776D01*
X91814595Y-33198672D01*
X91848621Y-33260984D01*
X91851500Y-33287767D01*
X91851500Y-35337500D01*
X91831498Y-35405621D01*
X91777842Y-35452114D01*
X91725500Y-35463500D01*
X91072767Y-35463500D01*
X91004646Y-35443498D01*
X90983672Y-35426595D01*
X90949776Y-35392699D01*
X90776558Y-35271411D01*
X90771580Y-35269090D01*
X90771577Y-35269088D01*
X90589892Y-35184367D01*
X90589891Y-35184366D01*
X90584910Y-35182044D01*
X90579602Y-35180622D01*
X90579600Y-35180621D01*
X90385970Y-35128738D01*
X90385968Y-35128738D01*
X90380655Y-35127314D01*
X90170000Y-35108884D01*
X89959345Y-35127314D01*
X89954032Y-35128738D01*
X89954030Y-35128738D01*
X89760400Y-35180621D01*
X89760398Y-35180622D01*
X89755090Y-35182044D01*
X89750109Y-35184366D01*
X89750108Y-35184367D01*
X89568423Y-35269088D01*
X89568420Y-35269090D01*
X89563442Y-35271411D01*
X89390224Y-35392699D01*
X89240699Y-35542224D01*
X89119411Y-35715442D01*
X89117090Y-35720420D01*
X89117088Y-35720423D01*
X89074252Y-35812285D01*
X89030044Y-35907090D01*
X89028622Y-35912398D01*
X89028621Y-35912400D01*
X88978950Y-36097776D01*
X88975314Y-36111345D01*
X88956884Y-36322000D01*
X83763116Y-36322000D01*
X83744686Y-36111345D01*
X83741050Y-36097776D01*
X83691379Y-35912400D01*
X83691378Y-35912398D01*
X83689956Y-35907090D01*
X83645748Y-35812285D01*
X83602912Y-35720423D01*
X83602910Y-35720420D01*
X83600589Y-35715442D01*
X83479301Y-35542224D01*
X83329776Y-35392699D01*
X83156558Y-35271411D01*
X83151580Y-35269090D01*
X83151577Y-35269088D01*
X82969892Y-35184367D01*
X82969891Y-35184366D01*
X82964910Y-35182044D01*
X82959602Y-35180622D01*
X82959600Y-35180621D01*
X82765970Y-35128738D01*
X82765968Y-35128738D01*
X82760655Y-35127314D01*
X82550000Y-35108884D01*
X82339345Y-35127314D01*
X82334032Y-35128738D01*
X82334030Y-35128738D01*
X82140400Y-35180621D01*
X82140398Y-35180622D01*
X82135090Y-35182044D01*
X82130109Y-35184366D01*
X82130108Y-35184367D01*
X81948423Y-35269088D01*
X81948420Y-35269090D01*
X81943442Y-35271411D01*
X81770224Y-35392699D01*
X81736328Y-35426595D01*
X81674016Y-35460621D01*
X81647233Y-35463500D01*
X78019390Y-35463500D01*
X78008847Y-35463058D01*
X77956901Y-35458696D01*
X77950141Y-35459598D01*
X77950139Y-35459598D01*
X77876398Y-35469437D01*
X77873343Y-35469807D01*
X77841111Y-35473309D01*
X77792563Y-35478583D01*
X77786099Y-35480758D01*
X77782824Y-35481478D01*
X77782428Y-35481548D01*
X77782004Y-35481671D01*
X77778784Y-35482462D01*
X77772011Y-35483366D01*
X77695677Y-35511149D01*
X77692802Y-35512156D01*
X77674227Y-35518407D01*
X77615777Y-35538078D01*
X77609923Y-35541596D01*
X77606916Y-35542985D01*
X77606511Y-35543152D01*
X77606135Y-35543357D01*
X77603148Y-35544827D01*
X77596732Y-35547162D01*
X77528080Y-35590730D01*
X77525611Y-35592255D01*
X77455891Y-35634147D01*
X77450934Y-35638834D01*
X77448277Y-35640851D01*
X77447543Y-35641361D01*
X77443605Y-35644339D01*
X77439241Y-35647109D01*
X77434968Y-35650929D01*
X77380972Y-35704925D01*
X77378450Y-35707379D01*
X77320364Y-35762308D01*
X77316526Y-35767956D01*
X77312107Y-35773148D01*
X77311707Y-35772808D01*
X77305100Y-35780797D01*
X74417104Y-38668793D01*
X74409263Y-38675998D01*
X74408932Y-38676278D01*
X74408643Y-38676522D01*
X74343678Y-38705159D01*
X74273544Y-38694129D01*
X74238300Y-38669311D01*
X73463815Y-37894825D01*
X72650405Y-37081415D01*
X72616379Y-37019103D01*
X72613500Y-36992320D01*
X72613500Y-36911010D01*
X72615192Y-36890431D01*
X72616101Y-36884942D01*
X72616101Y-36884939D01*
X72617216Y-36878205D01*
X72614977Y-36835475D01*
X72613673Y-36810607D01*
X72613500Y-36804012D01*
X72613500Y-35186291D01*
X72633502Y-35118170D01*
X72687158Y-35071677D01*
X72725892Y-35061028D01*
X72738086Y-35059703D01*
X72765316Y-35056745D01*
X72901705Y-35005615D01*
X73018261Y-34918261D01*
X73105615Y-34801705D01*
X73156745Y-34665316D01*
X73163500Y-34603134D01*
X73163500Y-32706866D01*
X73156745Y-32644684D01*
X73105615Y-32508295D01*
X73018261Y-32391739D01*
X72901705Y-32304385D01*
X72765316Y-32253255D01*
X72703134Y-32246500D01*
X70806866Y-32246500D01*
X70744684Y-32253255D01*
X70608295Y-32304385D01*
X70491739Y-32391739D01*
X70404385Y-32508295D01*
X70353255Y-32644684D01*
X70346500Y-32706866D01*
X70346500Y-34603134D01*
X70353255Y-34665316D01*
X70404385Y-34801705D01*
X70491739Y-34918261D01*
X70608295Y-35005615D01*
X70744684Y-35056745D01*
X70771914Y-35059703D01*
X70784108Y-35061028D01*
X70849670Y-35088270D01*
X70890096Y-35146634D01*
X70896500Y-35186291D01*
X70896500Y-35845500D01*
X70876498Y-35913621D01*
X70822842Y-35960114D01*
X70770500Y-35971500D01*
X69482767Y-35971500D01*
X69414646Y-35951498D01*
X69393672Y-35934595D01*
X69359776Y-35900699D01*
X69186558Y-35779411D01*
X69181580Y-35777090D01*
X69181577Y-35777088D01*
X68999892Y-35692367D01*
X68999891Y-35692366D01*
X68994910Y-35690044D01*
X68989602Y-35688622D01*
X68989600Y-35688621D01*
X68795970Y-35636738D01*
X68795968Y-35636738D01*
X68790655Y-35635314D01*
X68580000Y-35616884D01*
X68369345Y-35635314D01*
X68364032Y-35636738D01*
X68364030Y-35636738D01*
X68170400Y-35688621D01*
X68170398Y-35688622D01*
X68165090Y-35690044D01*
X68160109Y-35692366D01*
X68160108Y-35692367D01*
X67978423Y-35777088D01*
X67978420Y-35777090D01*
X67973442Y-35779411D01*
X67800224Y-35900699D01*
X67650699Y-36050224D01*
X67529411Y-36223442D01*
X67527090Y-36228420D01*
X67527088Y-36228423D01*
X67442367Y-36410108D01*
X67440044Y-36415090D01*
X67438622Y-36420398D01*
X67438621Y-36420400D01*
X67407118Y-36537970D01*
X67385314Y-36619345D01*
X67366884Y-36830000D01*
X67385314Y-37040655D01*
X67386738Y-37045968D01*
X67386738Y-37045970D01*
X67429242Y-37204595D01*
X67440044Y-37244910D01*
X67442366Y-37249891D01*
X67442367Y-37249892D01*
X67499582Y-37372589D01*
X67529411Y-37436558D01*
X67650699Y-37609776D01*
X67684595Y-37643672D01*
X67718621Y-37705984D01*
X67721500Y-37732767D01*
X67721500Y-39597208D01*
X67701498Y-39665329D01*
X67684599Y-39686299D01*
X66764093Y-40606804D01*
X66701783Y-40640828D01*
X66630967Y-40635763D01*
X66585905Y-40606802D01*
X66041320Y-40062217D01*
X66034177Y-40054450D01*
X66004935Y-40019847D01*
X66000529Y-40014633D01*
X65936031Y-39965321D01*
X65933615Y-39963427D01*
X65875583Y-39916768D01*
X65875582Y-39916767D01*
X65870262Y-39912490D01*
X65864143Y-39909453D01*
X65861348Y-39907665D01*
X65860987Y-39907412D01*
X65860620Y-39907210D01*
X65857762Y-39905479D01*
X65852348Y-39901340D01*
X65778736Y-39867014D01*
X65775964Y-39865680D01*
X65709296Y-39832586D01*
X65703186Y-39829553D01*
X65696565Y-39827902D01*
X65693437Y-39826751D01*
X65693044Y-39826587D01*
X65692639Y-39826468D01*
X65689475Y-39825391D01*
X65683296Y-39822510D01*
X65604000Y-39804785D01*
X65601002Y-39804076D01*
X65528821Y-39786079D01*
X65528820Y-39786079D01*
X65522199Y-39784428D01*
X65515378Y-39784237D01*
X65512075Y-39783785D01*
X65511191Y-39783626D01*
X65506308Y-39782948D01*
X65501260Y-39781820D01*
X65495537Y-39781500D01*
X65419156Y-39781500D01*
X65415637Y-39781451D01*
X65335743Y-39779219D01*
X65329039Y-39780498D01*
X65322238Y-39781045D01*
X65322196Y-39780525D01*
X65311875Y-39781500D01*
X52434500Y-39781500D01*
X52366379Y-39761498D01*
X52319886Y-39707842D01*
X52308500Y-39655500D01*
X52308500Y-39591866D01*
X52301745Y-39529684D01*
X52250615Y-39393295D01*
X52163261Y-39276739D01*
X52046705Y-39189385D01*
X51910316Y-39138255D01*
X51848134Y-39131500D01*
X51195997Y-39131500D01*
X51127876Y-39111498D01*
X51081383Y-39057842D01*
X51071279Y-38987568D01*
X51100773Y-38922988D01*
X51150020Y-38889962D01*
X51149558Y-38888962D01*
X51155753Y-38886100D01*
X51162223Y-38883922D01*
X51168077Y-38880405D01*
X51171084Y-38879015D01*
X51171489Y-38878848D01*
X51171865Y-38878643D01*
X51174852Y-38877173D01*
X51181268Y-38874838D01*
X51249920Y-38831270D01*
X51252389Y-38829745D01*
X51322109Y-38787853D01*
X51327066Y-38783166D01*
X51329723Y-38781149D01*
X51330469Y-38780631D01*
X51334402Y-38777656D01*
X51338759Y-38774891D01*
X51343032Y-38771070D01*
X51397010Y-38717092D01*
X51399532Y-38714638D01*
X51452680Y-38664379D01*
X51452682Y-38664377D01*
X51457636Y-38659692D01*
X51461471Y-38654050D01*
X51465894Y-38648852D01*
X51466290Y-38649189D01*
X51472904Y-38641198D01*
X51838697Y-38275405D01*
X51901009Y-38241379D01*
X51927792Y-38238500D01*
X53018134Y-38238500D01*
X53080316Y-38231745D01*
X53216705Y-38180615D01*
X53333261Y-38093261D01*
X53420615Y-37976705D01*
X53471745Y-37840316D01*
X53476028Y-37800892D01*
X53503270Y-37735330D01*
X53561634Y-37694904D01*
X53601291Y-37688500D01*
X60057233Y-37688500D01*
X60125354Y-37708502D01*
X60146328Y-37725405D01*
X60180224Y-37759301D01*
X60353442Y-37880589D01*
X60358420Y-37882910D01*
X60358423Y-37882912D01*
X60490274Y-37944395D01*
X60545090Y-37969956D01*
X60550398Y-37971378D01*
X60550400Y-37971379D01*
X60744030Y-38023262D01*
X60744032Y-38023262D01*
X60749345Y-38024686D01*
X60960000Y-38043116D01*
X61170655Y-38024686D01*
X61175968Y-38023262D01*
X61175970Y-38023262D01*
X61369600Y-37971379D01*
X61369602Y-37971378D01*
X61374910Y-37969956D01*
X61429726Y-37944395D01*
X61561577Y-37882912D01*
X61561580Y-37882910D01*
X61566558Y-37880589D01*
X61739776Y-37759301D01*
X61889301Y-37609776D01*
X62010589Y-37436558D01*
X62040419Y-37372589D01*
X62097633Y-37249892D01*
X62097634Y-37249891D01*
X62099956Y-37244910D01*
X62110759Y-37204595D01*
X62153262Y-37045970D01*
X62153262Y-37045968D01*
X62154686Y-37040655D01*
X62173116Y-36830000D01*
X62154686Y-36619345D01*
X62132882Y-36537970D01*
X62101379Y-36420400D01*
X62101378Y-36420398D01*
X62099956Y-36415090D01*
X62097633Y-36410108D01*
X62012912Y-36228423D01*
X62012910Y-36228420D01*
X62010589Y-36223442D01*
X61889301Y-36050224D01*
X61739776Y-35900699D01*
X61566558Y-35779411D01*
X61561580Y-35777090D01*
X61561577Y-35777088D01*
X61379892Y-35692367D01*
X61379891Y-35692366D01*
X61374910Y-35690044D01*
X61322904Y-35676109D01*
X61276888Y-35663779D01*
X61216266Y-35626827D01*
X61185244Y-35562966D01*
X61183500Y-35542072D01*
X61183500Y-33728610D01*
X61203502Y-33660489D01*
X61257158Y-33613996D01*
X61265270Y-33610628D01*
X61363297Y-33573879D01*
X61371705Y-33570727D01*
X61488261Y-33483373D01*
X61575615Y-33366817D01*
X61626745Y-33230428D01*
X61633500Y-33168246D01*
X61633500Y-31471978D01*
X61626745Y-31409796D01*
X61575615Y-31273407D01*
X61488261Y-31156851D01*
X61371705Y-31069497D01*
X61235316Y-31018367D01*
X61173134Y-31011612D01*
X59476866Y-31011612D01*
X59414684Y-31018367D01*
X59278295Y-31069497D01*
X59161739Y-31156851D01*
X59074385Y-31273407D01*
X59023255Y-31409796D01*
X59016500Y-31471978D01*
X59016500Y-33168246D01*
X59023255Y-33230428D01*
X59074385Y-33366817D01*
X59161739Y-33483373D01*
X59278295Y-33570727D01*
X59286703Y-33573879D01*
X59384730Y-33610628D01*
X59441494Y-33653270D01*
X59466194Y-33719831D01*
X59466500Y-33728610D01*
X59466500Y-35845500D01*
X59446498Y-35913621D01*
X59392842Y-35960114D01*
X59340500Y-35971500D01*
X53601291Y-35971500D01*
X53533170Y-35951498D01*
X53486677Y-35897842D01*
X53476028Y-35859108D01*
X53472598Y-35827540D01*
X53471745Y-35819684D01*
X53420615Y-35683295D01*
X53333261Y-35566739D01*
X53216705Y-35479385D01*
X53080316Y-35428255D01*
X53018134Y-35421500D01*
X51121866Y-35421500D01*
X51059684Y-35428255D01*
X50923295Y-35479385D01*
X50806739Y-35566739D01*
X50719385Y-35683295D01*
X50668255Y-35819684D01*
X50661500Y-35881866D01*
X50661500Y-36972207D01*
X50641498Y-37040328D01*
X50624595Y-37061302D01*
X50481302Y-37204595D01*
X50418990Y-37238621D01*
X50392207Y-37241500D01*
X47892767Y-37241500D01*
X47824646Y-37221498D01*
X47803672Y-37204595D01*
X47769776Y-37170699D01*
X47596558Y-37049411D01*
X47591580Y-37047090D01*
X47591577Y-37047088D01*
X47409892Y-36962367D01*
X47409891Y-36962366D01*
X47404910Y-36960044D01*
X47399602Y-36958622D01*
X47399600Y-36958621D01*
X47205970Y-36906738D01*
X47205968Y-36906738D01*
X47200655Y-36905314D01*
X46990000Y-36886884D01*
X46779345Y-36905314D01*
X46774032Y-36906738D01*
X46774030Y-36906738D01*
X46580400Y-36958621D01*
X46580398Y-36958622D01*
X46575090Y-36960044D01*
X46570109Y-36962366D01*
X46570108Y-36962367D01*
X46388423Y-37047088D01*
X46388420Y-37047090D01*
X46383442Y-37049411D01*
X46210224Y-37170699D01*
X46060699Y-37320224D01*
X45939411Y-37493442D01*
X45937090Y-37498420D01*
X45937088Y-37498423D01*
X45852367Y-37680108D01*
X45850044Y-37685090D01*
X45848622Y-37690398D01*
X45848621Y-37690400D01*
X45797660Y-37880589D01*
X45795314Y-37889345D01*
X45776884Y-38100000D01*
X45795314Y-38310655D01*
X45796738Y-38315968D01*
X45796738Y-38315970D01*
X45813693Y-38379245D01*
X45850044Y-38514910D01*
X45852366Y-38519891D01*
X45852367Y-38519892D01*
X45935000Y-38697098D01*
X45939411Y-38706558D01*
X46060699Y-38879776D01*
X46210224Y-39029301D01*
X46383442Y-39150589D01*
X46388420Y-39152910D01*
X46388423Y-39152912D01*
X46570108Y-39237633D01*
X46575090Y-39239956D01*
X46580398Y-39241378D01*
X46580400Y-39241379D01*
X46774030Y-39293262D01*
X46774032Y-39293262D01*
X46779345Y-39294686D01*
X46990000Y-39313116D01*
X47200655Y-39294686D01*
X47205968Y-39293262D01*
X47205970Y-39293262D01*
X47399600Y-39241379D01*
X47399602Y-39241378D01*
X47404910Y-39239956D01*
X47409892Y-39237633D01*
X47591577Y-39152912D01*
X47591580Y-39152910D01*
X47596558Y-39150589D01*
X47769776Y-39029301D01*
X47803672Y-38995405D01*
X47865984Y-38961379D01*
X47892767Y-38958500D01*
X49485144Y-38958500D01*
X49553265Y-38978502D01*
X49599758Y-39032158D01*
X49609862Y-39102432D01*
X49580368Y-39167012D01*
X49553047Y-39189054D01*
X49553295Y-39189385D01*
X49436739Y-39276739D01*
X49349385Y-39393295D01*
X49298255Y-39529684D01*
X49291500Y-39591866D01*
X49291500Y-41688134D01*
X49298255Y-41750316D01*
X49349385Y-41886705D01*
X49436739Y-42003261D01*
X49553295Y-42090615D01*
X49689684Y-42141745D01*
X49751866Y-42148500D01*
X51848134Y-42148500D01*
X51910316Y-42141745D01*
X52046705Y-42090615D01*
X52163261Y-42003261D01*
X52250615Y-41886705D01*
X52301745Y-41750316D01*
X52308500Y-41688134D01*
X52308500Y-41624500D01*
X52328502Y-41556379D01*
X52382158Y-41509886D01*
X52434500Y-41498500D01*
X58723233Y-41498500D01*
X58791354Y-41518502D01*
X58837847Y-41572158D01*
X58847951Y-41642432D01*
X58818457Y-41707012D01*
X58812328Y-41713595D01*
X58760699Y-41765224D01*
X58639411Y-41938442D01*
X58637090Y-41943420D01*
X58637088Y-41943423D01*
X58552367Y-42125108D01*
X58550044Y-42130090D01*
X58548622Y-42135398D01*
X58548621Y-42135400D01*
X58497971Y-42324428D01*
X58495314Y-42334345D01*
X58476884Y-42545000D01*
X58495314Y-42755655D01*
X58496738Y-42760968D01*
X58496738Y-42760970D01*
X58540264Y-42923409D01*
X58550044Y-42959910D01*
X58552366Y-42964891D01*
X58552367Y-42964892D01*
X58563578Y-42988933D01*
X58639411Y-43151558D01*
X58760699Y-43324776D01*
X58794595Y-43358672D01*
X58828621Y-43420984D01*
X58831500Y-43447767D01*
X58831500Y-44368990D01*
X58829808Y-44389569D01*
X58827784Y-44401795D01*
X58828141Y-44408611D01*
X58828141Y-44408615D01*
X58831327Y-44469393D01*
X58831500Y-44475988D01*
X58831500Y-46909548D01*
X58811498Y-46977669D01*
X58757842Y-47024162D01*
X58687568Y-47034266D01*
X58668245Y-47029914D01*
X58628820Y-47017710D01*
X58622695Y-47017066D01*
X58622694Y-47017066D01*
X58433378Y-46997168D01*
X58433377Y-46997168D01*
X58427250Y-46996524D01*
X58343986Y-47004102D01*
X58231543Y-47014335D01*
X58231540Y-47014336D01*
X58225404Y-47014894D01*
X58219498Y-47016632D01*
X58219494Y-47016633D01*
X58036879Y-47070380D01*
X58036877Y-47070381D01*
X58035493Y-47070788D01*
X58030971Y-47072119D01*
X58030718Y-47071260D01*
X57965338Y-47077714D01*
X57928594Y-47064548D01*
X57921705Y-47059385D01*
X57913304Y-47056236D01*
X57913301Y-47056234D01*
X57823576Y-47022598D01*
X57785316Y-47008255D01*
X57723134Y-47001500D01*
X56576866Y-47001500D01*
X56514684Y-47008255D01*
X56378295Y-47059385D01*
X56261739Y-47146739D01*
X56174385Y-47263295D01*
X56171233Y-47271703D01*
X56153228Y-47319730D01*
X56110586Y-47376495D01*
X56044024Y-47401194D01*
X56035246Y-47401500D01*
X51784500Y-47401500D01*
X51716379Y-47381498D01*
X51669886Y-47327842D01*
X51658500Y-47275500D01*
X51658500Y-47028668D01*
X51678502Y-46960547D01*
X51702669Y-46932857D01*
X51866213Y-46793177D01*
X51869969Y-46789969D01*
X52024176Y-46609416D01*
X52026755Y-46605208D01*
X52026759Y-46605202D01*
X52145654Y-46411183D01*
X52148240Y-46406963D01*
X52150209Y-46402211D01*
X52237211Y-46192167D01*
X52237212Y-46192165D01*
X52239105Y-46187594D01*
X52276024Y-46033817D01*
X52293380Y-45961524D01*
X52293381Y-45961518D01*
X52294535Y-45956711D01*
X52313165Y-45720000D01*
X52294535Y-45483289D01*
X52282651Y-45433786D01*
X52240260Y-45257218D01*
X52239105Y-45252406D01*
X52217028Y-45199107D01*
X52150135Y-45037611D01*
X52150133Y-45037607D01*
X52148240Y-45033037D01*
X52137468Y-45015458D01*
X52026759Y-44834798D01*
X52026755Y-44834792D01*
X52024176Y-44830584D01*
X51869969Y-44650031D01*
X51689416Y-44495824D01*
X51685208Y-44493245D01*
X51685202Y-44493241D01*
X51491183Y-44374346D01*
X51486963Y-44371760D01*
X51482393Y-44369867D01*
X51482389Y-44369865D01*
X51272167Y-44282789D01*
X51272165Y-44282788D01*
X51267594Y-44280895D01*
X51176141Y-44258939D01*
X51041524Y-44226620D01*
X51041518Y-44226619D01*
X51036711Y-44225465D01*
X50800000Y-44206835D01*
X50563289Y-44225465D01*
X50558482Y-44226619D01*
X50558476Y-44226620D01*
X50423859Y-44258939D01*
X50332406Y-44280895D01*
X50327835Y-44282788D01*
X50327833Y-44282789D01*
X50117611Y-44369865D01*
X50117607Y-44369867D01*
X50113037Y-44371760D01*
X50108817Y-44374346D01*
X49914798Y-44493241D01*
X49914792Y-44493245D01*
X49910584Y-44495824D01*
X49730031Y-44650031D01*
X49726823Y-44653787D01*
X49587143Y-44817331D01*
X49527692Y-44856140D01*
X49491332Y-44861500D01*
X44184188Y-44861500D01*
X44116067Y-44841498D01*
X44095093Y-44824595D01*
X43984300Y-44713802D01*
X43979792Y-44710645D01*
X43979789Y-44710643D01*
X43867902Y-44632299D01*
X43796749Y-44582477D01*
X43791767Y-44580154D01*
X43791762Y-44580151D01*
X43594225Y-44488039D01*
X43594224Y-44488039D01*
X43589243Y-44485716D01*
X43583935Y-44484294D01*
X43583933Y-44484293D01*
X43373402Y-44427881D01*
X43373400Y-44427881D01*
X43368087Y-44426457D01*
X43140000Y-44406502D01*
X42911913Y-44426457D01*
X42906600Y-44427881D01*
X42906598Y-44427881D01*
X42696067Y-44484293D01*
X42696065Y-44484294D01*
X42690757Y-44485716D01*
X42685776Y-44488039D01*
X42685775Y-44488039D01*
X42488238Y-44580151D01*
X42488233Y-44580154D01*
X42483251Y-44582477D01*
X42412098Y-44632299D01*
X42300211Y-44710643D01*
X42300208Y-44710645D01*
X42295700Y-44713802D01*
X42150000Y-44859502D01*
X42087688Y-44893528D01*
X42016873Y-44888463D01*
X41960037Y-44845916D01*
X41942868Y-44809263D01*
X41941745Y-44809684D01*
X41893767Y-44681703D01*
X41890615Y-44673295D01*
X41803261Y-44556739D01*
X41686705Y-44469385D01*
X41668513Y-44462565D01*
X41580270Y-44429484D01*
X41523506Y-44386842D01*
X41498806Y-44320281D01*
X41498500Y-44311502D01*
X41498500Y-39411390D01*
X41498942Y-39400847D01*
X41502733Y-39355699D01*
X41503304Y-39348901D01*
X41501434Y-39334887D01*
X41492563Y-39268398D01*
X41492193Y-39265343D01*
X41484153Y-39191342D01*
X41483417Y-39184563D01*
X41481242Y-39178099D01*
X41480522Y-39174824D01*
X41480452Y-39174428D01*
X41480329Y-39174004D01*
X41479538Y-39170784D01*
X41478634Y-39164011D01*
X41450851Y-39087677D01*
X41449844Y-39084802D01*
X41439376Y-39053697D01*
X41423922Y-39007777D01*
X41420404Y-39001923D01*
X41419015Y-38998916D01*
X41418848Y-38998511D01*
X41418643Y-38998135D01*
X41417173Y-38995148D01*
X41414838Y-38988732D01*
X41371270Y-38920080D01*
X41369745Y-38917611D01*
X41327853Y-38847891D01*
X41323166Y-38842934D01*
X41321149Y-38840277D01*
X41320631Y-38839531D01*
X41317656Y-38835598D01*
X41314891Y-38831241D01*
X41311070Y-38826968D01*
X41257091Y-38772989D01*
X41254637Y-38770467D01*
X41204381Y-38717323D01*
X41199692Y-38712364D01*
X41194044Y-38708526D01*
X41188852Y-38704107D01*
X41189192Y-38703707D01*
X41181200Y-38697098D01*
X40615450Y-38131348D01*
X40581424Y-38069036D01*
X40579024Y-38053234D01*
X40564686Y-37889345D01*
X40509956Y-37685090D01*
X40507633Y-37680108D01*
X40422912Y-37498423D01*
X40422910Y-37498420D01*
X40420589Y-37493442D01*
X40299301Y-37320224D01*
X40149776Y-37170699D01*
X39976558Y-37049411D01*
X39971580Y-37047090D01*
X39971577Y-37047088D01*
X39789892Y-36962367D01*
X39789891Y-36962366D01*
X39784910Y-36960044D01*
X39779602Y-36958622D01*
X39779600Y-36958621D01*
X39585970Y-36906738D01*
X39585968Y-36906738D01*
X39580655Y-36905314D01*
X39370000Y-36886884D01*
X39159345Y-36905314D01*
X39154032Y-36906738D01*
X39154030Y-36906738D01*
X38960400Y-36958621D01*
X38960398Y-36958622D01*
X38955090Y-36960044D01*
X38950109Y-36962366D01*
X38950108Y-36962367D01*
X38768423Y-37047088D01*
X38768420Y-37047090D01*
X38763442Y-37049411D01*
X38590224Y-37170699D01*
X38440699Y-37320224D01*
X38319411Y-37493442D01*
X38317090Y-37498420D01*
X38317088Y-37498423D01*
X38232367Y-37680108D01*
X38230044Y-37685090D01*
X38228622Y-37690398D01*
X38228621Y-37690400D01*
X38177660Y-37880589D01*
X38175314Y-37889345D01*
X38156884Y-38100000D01*
X38175314Y-38310655D01*
X38176738Y-38315968D01*
X38176738Y-38315970D01*
X38193693Y-38379245D01*
X38230044Y-38514910D01*
X38232366Y-38519891D01*
X38232367Y-38519892D01*
X38315000Y-38697098D01*
X38319411Y-38706558D01*
X38440699Y-38879776D01*
X38590224Y-39029301D01*
X38763442Y-39150589D01*
X38768420Y-39152910D01*
X38768423Y-39152912D01*
X38950108Y-39237633D01*
X38955090Y-39239956D01*
X38960398Y-39241378D01*
X38960400Y-39241379D01*
X39024118Y-39258452D01*
X39159345Y-39294686D01*
X39323235Y-39309024D01*
X39389353Y-39334887D01*
X39401348Y-39345450D01*
X39744595Y-39688697D01*
X39778621Y-39751009D01*
X39781500Y-39777792D01*
X39781500Y-44311502D01*
X39761498Y-44379623D01*
X39707842Y-44426116D01*
X39699730Y-44429484D01*
X39611487Y-44462565D01*
X39593295Y-44469385D01*
X39476739Y-44556739D01*
X39389385Y-44673295D01*
X39386233Y-44681703D01*
X39349484Y-44779730D01*
X39306842Y-44836494D01*
X39240281Y-44861194D01*
X39231502Y-44861500D01*
X34361355Y-44861500D01*
X34293234Y-44841498D01*
X34265311Y-44815121D01*
X34264464Y-44815844D01*
X34110909Y-44636055D01*
X34107701Y-44632299D01*
X33924156Y-44475536D01*
X33718347Y-44349416D01*
X33713777Y-44347523D01*
X33713773Y-44347521D01*
X33499916Y-44258939D01*
X33499914Y-44258938D01*
X33495343Y-44257045D01*
X33362188Y-44225077D01*
X33265447Y-44201851D01*
X33265441Y-44201850D01*
X33260634Y-44200696D01*
X33020000Y-44181758D01*
X32779366Y-44200696D01*
X32774559Y-44201850D01*
X32774553Y-44201851D01*
X32677812Y-44225077D01*
X32544657Y-44257045D01*
X32540086Y-44258938D01*
X32540084Y-44258939D01*
X32326227Y-44347521D01*
X32326223Y-44347523D01*
X32321653Y-44349416D01*
X32115844Y-44475536D01*
X31932299Y-44632299D01*
X31775536Y-44815844D01*
X31649416Y-45021653D01*
X31647523Y-45026223D01*
X31647521Y-45026227D01*
X31576078Y-45198707D01*
X31557045Y-45244657D01*
X31543517Y-45301006D01*
X31501851Y-45474553D01*
X31501850Y-45474559D01*
X31500696Y-45479366D01*
X31481758Y-45720000D01*
X25908500Y-45720000D01*
X25908500Y-30468609D01*
X27216734Y-30468609D01*
X27234591Y-30821106D01*
X27235128Y-30824461D01*
X27235129Y-30824467D01*
X27265105Y-31011612D01*
X27290412Y-31169613D01*
X27383546Y-31510053D01*
X27512903Y-31838443D01*
X27514486Y-31841458D01*
X27675384Y-32147926D01*
X27675389Y-32147934D01*
X27676968Y-32150942D01*
X27678862Y-32153760D01*
X27678867Y-32153769D01*
X27830569Y-32379525D01*
X27873824Y-32443895D01*
X28101167Y-32713873D01*
X28103627Y-32716224D01*
X28103630Y-32716227D01*
X28353875Y-32955366D01*
X28353882Y-32955372D01*
X28356338Y-32957719D01*
X28636351Y-33172581D01*
X28639269Y-33174355D01*
X28935017Y-33354173D01*
X28935022Y-33354176D01*
X28937932Y-33355945D01*
X28941020Y-33357391D01*
X28941019Y-33357391D01*
X29254468Y-33504222D01*
X29254478Y-33504226D01*
X29257552Y-33505666D01*
X29260770Y-33506768D01*
X29260773Y-33506769D01*
X29588241Y-33618887D01*
X29588245Y-33618888D01*
X29591472Y-33619993D01*
X29594802Y-33620743D01*
X29594811Y-33620746D01*
X29838164Y-33675587D01*
X29935786Y-33697587D01*
X29939171Y-33697973D01*
X29939179Y-33697974D01*
X30283083Y-33737157D01*
X30283091Y-33737157D01*
X30286466Y-33737542D01*
X30289870Y-33737560D01*
X30289873Y-33737560D01*
X30481627Y-33738564D01*
X30639411Y-33739390D01*
X30642797Y-33739040D01*
X30642799Y-33739040D01*
X30987098Y-33703461D01*
X30987107Y-33703460D01*
X30990490Y-33703110D01*
X30993823Y-33702396D01*
X30993826Y-33702395D01*
X31163692Y-33665979D01*
X31335598Y-33629125D01*
X31670697Y-33518301D01*
X31991867Y-33371936D01*
X32178732Y-33260984D01*
X32292407Y-33193489D01*
X32292412Y-33193486D01*
X32295352Y-33191740D01*
X32320870Y-33172581D01*
X32574867Y-32981874D01*
X32577600Y-32979822D01*
X32835310Y-32738661D01*
X33065468Y-32471078D01*
X33265380Y-32180203D01*
X33266992Y-32177209D01*
X33266997Y-32177201D01*
X33431087Y-31872452D01*
X33432709Y-31869440D01*
X33565498Y-31542422D01*
X33569200Y-31529428D01*
X33661257Y-31206254D01*
X33662191Y-31202976D01*
X33721659Y-30855073D01*
X33723945Y-30817711D01*
X33743096Y-30504580D01*
X33743206Y-30502782D01*
X33743286Y-30480000D01*
X33742669Y-30468609D01*
X123736734Y-30468609D01*
X123754591Y-30821106D01*
X123755128Y-30824461D01*
X123755129Y-30824467D01*
X123785105Y-31011612D01*
X123810412Y-31169613D01*
X123903546Y-31510053D01*
X124032903Y-31838443D01*
X124034486Y-31841458D01*
X124195384Y-32147926D01*
X124195389Y-32147934D01*
X124196968Y-32150942D01*
X124198862Y-32153760D01*
X124198867Y-32153769D01*
X124350569Y-32379525D01*
X124393824Y-32443895D01*
X124621167Y-32713873D01*
X124623627Y-32716224D01*
X124623630Y-32716227D01*
X124873875Y-32955366D01*
X124873882Y-32955372D01*
X124876338Y-32957719D01*
X125156351Y-33172581D01*
X125159269Y-33174355D01*
X125455017Y-33354173D01*
X125455022Y-33354176D01*
X125457932Y-33355945D01*
X125461020Y-33357391D01*
X125461019Y-33357391D01*
X125774468Y-33504222D01*
X125774478Y-33504226D01*
X125777552Y-33505666D01*
X125780770Y-33506768D01*
X125780773Y-33506769D01*
X126108241Y-33618887D01*
X126108245Y-33618888D01*
X126111472Y-33619993D01*
X126114802Y-33620743D01*
X126114811Y-33620746D01*
X126358164Y-33675587D01*
X126455786Y-33697587D01*
X126459171Y-33697973D01*
X126459179Y-33697974D01*
X126803083Y-33737157D01*
X126803091Y-33737157D01*
X126806466Y-33737542D01*
X126809870Y-33737560D01*
X126809873Y-33737560D01*
X127001627Y-33738564D01*
X127159411Y-33739390D01*
X127162797Y-33739040D01*
X127162799Y-33739040D01*
X127507098Y-33703461D01*
X127507107Y-33703460D01*
X127510490Y-33703110D01*
X127513823Y-33702396D01*
X127513826Y-33702395D01*
X127683692Y-33665979D01*
X127855598Y-33629125D01*
X128190697Y-33518301D01*
X128511867Y-33371936D01*
X128698732Y-33260984D01*
X128812407Y-33193489D01*
X128812412Y-33193486D01*
X128815352Y-33191740D01*
X128840870Y-33172581D01*
X129094867Y-32981874D01*
X129097600Y-32979822D01*
X129355310Y-32738661D01*
X129585468Y-32471078D01*
X129785380Y-32180203D01*
X129786992Y-32177209D01*
X129786997Y-32177201D01*
X129951087Y-31872452D01*
X129952709Y-31869440D01*
X130085498Y-31542422D01*
X130089200Y-31529428D01*
X130181257Y-31206254D01*
X130182191Y-31202976D01*
X130241659Y-30855073D01*
X130243945Y-30817711D01*
X130263096Y-30504580D01*
X130263206Y-30502782D01*
X130263286Y-30480000D01*
X130244199Y-30127567D01*
X130187161Y-29779257D01*
X130092839Y-29439145D01*
X130089849Y-29431630D01*
X129963597Y-29114372D01*
X129962338Y-29111208D01*
X129797182Y-28799283D01*
X129790579Y-28789530D01*
X129601211Y-28509834D01*
X129601204Y-28509825D01*
X129599305Y-28507020D01*
X129597109Y-28504430D01*
X129597104Y-28504424D01*
X129508715Y-28400201D01*
X129371021Y-28237837D01*
X129115001Y-27994883D01*
X129112294Y-27992821D01*
X129112286Y-27992814D01*
X128953809Y-27872088D01*
X128834239Y-27781000D01*
X128532020Y-27598689D01*
X128528930Y-27597255D01*
X128528925Y-27597252D01*
X128371950Y-27524387D01*
X128211879Y-27450085D01*
X128208654Y-27448993D01*
X128208648Y-27448991D01*
X127880798Y-27338020D01*
X127880793Y-27338018D01*
X127877562Y-27336925D01*
X127863832Y-27333881D01*
X127794730Y-27318562D01*
X127532979Y-27260533D01*
X127408353Y-27246774D01*
X127185543Y-27222175D01*
X127185538Y-27222175D01*
X127182162Y-27221802D01*
X127178763Y-27221796D01*
X127178762Y-27221796D01*
X127012289Y-27221506D01*
X126829213Y-27221186D01*
X126698206Y-27235187D01*
X126481646Y-27258330D01*
X126481640Y-27258331D01*
X126478262Y-27258692D01*
X126133414Y-27333881D01*
X125798704Y-27445873D01*
X125478047Y-27593359D01*
X125175194Y-27774613D01*
X124893687Y-27987515D01*
X124636820Y-28229574D01*
X124407598Y-28497959D01*
X124208702Y-28789530D01*
X124042458Y-29100876D01*
X124041183Y-29104048D01*
X124041181Y-29104052D01*
X124037033Y-29114372D01*
X123910813Y-29428355D01*
X123815304Y-29768136D01*
X123814743Y-29771489D01*
X123814742Y-29771493D01*
X123757614Y-30112880D01*
X123757051Y-30116245D01*
X123736734Y-30468609D01*
X33742669Y-30468609D01*
X33724199Y-30127567D01*
X33667161Y-29779257D01*
X33572839Y-29439145D01*
X33569849Y-29431630D01*
X33443597Y-29114372D01*
X33442338Y-29111208D01*
X33277182Y-28799283D01*
X33270579Y-28789530D01*
X33081211Y-28509834D01*
X33081204Y-28509825D01*
X33079305Y-28507020D01*
X33077109Y-28504430D01*
X33077104Y-28504424D01*
X32988715Y-28400201D01*
X32851021Y-28237837D01*
X32595001Y-27994883D01*
X32592294Y-27992821D01*
X32592286Y-27992814D01*
X32433809Y-27872088D01*
X32314239Y-27781000D01*
X32012020Y-27598689D01*
X32008930Y-27597255D01*
X32008925Y-27597252D01*
X31851950Y-27524387D01*
X31691879Y-27450085D01*
X31688654Y-27448993D01*
X31688648Y-27448991D01*
X31360798Y-27338020D01*
X31360793Y-27338018D01*
X31357562Y-27336925D01*
X31343832Y-27333881D01*
X31274730Y-27318562D01*
X31012979Y-27260533D01*
X30888353Y-27246774D01*
X30665543Y-27222175D01*
X30665538Y-27222175D01*
X30662162Y-27221802D01*
X30658763Y-27221796D01*
X30658762Y-27221796D01*
X30492289Y-27221506D01*
X30309213Y-27221186D01*
X30178206Y-27235187D01*
X29961646Y-27258330D01*
X29961640Y-27258331D01*
X29958262Y-27258692D01*
X29613414Y-27333881D01*
X29278704Y-27445873D01*
X28958047Y-27593359D01*
X28655194Y-27774613D01*
X28373687Y-27987515D01*
X28116820Y-28229574D01*
X27887598Y-28497959D01*
X27688702Y-28789530D01*
X27522458Y-29100876D01*
X27521183Y-29104048D01*
X27521181Y-29104052D01*
X27517033Y-29114372D01*
X27390813Y-29428355D01*
X27295304Y-29768136D01*
X27294743Y-29771489D01*
X27294742Y-29771493D01*
X27237614Y-30112880D01*
X27237051Y-30116245D01*
X27216734Y-30468609D01*
X25908500Y-30468609D01*
X25908500Y-26034500D01*
X25928502Y-25966379D01*
X25982158Y-25919886D01*
X26034500Y-25908500D01*
X147701500Y-25908500D01*
X147769621Y-25928502D01*
G37*
%TD.AperFunction*%
%TD*%
M02*
