%TF.GenerationSoftware,KiCad,Pcbnew,(6.0.4)*%
%TF.CreationDate,2022-04-22T11:51:34+02:00*%
%TF.ProjectId,ECM_Preamp,45434d5f-5072-4656-916d-702e6b696361,rev?*%
%TF.SameCoordinates,Original*%
%TF.FileFunction,Legend,Top*%
%TF.FilePolarity,Positive*%
%FSLAX46Y46*%
G04 Gerber Fmt 4.6, Leading zero omitted, Abs format (unit mm)*
G04 Created by KiCad (PCBNEW (6.0.4)) date 2022-04-22 11:51:34*
%MOMM*%
%LPD*%
G01*
G04 APERTURE LIST*
%ADD10C,0.150000*%
%ADD11C,0.120000*%
G04 APERTURE END LIST*
D10*
%TO.C,R3*%
X64603333Y-39202380D02*
X64270000Y-38726190D01*
X64031904Y-39202380D02*
X64031904Y-38202380D01*
X64412857Y-38202380D01*
X64508095Y-38250000D01*
X64555714Y-38297619D01*
X64603333Y-38392857D01*
X64603333Y-38535714D01*
X64555714Y-38630952D01*
X64508095Y-38678571D01*
X64412857Y-38726190D01*
X64031904Y-38726190D01*
X64936666Y-38202380D02*
X65555714Y-38202380D01*
X65222380Y-38583333D01*
X65365238Y-38583333D01*
X65460476Y-38630952D01*
X65508095Y-38678571D01*
X65555714Y-38773809D01*
X65555714Y-39011904D01*
X65508095Y-39107142D01*
X65460476Y-39154761D01*
X65365238Y-39202380D01*
X65079523Y-39202380D01*
X64984285Y-39154761D01*
X64936666Y-39107142D01*
%TO.C,C4*%
X69728221Y-45502142D02*
X69680602Y-45549761D01*
X69537745Y-45597380D01*
X69442507Y-45597380D01*
X69299649Y-45549761D01*
X69204411Y-45454523D01*
X69156792Y-45359285D01*
X69109173Y-45168809D01*
X69109173Y-45025952D01*
X69156792Y-44835476D01*
X69204411Y-44740238D01*
X69299649Y-44645000D01*
X69442507Y-44597380D01*
X69537745Y-44597380D01*
X69680602Y-44645000D01*
X69728221Y-44692619D01*
X70585364Y-44930714D02*
X70585364Y-45597380D01*
X70347268Y-44549761D02*
X70109173Y-45264047D01*
X70728221Y-45264047D01*
%TO.C,D1*%
X50052380Y-33758095D02*
X49052380Y-33758095D01*
X49052380Y-33520000D01*
X49100000Y-33377142D01*
X49195238Y-33281904D01*
X49290476Y-33234285D01*
X49480952Y-33186666D01*
X49623809Y-33186666D01*
X49814285Y-33234285D01*
X49909523Y-33281904D01*
X50004761Y-33377142D01*
X50052380Y-33520000D01*
X50052380Y-33758095D01*
X50052380Y-32234285D02*
X50052380Y-32805714D01*
X50052380Y-32520000D02*
X49052380Y-32520000D01*
X49195238Y-32615238D01*
X49290476Y-32710476D01*
X49338095Y-32805714D01*
X50622380Y-37091904D02*
X49622380Y-37091904D01*
X50622380Y-36520476D02*
X50050952Y-36949047D01*
X49622380Y-36520476D02*
X50193809Y-37091904D01*
%TO.C,R4*%
X63333333Y-44902380D02*
X63000000Y-44426190D01*
X62761904Y-44902380D02*
X62761904Y-43902380D01*
X63142857Y-43902380D01*
X63238095Y-43950000D01*
X63285714Y-43997619D01*
X63333333Y-44092857D01*
X63333333Y-44235714D01*
X63285714Y-44330952D01*
X63238095Y-44378571D01*
X63142857Y-44426190D01*
X62761904Y-44426190D01*
X64190476Y-44235714D02*
X64190476Y-44902380D01*
X63952380Y-43854761D02*
X63714285Y-44569047D01*
X64333333Y-44569047D01*
%TO.C,C1*%
X41723333Y-42327142D02*
X41675714Y-42374761D01*
X41532857Y-42422380D01*
X41437619Y-42422380D01*
X41294761Y-42374761D01*
X41199523Y-42279523D01*
X41151904Y-42184285D01*
X41104285Y-41993809D01*
X41104285Y-41850952D01*
X41151904Y-41660476D01*
X41199523Y-41565238D01*
X41294761Y-41470000D01*
X41437619Y-41422380D01*
X41532857Y-41422380D01*
X41675714Y-41470000D01*
X41723333Y-41517619D01*
X42675714Y-42422380D02*
X42104285Y-42422380D01*
X42390000Y-42422380D02*
X42390000Y-41422380D01*
X42294761Y-41565238D01*
X42199523Y-41660476D01*
X42104285Y-41708095D01*
%TO.C,SW1*%
X53949761Y-62283333D02*
X53997380Y-62140476D01*
X53997380Y-61902380D01*
X53949761Y-61807142D01*
X53902142Y-61759523D01*
X53806904Y-61711904D01*
X53711666Y-61711904D01*
X53616428Y-61759523D01*
X53568809Y-61807142D01*
X53521190Y-61902380D01*
X53473571Y-62092857D01*
X53425952Y-62188095D01*
X53378333Y-62235714D01*
X53283095Y-62283333D01*
X53187857Y-62283333D01*
X53092619Y-62235714D01*
X53045000Y-62188095D01*
X52997380Y-62092857D01*
X52997380Y-61854761D01*
X53045000Y-61711904D01*
X52997380Y-61378571D02*
X53997380Y-61140476D01*
X53283095Y-60950000D01*
X53997380Y-60759523D01*
X52997380Y-60521428D01*
X53997380Y-59616666D02*
X53997380Y-60188095D01*
X53997380Y-59902380D02*
X52997380Y-59902380D01*
X53140238Y-59997619D01*
X53235476Y-60092857D01*
X53283095Y-60188095D01*
%TO.C,J1*%
X32686666Y-40422380D02*
X32686666Y-41136666D01*
X32639047Y-41279523D01*
X32543809Y-41374761D01*
X32400952Y-41422380D01*
X32305714Y-41422380D01*
X33686666Y-41422380D02*
X33115238Y-41422380D01*
X33400952Y-41422380D02*
X33400952Y-40422380D01*
X33305714Y-40565238D01*
X33210476Y-40660476D01*
X33115238Y-40708095D01*
%TO.C,D2*%
X53672380Y-43918095D02*
X52672380Y-43918095D01*
X52672380Y-43680000D01*
X52720000Y-43537142D01*
X52815238Y-43441904D01*
X52910476Y-43394285D01*
X53100952Y-43346666D01*
X53243809Y-43346666D01*
X53434285Y-43394285D01*
X53529523Y-43441904D01*
X53624761Y-43537142D01*
X53672380Y-43680000D01*
X53672380Y-43918095D01*
X52767619Y-42965714D02*
X52720000Y-42918095D01*
X52672380Y-42822857D01*
X52672380Y-42584761D01*
X52720000Y-42489523D01*
X52767619Y-42441904D01*
X52862857Y-42394285D01*
X52958095Y-42394285D01*
X53100952Y-42441904D01*
X53672380Y-43013333D01*
X53672380Y-42394285D01*
X53252380Y-40901904D02*
X52252380Y-40901904D01*
X53252380Y-40330476D02*
X52680952Y-40759047D01*
X52252380Y-40330476D02*
X52823809Y-40901904D01*
%TO.C,Q1*%
X58324761Y-45247619D02*
X58229523Y-45200000D01*
X58134285Y-45104761D01*
X57991428Y-44961904D01*
X57896190Y-44914285D01*
X57800952Y-44914285D01*
X57848571Y-45152380D02*
X57753333Y-45104761D01*
X57658095Y-45009523D01*
X57610476Y-44819047D01*
X57610476Y-44485714D01*
X57658095Y-44295238D01*
X57753333Y-44200000D01*
X57848571Y-44152380D01*
X58039047Y-44152380D01*
X58134285Y-44200000D01*
X58229523Y-44295238D01*
X58277142Y-44485714D01*
X58277142Y-44819047D01*
X58229523Y-45009523D01*
X58134285Y-45104761D01*
X58039047Y-45152380D01*
X57848571Y-45152380D01*
X59229523Y-45152380D02*
X58658095Y-45152380D01*
X58943809Y-45152380D02*
X58943809Y-44152380D01*
X58848571Y-44295238D01*
X58753333Y-44390476D01*
X58658095Y-44438095D01*
%TO.C,C5*%
X79253221Y-45502142D02*
X79205602Y-45549761D01*
X79062745Y-45597380D01*
X78967507Y-45597380D01*
X78824649Y-45549761D01*
X78729411Y-45454523D01*
X78681792Y-45359285D01*
X78634173Y-45168809D01*
X78634173Y-45025952D01*
X78681792Y-44835476D01*
X78729411Y-44740238D01*
X78824649Y-44645000D01*
X78967507Y-44597380D01*
X79062745Y-44597380D01*
X79205602Y-44645000D01*
X79253221Y-44692619D01*
X80157983Y-44597380D02*
X79681792Y-44597380D01*
X79634173Y-45073571D01*
X79681792Y-45025952D01*
X79777030Y-44978333D01*
X80015126Y-44978333D01*
X80110364Y-45025952D01*
X80157983Y-45073571D01*
X80205602Y-45168809D01*
X80205602Y-45406904D01*
X80157983Y-45502142D01*
X80110364Y-45549761D01*
X80015126Y-45597380D01*
X79777030Y-45597380D01*
X79681792Y-45549761D01*
X79634173Y-45502142D01*
%TO.C,R1*%
X43013333Y-36632380D02*
X42680000Y-36156190D01*
X42441904Y-36632380D02*
X42441904Y-35632380D01*
X42822857Y-35632380D01*
X42918095Y-35680000D01*
X42965714Y-35727619D01*
X43013333Y-35822857D01*
X43013333Y-35965714D01*
X42965714Y-36060952D01*
X42918095Y-36108571D01*
X42822857Y-36156190D01*
X42441904Y-36156190D01*
X43965714Y-36632380D02*
X43394285Y-36632380D01*
X43680000Y-36632380D02*
X43680000Y-35632380D01*
X43584761Y-35775238D01*
X43489523Y-35870476D01*
X43394285Y-35918095D01*
%TO.C,R7*%
X96353333Y-30917380D02*
X96020000Y-30441190D01*
X95781904Y-30917380D02*
X95781904Y-29917380D01*
X96162857Y-29917380D01*
X96258095Y-29965000D01*
X96305714Y-30012619D01*
X96353333Y-30107857D01*
X96353333Y-30250714D01*
X96305714Y-30345952D01*
X96258095Y-30393571D01*
X96162857Y-30441190D01*
X95781904Y-30441190D01*
X96686666Y-29917380D02*
X97353333Y-29917380D01*
X96924761Y-30917380D01*
%TO.C,C6*%
X76078220Y-37247142D02*
X76030601Y-37294761D01*
X75887744Y-37342380D01*
X75792506Y-37342380D01*
X75649648Y-37294761D01*
X75554410Y-37199523D01*
X75506791Y-37104285D01*
X75459172Y-36913809D01*
X75459172Y-36770952D01*
X75506791Y-36580476D01*
X75554410Y-36485238D01*
X75649648Y-36390000D01*
X75792506Y-36342380D01*
X75887744Y-36342380D01*
X76030601Y-36390000D01*
X76078220Y-36437619D01*
X76935363Y-36342380D02*
X76744887Y-36342380D01*
X76649648Y-36390000D01*
X76602029Y-36437619D01*
X76506791Y-36580476D01*
X76459172Y-36770952D01*
X76459172Y-37151904D01*
X76506791Y-37247142D01*
X76554410Y-37294761D01*
X76649648Y-37342380D01*
X76840125Y-37342380D01*
X76935363Y-37294761D01*
X76982982Y-37247142D01*
X77030601Y-37151904D01*
X77030601Y-36913809D01*
X76982982Y-36818571D01*
X76935363Y-36770952D01*
X76840125Y-36723333D01*
X76649648Y-36723333D01*
X76554410Y-36770952D01*
X76506791Y-36818571D01*
X76459172Y-36913809D01*
%TO.C,C2*%
X56932142Y-31236778D02*
X56979761Y-31284397D01*
X57027380Y-31427254D01*
X57027380Y-31522492D01*
X56979761Y-31665350D01*
X56884523Y-31760588D01*
X56789285Y-31808207D01*
X56598809Y-31855826D01*
X56455952Y-31855826D01*
X56265476Y-31808207D01*
X56170238Y-31760588D01*
X56075000Y-31665350D01*
X56027380Y-31522492D01*
X56027380Y-31427254D01*
X56075000Y-31284397D01*
X56122619Y-31236778D01*
X56122619Y-30855826D02*
X56075000Y-30808207D01*
X56027380Y-30712969D01*
X56027380Y-30474873D01*
X56075000Y-30379635D01*
X56122619Y-30332016D01*
X56217857Y-30284397D01*
X56313095Y-30284397D01*
X56455952Y-30332016D01*
X57027380Y-30903445D01*
X57027380Y-30284397D01*
%TO.C,R5*%
X63333333Y-55712380D02*
X63000000Y-55236190D01*
X62761904Y-55712380D02*
X62761904Y-54712380D01*
X63142857Y-54712380D01*
X63238095Y-54760000D01*
X63285714Y-54807619D01*
X63333333Y-54902857D01*
X63333333Y-55045714D01*
X63285714Y-55140952D01*
X63238095Y-55188571D01*
X63142857Y-55236190D01*
X62761904Y-55236190D01*
X64238095Y-54712380D02*
X63761904Y-54712380D01*
X63714285Y-55188571D01*
X63761904Y-55140952D01*
X63857142Y-55093333D01*
X64095238Y-55093333D01*
X64190476Y-55140952D01*
X64238095Y-55188571D01*
X64285714Y-55283809D01*
X64285714Y-55521904D01*
X64238095Y-55617142D01*
X64190476Y-55664761D01*
X64095238Y-55712380D01*
X63857142Y-55712380D01*
X63761904Y-55664761D01*
X63714285Y-55617142D01*
%TO.C,D4*%
X74826904Y-31637380D02*
X74826904Y-30637380D01*
X75065000Y-30637380D01*
X75207857Y-30685000D01*
X75303095Y-30780238D01*
X75350714Y-30875476D01*
X75398333Y-31065952D01*
X75398333Y-31208809D01*
X75350714Y-31399285D01*
X75303095Y-31494523D01*
X75207857Y-31589761D01*
X75065000Y-31637380D01*
X74826904Y-31637380D01*
X76255476Y-30970714D02*
X76255476Y-31637380D01*
X76017380Y-30589761D02*
X75779285Y-31304047D01*
X76398333Y-31304047D01*
X71493095Y-32207380D02*
X71493095Y-31207380D01*
X72064523Y-32207380D02*
X71635952Y-31635952D01*
X72064523Y-31207380D02*
X71493095Y-31778809D01*
%TO.C,R2*%
X45522380Y-54776666D02*
X45046190Y-55110000D01*
X45522380Y-55348095D02*
X44522380Y-55348095D01*
X44522380Y-54967142D01*
X44570000Y-54871904D01*
X44617619Y-54824285D01*
X44712857Y-54776666D01*
X44855714Y-54776666D01*
X44950952Y-54824285D01*
X44998571Y-54871904D01*
X45046190Y-54967142D01*
X45046190Y-55348095D01*
X44617619Y-54395714D02*
X44570000Y-54348095D01*
X44522380Y-54252857D01*
X44522380Y-54014761D01*
X44570000Y-53919523D01*
X44617619Y-53871904D01*
X44712857Y-53824285D01*
X44808095Y-53824285D01*
X44950952Y-53871904D01*
X45522380Y-54443333D01*
X45522380Y-53824285D01*
%TO.C,TR1*%
X103493095Y-38342380D02*
X104064523Y-38342380D01*
X103778809Y-39342380D02*
X103778809Y-38342380D01*
X104969285Y-39342380D02*
X104635952Y-38866190D01*
X104397857Y-39342380D02*
X104397857Y-38342380D01*
X104778809Y-38342380D01*
X104874047Y-38390000D01*
X104921666Y-38437619D01*
X104969285Y-38532857D01*
X104969285Y-38675714D01*
X104921666Y-38770952D01*
X104874047Y-38818571D01*
X104778809Y-38866190D01*
X104397857Y-38866190D01*
X105921666Y-39342380D02*
X105350238Y-39342380D01*
X105635952Y-39342380D02*
X105635952Y-38342380D01*
X105540714Y-38485238D01*
X105445476Y-38580476D01*
X105350238Y-38628095D01*
%TO.C,D3*%
X53672380Y-54078095D02*
X52672380Y-54078095D01*
X52672380Y-53840000D01*
X52720000Y-53697142D01*
X52815238Y-53601904D01*
X52910476Y-53554285D01*
X53100952Y-53506666D01*
X53243809Y-53506666D01*
X53434285Y-53554285D01*
X53529523Y-53601904D01*
X53624761Y-53697142D01*
X53672380Y-53840000D01*
X53672380Y-54078095D01*
X52672380Y-53173333D02*
X52672380Y-52554285D01*
X53053333Y-52887619D01*
X53053333Y-52744761D01*
X53100952Y-52649523D01*
X53148571Y-52601904D01*
X53243809Y-52554285D01*
X53481904Y-52554285D01*
X53577142Y-52601904D01*
X53624761Y-52649523D01*
X53672380Y-52744761D01*
X53672380Y-53030476D01*
X53624761Y-53125714D01*
X53577142Y-53173333D01*
X53252380Y-51061904D02*
X52252380Y-51061904D01*
X53252380Y-50490476D02*
X52680952Y-50919047D01*
X52252380Y-50490476D02*
X52823809Y-51061904D01*
%TO.C,R8*%
X96353333Y-35362380D02*
X96020000Y-34886190D01*
X95781904Y-35362380D02*
X95781904Y-34362380D01*
X96162857Y-34362380D01*
X96258095Y-34410000D01*
X96305714Y-34457619D01*
X96353333Y-34552857D01*
X96353333Y-34695714D01*
X96305714Y-34790952D01*
X96258095Y-34838571D01*
X96162857Y-34886190D01*
X95781904Y-34886190D01*
X96924761Y-34790952D02*
X96829523Y-34743333D01*
X96781904Y-34695714D01*
X96734285Y-34600476D01*
X96734285Y-34552857D01*
X96781904Y-34457619D01*
X96829523Y-34410000D01*
X96924761Y-34362380D01*
X97115238Y-34362380D01*
X97210476Y-34410000D01*
X97258095Y-34457619D01*
X97305714Y-34552857D01*
X97305714Y-34600476D01*
X97258095Y-34695714D01*
X97210476Y-34743333D01*
X97115238Y-34790952D01*
X96924761Y-34790952D01*
X96829523Y-34838571D01*
X96781904Y-34886190D01*
X96734285Y-34981428D01*
X96734285Y-35171904D01*
X96781904Y-35267142D01*
X96829523Y-35314761D01*
X96924761Y-35362380D01*
X97115238Y-35362380D01*
X97210476Y-35314761D01*
X97258095Y-35267142D01*
X97305714Y-35171904D01*
X97305714Y-34981428D01*
X97258095Y-34886190D01*
X97210476Y-34838571D01*
X97115238Y-34790952D01*
%TO.C,C3*%
X65918221Y-57567142D02*
X65870602Y-57614761D01*
X65727745Y-57662380D01*
X65632507Y-57662380D01*
X65489649Y-57614761D01*
X65394411Y-57519523D01*
X65346792Y-57424285D01*
X65299173Y-57233809D01*
X65299173Y-57090952D01*
X65346792Y-56900476D01*
X65394411Y-56805238D01*
X65489649Y-56710000D01*
X65632507Y-56662380D01*
X65727745Y-56662380D01*
X65870602Y-56710000D01*
X65918221Y-56757619D01*
X66251554Y-56662380D02*
X66870602Y-56662380D01*
X66537268Y-57043333D01*
X66680126Y-57043333D01*
X66775364Y-57090952D01*
X66822983Y-57138571D01*
X66870602Y-57233809D01*
X66870602Y-57471904D01*
X66822983Y-57567142D01*
X66775364Y-57614761D01*
X66680126Y-57662380D01*
X66394411Y-57662380D01*
X66299173Y-57614761D01*
X66251554Y-57567142D01*
%TO.C,R6*%
X86193333Y-34854380D02*
X85860000Y-34378190D01*
X85621904Y-34854380D02*
X85621904Y-33854380D01*
X86002857Y-33854380D01*
X86098095Y-33902000D01*
X86145714Y-33949619D01*
X86193333Y-34044857D01*
X86193333Y-34187714D01*
X86145714Y-34282952D01*
X86098095Y-34330571D01*
X86002857Y-34378190D01*
X85621904Y-34378190D01*
X87050476Y-33854380D02*
X86860000Y-33854380D01*
X86764761Y-33902000D01*
X86717142Y-33949619D01*
X86621904Y-34092476D01*
X86574285Y-34282952D01*
X86574285Y-34663904D01*
X86621904Y-34759142D01*
X86669523Y-34806761D01*
X86764761Y-34854380D01*
X86955238Y-34854380D01*
X87050476Y-34806761D01*
X87098095Y-34759142D01*
X87145714Y-34663904D01*
X87145714Y-34425809D01*
X87098095Y-34330571D01*
X87050476Y-34282952D01*
X86955238Y-34235333D01*
X86764761Y-34235333D01*
X86669523Y-34282952D01*
X86621904Y-34330571D01*
X86574285Y-34425809D01*
%TO.C,J2*%
X140001666Y-31997380D02*
X140001666Y-32711666D01*
X139954047Y-32854523D01*
X139858809Y-32949761D01*
X139715952Y-32997380D01*
X139620714Y-32997380D01*
X140430238Y-32092619D02*
X140477857Y-32045000D01*
X140573095Y-31997380D01*
X140811190Y-31997380D01*
X140906428Y-32045000D01*
X140954047Y-32092619D01*
X141001666Y-32187857D01*
X141001666Y-32283095D01*
X140954047Y-32425952D01*
X140382619Y-32997380D01*
X141001666Y-32997380D01*
D11*
%TO.C,R3*%
X66690000Y-35910000D02*
X62850000Y-35910000D01*
X62850000Y-35910000D02*
X62850000Y-37750000D01*
X61900000Y-36830000D02*
X62850000Y-36830000D01*
X67640000Y-36830000D02*
X66690000Y-36830000D01*
X62850000Y-37750000D02*
X66690000Y-37750000D01*
X66690000Y-37750000D02*
X66690000Y-35910000D01*
%TO.C,C4*%
X70815888Y-46481000D02*
X70815888Y-47855000D01*
X71895888Y-47242000D02*
X71895888Y-47855000D01*
X70695888Y-46440000D02*
X70695888Y-47855000D01*
X71455888Y-49935000D02*
X71455888Y-50960000D01*
X72415888Y-48218000D02*
X72415888Y-49572000D01*
X71615888Y-46958000D02*
X71615888Y-47855000D01*
X70094888Y-46322000D02*
X70094888Y-51468000D01*
X70014888Y-46317000D02*
X70014888Y-51473000D01*
X70975888Y-49935000D02*
X70975888Y-51243000D01*
X70334888Y-46352000D02*
X70334888Y-47855000D01*
X71135888Y-49935000D02*
X71135888Y-51163000D01*
X70775888Y-49935000D02*
X70775888Y-51323000D01*
X70855888Y-46497000D02*
X70855888Y-47855000D01*
X71855888Y-47196000D02*
X71855888Y-47855000D01*
X67090113Y-47420000D02*
X67590113Y-47420000D01*
X72055888Y-49935000D02*
X72055888Y-50338000D01*
X71215888Y-49935000D02*
X71215888Y-51119000D01*
X71695888Y-47031000D02*
X71695888Y-47855000D01*
X71495888Y-46860000D02*
X71495888Y-47855000D01*
X72055888Y-47452000D02*
X72055888Y-47855000D01*
X71735888Y-49935000D02*
X71735888Y-50721000D01*
X70494888Y-49935000D02*
X70494888Y-51406000D01*
X70735888Y-46453000D02*
X70735888Y-47855000D01*
X72095888Y-49935000D02*
X72095888Y-50278000D01*
X71975888Y-47341000D02*
X71975888Y-47855000D01*
X72215888Y-47717000D02*
X72215888Y-50073000D01*
X71575888Y-49935000D02*
X71575888Y-50866000D01*
X70815888Y-49935000D02*
X70815888Y-51309000D01*
X72495888Y-48611000D02*
X72495888Y-49179000D01*
X70294888Y-46345000D02*
X70294888Y-47855000D01*
X70454888Y-49935000D02*
X70454888Y-51415000D01*
X70615888Y-46415000D02*
X70615888Y-47855000D01*
X71815888Y-47152000D02*
X71815888Y-47855000D01*
X71055888Y-49935000D02*
X71055888Y-51205000D01*
X70855888Y-49935000D02*
X70855888Y-51293000D01*
X72175888Y-49935000D02*
X72175888Y-50146000D01*
X67340113Y-47170000D02*
X67340113Y-47670000D01*
X70174888Y-49935000D02*
X70174888Y-51460000D01*
X71935888Y-47290000D02*
X71935888Y-47855000D01*
X72375888Y-48090000D02*
X72375888Y-49700000D01*
X71775888Y-49935000D02*
X71775888Y-50680000D01*
X72455888Y-48377000D02*
X72455888Y-49413000D01*
X70895888Y-46513000D02*
X70895888Y-47855000D01*
X71975888Y-49935000D02*
X71975888Y-50449000D01*
X71015888Y-49935000D02*
X71015888Y-51224000D01*
X71735888Y-47069000D02*
X71735888Y-47855000D01*
X72095888Y-47512000D02*
X72095888Y-47855000D01*
X72015888Y-49935000D02*
X72015888Y-50395000D01*
X70494888Y-46384000D02*
X70494888Y-47855000D01*
X70615888Y-49935000D02*
X70615888Y-51375000D01*
X71295888Y-46720000D02*
X71295888Y-47855000D01*
X70695888Y-49935000D02*
X70695888Y-51350000D01*
X72135888Y-47576000D02*
X72135888Y-47855000D01*
X71135888Y-46627000D02*
X71135888Y-47855000D01*
X71655888Y-46994000D02*
X71655888Y-47855000D01*
X71375888Y-46773000D02*
X71375888Y-47855000D01*
X70254888Y-46339000D02*
X70254888Y-47855000D01*
X71695888Y-49935000D02*
X71695888Y-50759000D01*
X72175888Y-47644000D02*
X72175888Y-47855000D01*
X70254888Y-49935000D02*
X70254888Y-51451000D01*
X70655888Y-49935000D02*
X70655888Y-51363000D01*
X70174888Y-46330000D02*
X70174888Y-47855000D01*
X71415888Y-46800000D02*
X71415888Y-47855000D01*
X70054888Y-46319000D02*
X70054888Y-51471000D01*
X71255888Y-49935000D02*
X71255888Y-51095000D01*
X71855888Y-49935000D02*
X71855888Y-50594000D01*
X71095888Y-46605000D02*
X71095888Y-47855000D01*
X70334888Y-49935000D02*
X70334888Y-51438000D01*
X70454888Y-46375000D02*
X70454888Y-47855000D01*
X71215888Y-46671000D02*
X71215888Y-47855000D01*
X72015888Y-47395000D02*
X72015888Y-47855000D01*
X71615888Y-49935000D02*
X71615888Y-50832000D01*
X71455888Y-46830000D02*
X71455888Y-47855000D01*
X71335888Y-49935000D02*
X71335888Y-51044000D01*
X71935888Y-49935000D02*
X71935888Y-50500000D01*
X70935888Y-49935000D02*
X70935888Y-51260000D01*
X71815888Y-49935000D02*
X71815888Y-50638000D01*
X70134888Y-46326000D02*
X70134888Y-47855000D01*
X71535888Y-49935000D02*
X71535888Y-50899000D01*
X70895888Y-49935000D02*
X70895888Y-51277000D01*
X70134888Y-49935000D02*
X70134888Y-51464000D01*
X71655888Y-49935000D02*
X71655888Y-50796000D01*
X71415888Y-49935000D02*
X71415888Y-50990000D01*
X70655888Y-46427000D02*
X70655888Y-47855000D01*
X71335888Y-46746000D02*
X71335888Y-47855000D01*
X70534888Y-46394000D02*
X70534888Y-47855000D01*
X71015888Y-46566000D02*
X71015888Y-47855000D01*
X69974888Y-46316000D02*
X69974888Y-51474000D01*
X71375888Y-49935000D02*
X71375888Y-51017000D01*
X70414888Y-49935000D02*
X70414888Y-51423000D01*
X71295888Y-49935000D02*
X71295888Y-51070000D01*
X71175888Y-49935000D02*
X71175888Y-51142000D01*
X70414888Y-46367000D02*
X70414888Y-47855000D01*
X70534888Y-49935000D02*
X70534888Y-51396000D01*
X72295888Y-47884000D02*
X72295888Y-49906000D01*
X70374888Y-46359000D02*
X70374888Y-47855000D01*
X71255888Y-46695000D02*
X71255888Y-47855000D01*
X70574888Y-46404000D02*
X70574888Y-47855000D01*
X70935888Y-46530000D02*
X70935888Y-47855000D01*
X71495888Y-49935000D02*
X71495888Y-50930000D01*
X70214888Y-49935000D02*
X70214888Y-51456000D01*
X70775888Y-46467000D02*
X70775888Y-47855000D01*
X70975888Y-46547000D02*
X70975888Y-47855000D01*
X71055888Y-46585000D02*
X71055888Y-47855000D01*
X71175888Y-46648000D02*
X71175888Y-47855000D01*
X71895888Y-49935000D02*
X71895888Y-50548000D01*
X71575888Y-46924000D02*
X71575888Y-47855000D01*
X71095888Y-49935000D02*
X71095888Y-51185000D01*
X70735888Y-49935000D02*
X70735888Y-51337000D01*
X72335888Y-47980000D02*
X72335888Y-49810000D01*
X70294888Y-49935000D02*
X70294888Y-51445000D01*
X69894888Y-46315000D02*
X69894888Y-51475000D01*
X71775888Y-47110000D02*
X71775888Y-47855000D01*
X69934888Y-46315000D02*
X69934888Y-51475000D01*
X70574888Y-49935000D02*
X70574888Y-51386000D01*
X70374888Y-49935000D02*
X70374888Y-51431000D01*
X71535888Y-46891000D02*
X71535888Y-47855000D01*
X72255888Y-47797000D02*
X72255888Y-49993000D01*
X70214888Y-46334000D02*
X70214888Y-47855000D01*
X72135888Y-49935000D02*
X72135888Y-50214000D01*
X72514888Y-48895000D02*
G75*
G03*
X72514888Y-48895000I-2620000J0D01*
G01*
%TO.C,D1*%
X53540000Y-30300000D02*
X53210000Y-30300000D01*
X53210000Y-35740000D02*
X53540000Y-35740000D01*
X50930000Y-35740000D02*
X50600000Y-35740000D01*
X50600000Y-34720000D02*
X53540000Y-34720000D01*
X50600000Y-35740000D02*
X50600000Y-30300000D01*
X50600000Y-34960000D02*
X53540000Y-34960000D01*
X50600000Y-34840000D02*
X53540000Y-34840000D01*
X50600000Y-30300000D02*
X50930000Y-30300000D01*
X53540000Y-35740000D02*
X53540000Y-30300000D01*
%TO.C,R4*%
X65420000Y-43465000D02*
X65420000Y-41625000D01*
X65420000Y-41625000D02*
X61580000Y-41625000D01*
X60630000Y-42545000D02*
X61580000Y-42545000D01*
X61580000Y-41625000D02*
X61580000Y-43465000D01*
X66370000Y-42545000D02*
X65420000Y-42545000D01*
X61580000Y-43465000D02*
X65420000Y-43465000D01*
%TO.C,C1*%
X42330000Y-46760000D02*
X42330000Y-48263000D01*
X43091000Y-46760000D02*
X43091000Y-48010000D01*
X43371000Y-43598000D02*
X43371000Y-44680000D01*
X43171000Y-46760000D02*
X43171000Y-47967000D01*
X41930000Y-43140000D02*
X41930000Y-48300000D01*
X43691000Y-46760000D02*
X43691000Y-47584000D01*
X42851000Y-43322000D02*
X42851000Y-44680000D01*
X43251000Y-46760000D02*
X43251000Y-47920000D01*
X39085225Y-44245000D02*
X39585225Y-44245000D01*
X43331000Y-46760000D02*
X43331000Y-47869000D01*
X43251000Y-43520000D02*
X43251000Y-44680000D01*
X42971000Y-43372000D02*
X42971000Y-44680000D01*
X42731000Y-46760000D02*
X42731000Y-48162000D01*
X44131000Y-46760000D02*
X44131000Y-47039000D01*
X42530000Y-43219000D02*
X42530000Y-44680000D01*
X44011000Y-44220000D02*
X44011000Y-44680000D01*
X43491000Y-46760000D02*
X43491000Y-47755000D01*
X43571000Y-43749000D02*
X43571000Y-44680000D01*
X44371000Y-44915000D02*
X44371000Y-46525000D01*
X42611000Y-43240000D02*
X42611000Y-44680000D01*
X42250000Y-46760000D02*
X42250000Y-48276000D01*
X42811000Y-46760000D02*
X42811000Y-48134000D01*
X43851000Y-44021000D02*
X43851000Y-44680000D01*
X43371000Y-46760000D02*
X43371000Y-47842000D01*
X43011000Y-43391000D02*
X43011000Y-44680000D01*
X43411000Y-46760000D02*
X43411000Y-47815000D01*
X42971000Y-46760000D02*
X42971000Y-48068000D01*
X39335225Y-43995000D02*
X39335225Y-44495000D01*
X44251000Y-44622000D02*
X44251000Y-46818000D01*
X43891000Y-44067000D02*
X43891000Y-44680000D01*
X42450000Y-43200000D02*
X42450000Y-44680000D01*
X42450000Y-46760000D02*
X42450000Y-48240000D01*
X43851000Y-46760000D02*
X43851000Y-47419000D01*
X43771000Y-43935000D02*
X43771000Y-44680000D01*
X41970000Y-43141000D02*
X41970000Y-48299000D01*
X42771000Y-43292000D02*
X42771000Y-44680000D01*
X43291000Y-46760000D02*
X43291000Y-47895000D01*
X43131000Y-43452000D02*
X43131000Y-44680000D01*
X42691000Y-43265000D02*
X42691000Y-44680000D01*
X42651000Y-43252000D02*
X42651000Y-44680000D01*
X42611000Y-46760000D02*
X42611000Y-48200000D01*
X43771000Y-46760000D02*
X43771000Y-47505000D01*
X42570000Y-43229000D02*
X42570000Y-44680000D01*
X42931000Y-46760000D02*
X42931000Y-48085000D01*
X43291000Y-43545000D02*
X43291000Y-44680000D01*
X42290000Y-43170000D02*
X42290000Y-44680000D01*
X43491000Y-43685000D02*
X43491000Y-44680000D01*
X42330000Y-43177000D02*
X42330000Y-44680000D01*
X43891000Y-46760000D02*
X43891000Y-47373000D01*
X44131000Y-44401000D02*
X44131000Y-44680000D01*
X42090000Y-43147000D02*
X42090000Y-48293000D01*
X42530000Y-46760000D02*
X42530000Y-48221000D01*
X42290000Y-46760000D02*
X42290000Y-48270000D01*
X42570000Y-46760000D02*
X42570000Y-48211000D01*
X42130000Y-46760000D02*
X42130000Y-48289000D01*
X43051000Y-43410000D02*
X43051000Y-44680000D01*
X43651000Y-46760000D02*
X43651000Y-47621000D01*
X44171000Y-46760000D02*
X44171000Y-46971000D01*
X43611000Y-46760000D02*
X43611000Y-47657000D01*
X42370000Y-43184000D02*
X42370000Y-44680000D01*
X43211000Y-46760000D02*
X43211000Y-47944000D01*
X42210000Y-43159000D02*
X42210000Y-44680000D01*
X43931000Y-44115000D02*
X43931000Y-44680000D01*
X43451000Y-46760000D02*
X43451000Y-47785000D01*
X43411000Y-43625000D02*
X43411000Y-44680000D01*
X42170000Y-46760000D02*
X42170000Y-48285000D01*
X42731000Y-43278000D02*
X42731000Y-44680000D01*
X42811000Y-43306000D02*
X42811000Y-44680000D01*
X43451000Y-43655000D02*
X43451000Y-44680000D01*
X43731000Y-46760000D02*
X43731000Y-47546000D01*
X43051000Y-46760000D02*
X43051000Y-48030000D01*
X42891000Y-46760000D02*
X42891000Y-48102000D01*
X43091000Y-43430000D02*
X43091000Y-44680000D01*
X43531000Y-43716000D02*
X43531000Y-44680000D01*
X43571000Y-46760000D02*
X43571000Y-47691000D01*
X44051000Y-44277000D02*
X44051000Y-44680000D01*
X42691000Y-46760000D02*
X42691000Y-48175000D01*
X43331000Y-43571000D02*
X43331000Y-44680000D01*
X42931000Y-43355000D02*
X42931000Y-44680000D01*
X43531000Y-46760000D02*
X43531000Y-47724000D01*
X42370000Y-46760000D02*
X42370000Y-48256000D01*
X43971000Y-46760000D02*
X43971000Y-47274000D01*
X42851000Y-46760000D02*
X42851000Y-48118000D01*
X42010000Y-43142000D02*
X42010000Y-48298000D01*
X43011000Y-46760000D02*
X43011000Y-48049000D01*
X44291000Y-44709000D02*
X44291000Y-46731000D01*
X44411000Y-45043000D02*
X44411000Y-46397000D01*
X43171000Y-43473000D02*
X43171000Y-44680000D01*
X44091000Y-44337000D02*
X44091000Y-44680000D01*
X42170000Y-43155000D02*
X42170000Y-44680000D01*
X44491000Y-45436000D02*
X44491000Y-46004000D01*
X43211000Y-43496000D02*
X43211000Y-44680000D01*
X42771000Y-46760000D02*
X42771000Y-48148000D01*
X44091000Y-46760000D02*
X44091000Y-47103000D01*
X42410000Y-43192000D02*
X42410000Y-44680000D01*
X42410000Y-46760000D02*
X42410000Y-48248000D01*
X44331000Y-44805000D02*
X44331000Y-46635000D01*
X42490000Y-43209000D02*
X42490000Y-44680000D01*
X44051000Y-46760000D02*
X44051000Y-47163000D01*
X41890000Y-43140000D02*
X41890000Y-48300000D01*
X42891000Y-43338000D02*
X42891000Y-44680000D01*
X42250000Y-43164000D02*
X42250000Y-44680000D01*
X42050000Y-43144000D02*
X42050000Y-48296000D01*
X44011000Y-46760000D02*
X44011000Y-47220000D01*
X44451000Y-45202000D02*
X44451000Y-46238000D01*
X43731000Y-43894000D02*
X43731000Y-44680000D01*
X43691000Y-43856000D02*
X43691000Y-44680000D01*
X42130000Y-43151000D02*
X42130000Y-44680000D01*
X43811000Y-46760000D02*
X43811000Y-47463000D01*
X43611000Y-43783000D02*
X43611000Y-44680000D01*
X42651000Y-46760000D02*
X42651000Y-48188000D01*
X43651000Y-43819000D02*
X43651000Y-44680000D01*
X43931000Y-46760000D02*
X43931000Y-47325000D01*
X44171000Y-44469000D02*
X44171000Y-44680000D01*
X43811000Y-43977000D02*
X43811000Y-44680000D01*
X42490000Y-46760000D02*
X42490000Y-48231000D01*
X44211000Y-44542000D02*
X44211000Y-46898000D01*
X43131000Y-46760000D02*
X43131000Y-47988000D01*
X43971000Y-44166000D02*
X43971000Y-44680000D01*
X42210000Y-46760000D02*
X42210000Y-48281000D01*
X44510000Y-45720000D02*
G75*
G03*
X44510000Y-45720000I-2620000J0D01*
G01*
%TO.C,SW1*%
X59745000Y-58300000D02*
X54545000Y-58300000D01*
X59745000Y-63600000D02*
X59745000Y-58300000D01*
X54545000Y-63600000D02*
X59745000Y-63600000D01*
X54545000Y-58300000D02*
X54545000Y-59950000D01*
X54545000Y-61950000D02*
X54545000Y-63600000D01*
X54545000Y-61950000D02*
G75*
G03*
X54545000Y-59950000I0J1000000D01*
G01*
%TO.C,J1*%
X31220000Y-42040000D02*
X34820000Y-42040000D01*
X31220000Y-49400000D02*
X34820000Y-49400000D01*
X36700000Y-43920000D02*
X36700000Y-47520000D01*
X29340000Y-43920000D02*
X29340000Y-47520000D01*
%TO.C,D2*%
X49380000Y-41460000D02*
X49380000Y-44900000D01*
X52040000Y-41460000D02*
X52220000Y-41460000D01*
X52220000Y-42060000D02*
X49380000Y-42060000D01*
X52220000Y-42180000D02*
X49380000Y-42180000D01*
X52220000Y-44900000D02*
X52040000Y-44900000D01*
X49380000Y-44900000D02*
X49560000Y-44900000D01*
X49560000Y-41460000D02*
X49380000Y-41460000D01*
X52220000Y-41460000D02*
X52220000Y-44900000D01*
X52220000Y-41940000D02*
X49380000Y-41940000D01*
%TO.C,Q1*%
X56620000Y-50110000D02*
X60220000Y-50110000D01*
X58420000Y-45659999D02*
G75*
G03*
X56581522Y-50098478I0J-2600001D01*
G01*
X60258478Y-50098478D02*
G75*
G03*
X58420000Y-45660000I-1838478J1838478D01*
G01*
%TO.C,C5*%
X80780888Y-49935000D02*
X80780888Y-51095000D01*
X80580888Y-46585000D02*
X80580888Y-47855000D01*
X81060888Y-49935000D02*
X81060888Y-50899000D01*
X81300888Y-49935000D02*
X81300888Y-50680000D01*
X80660888Y-49935000D02*
X80660888Y-51163000D01*
X80300888Y-49935000D02*
X80300888Y-51323000D01*
X81820888Y-47884000D02*
X81820888Y-49906000D01*
X79859888Y-46352000D02*
X79859888Y-47855000D01*
X80019888Y-49935000D02*
X80019888Y-51406000D01*
X80260888Y-49935000D02*
X80260888Y-51337000D01*
X79819888Y-49935000D02*
X79819888Y-51445000D01*
X76615113Y-47420000D02*
X77115113Y-47420000D01*
X81380888Y-49935000D02*
X81380888Y-50594000D01*
X81060888Y-46891000D02*
X81060888Y-47855000D01*
X81620888Y-47512000D02*
X81620888Y-47855000D01*
X81860888Y-47980000D02*
X81860888Y-49810000D01*
X81900888Y-48090000D02*
X81900888Y-49700000D01*
X81500888Y-47341000D02*
X81500888Y-47855000D01*
X80620888Y-46605000D02*
X80620888Y-47855000D01*
X81140888Y-46958000D02*
X81140888Y-47855000D01*
X81700888Y-49935000D02*
X81700888Y-50146000D01*
X81540888Y-47395000D02*
X81540888Y-47855000D01*
X81460888Y-49935000D02*
X81460888Y-50500000D01*
X80940888Y-49935000D02*
X80940888Y-50990000D01*
X80740888Y-46671000D02*
X80740888Y-47855000D01*
X81180888Y-49935000D02*
X81180888Y-50796000D01*
X82020888Y-48611000D02*
X82020888Y-49179000D01*
X80059888Y-49935000D02*
X80059888Y-51396000D01*
X81660888Y-47576000D02*
X81660888Y-47855000D01*
X80260888Y-46453000D02*
X80260888Y-47855000D01*
X80140888Y-46415000D02*
X80140888Y-47855000D01*
X80300888Y-46467000D02*
X80300888Y-47855000D01*
X81700888Y-47644000D02*
X81700888Y-47855000D01*
X79819888Y-46345000D02*
X79819888Y-47855000D01*
X80980888Y-46830000D02*
X80980888Y-47855000D01*
X79859888Y-49935000D02*
X79859888Y-51438000D01*
X80700888Y-46648000D02*
X80700888Y-47855000D01*
X81420888Y-49935000D02*
X81420888Y-50548000D01*
X81540888Y-49935000D02*
X81540888Y-50395000D01*
X80460888Y-46530000D02*
X80460888Y-47855000D01*
X79779888Y-46339000D02*
X79779888Y-47855000D01*
X79499888Y-46316000D02*
X79499888Y-51474000D01*
X80580888Y-49935000D02*
X80580888Y-51205000D01*
X80019888Y-46384000D02*
X80019888Y-47855000D01*
X79779888Y-49935000D02*
X79779888Y-51451000D01*
X79539888Y-46317000D02*
X79539888Y-51473000D01*
X80460888Y-49935000D02*
X80460888Y-51260000D01*
X80860888Y-46746000D02*
X80860888Y-47855000D01*
X80860888Y-49935000D02*
X80860888Y-51044000D01*
X81780888Y-47797000D02*
X81780888Y-49993000D01*
X80420888Y-46513000D02*
X80420888Y-47855000D01*
X81580888Y-47452000D02*
X81580888Y-47855000D01*
X80220888Y-46440000D02*
X80220888Y-47855000D01*
X80940888Y-46800000D02*
X80940888Y-47855000D01*
X81020888Y-49935000D02*
X81020888Y-50930000D01*
X76865113Y-47170000D02*
X76865113Y-47670000D01*
X80820888Y-49935000D02*
X80820888Y-51070000D01*
X79739888Y-46334000D02*
X79739888Y-47855000D01*
X81340888Y-47152000D02*
X81340888Y-47855000D01*
X80180888Y-46427000D02*
X80180888Y-47855000D01*
X79699888Y-49935000D02*
X79699888Y-51460000D01*
X81100888Y-49935000D02*
X81100888Y-50866000D01*
X79659888Y-46326000D02*
X79659888Y-47855000D01*
X80220888Y-49935000D02*
X80220888Y-51350000D01*
X80780888Y-46695000D02*
X80780888Y-47855000D01*
X80980888Y-49935000D02*
X80980888Y-50960000D01*
X81460888Y-47290000D02*
X81460888Y-47855000D01*
X81580888Y-49935000D02*
X81580888Y-50338000D01*
X80059888Y-46394000D02*
X80059888Y-47855000D01*
X80140888Y-49935000D02*
X80140888Y-51375000D01*
X80340888Y-46481000D02*
X80340888Y-47855000D01*
X80740888Y-49935000D02*
X80740888Y-51119000D01*
X80900888Y-49935000D02*
X80900888Y-51017000D01*
X80340888Y-49935000D02*
X80340888Y-51309000D01*
X81260888Y-47069000D02*
X81260888Y-47855000D01*
X81380888Y-47196000D02*
X81380888Y-47855000D01*
X79739888Y-49935000D02*
X79739888Y-51456000D01*
X81500888Y-49935000D02*
X81500888Y-50449000D01*
X80900888Y-46773000D02*
X80900888Y-47855000D01*
X81220888Y-49935000D02*
X81220888Y-50759000D01*
X81620888Y-49935000D02*
X81620888Y-50278000D01*
X80820888Y-46720000D02*
X80820888Y-47855000D01*
X81140888Y-49935000D02*
X81140888Y-50832000D01*
X80180888Y-49935000D02*
X80180888Y-51363000D01*
X81340888Y-49935000D02*
X81340888Y-50638000D01*
X79659888Y-49935000D02*
X79659888Y-51464000D01*
X81980888Y-48377000D02*
X81980888Y-49413000D01*
X80099888Y-46404000D02*
X80099888Y-47855000D01*
X79979888Y-49935000D02*
X79979888Y-51415000D01*
X80540888Y-49935000D02*
X80540888Y-51224000D01*
X80380888Y-46497000D02*
X80380888Y-47855000D01*
X79899888Y-49935000D02*
X79899888Y-51431000D01*
X80099888Y-49935000D02*
X80099888Y-51386000D01*
X80500888Y-49935000D02*
X80500888Y-51243000D01*
X79699888Y-46330000D02*
X79699888Y-47855000D01*
X81220888Y-47031000D02*
X81220888Y-47855000D01*
X79939888Y-49935000D02*
X79939888Y-51423000D01*
X80620888Y-49935000D02*
X80620888Y-51185000D01*
X79939888Y-46367000D02*
X79939888Y-47855000D01*
X81020888Y-46860000D02*
X81020888Y-47855000D01*
X79979888Y-46375000D02*
X79979888Y-47855000D01*
X80380888Y-49935000D02*
X80380888Y-51293000D01*
X81180888Y-46994000D02*
X81180888Y-47855000D01*
X80540888Y-46566000D02*
X80540888Y-47855000D01*
X81940888Y-48218000D02*
X81940888Y-49572000D01*
X80700888Y-49935000D02*
X80700888Y-51142000D01*
X80660888Y-46627000D02*
X80660888Y-47855000D01*
X79899888Y-46359000D02*
X79899888Y-47855000D01*
X80420888Y-49935000D02*
X80420888Y-51277000D01*
X81660888Y-49935000D02*
X81660888Y-50214000D01*
X81300888Y-47110000D02*
X81300888Y-47855000D01*
X79419888Y-46315000D02*
X79419888Y-51475000D01*
X81420888Y-47242000D02*
X81420888Y-47855000D01*
X81260888Y-49935000D02*
X81260888Y-50721000D01*
X81100888Y-46924000D02*
X81100888Y-47855000D01*
X79619888Y-46322000D02*
X79619888Y-51468000D01*
X80500888Y-46547000D02*
X80500888Y-47855000D01*
X81740888Y-47717000D02*
X81740888Y-50073000D01*
X79459888Y-46315000D02*
X79459888Y-51475000D01*
X79579888Y-46319000D02*
X79579888Y-51471000D01*
X82039888Y-48895000D02*
G75*
G03*
X82039888Y-48895000I-2620000J0D01*
G01*
%TO.C,R1*%
X45100000Y-39020000D02*
X45100000Y-37180000D01*
X45100000Y-37180000D02*
X41260000Y-37180000D01*
X46050000Y-38100000D02*
X45100000Y-38100000D01*
X41260000Y-39020000D02*
X45100000Y-39020000D01*
X40310000Y-38100000D02*
X41260000Y-38100000D01*
X41260000Y-37180000D02*
X41260000Y-39020000D01*
%TO.C,R7*%
X98440000Y-31465000D02*
X94600000Y-31465000D01*
X94600000Y-31465000D02*
X94600000Y-33305000D01*
X94600000Y-33305000D02*
X98440000Y-33305000D01*
X98440000Y-33305000D02*
X98440000Y-31465000D01*
X93650000Y-32385000D02*
X94600000Y-32385000D01*
X99390000Y-32385000D02*
X98440000Y-32385000D01*
%TO.C,C6*%
X78845887Y-40356000D02*
X78845887Y-40924000D01*
X77645887Y-38465000D02*
X77645887Y-39600000D01*
X77885887Y-38636000D02*
X77885887Y-39600000D01*
X77725887Y-38518000D02*
X77725887Y-39600000D01*
X76324887Y-38061000D02*
X76324887Y-43219000D01*
X76644887Y-41680000D02*
X76644887Y-43190000D01*
X78245887Y-38987000D02*
X78245887Y-39600000D01*
X77005887Y-38172000D02*
X77005887Y-39600000D01*
X78165887Y-38897000D02*
X78165887Y-39600000D01*
X77445887Y-38350000D02*
X77445887Y-39600000D01*
X78285887Y-41680000D02*
X78285887Y-42245000D01*
X78445887Y-41680000D02*
X78445887Y-42023000D01*
X76844887Y-41680000D02*
X76844887Y-43151000D01*
X77965887Y-41680000D02*
X77965887Y-42577000D01*
X77285887Y-41680000D02*
X77285887Y-43005000D01*
X76604887Y-41680000D02*
X76604887Y-43196000D01*
X77805887Y-38575000D02*
X77805887Y-39600000D01*
X76884887Y-38139000D02*
X76884887Y-39600000D01*
X77685887Y-38491000D02*
X77685887Y-39600000D01*
X77845887Y-41680000D02*
X77845887Y-42675000D01*
X78805887Y-40122000D02*
X78805887Y-41158000D01*
X78125887Y-41680000D02*
X78125887Y-42425000D01*
X78325887Y-41680000D02*
X78325887Y-42194000D01*
X76965887Y-41680000D02*
X76965887Y-43120000D01*
X76684887Y-38097000D02*
X76684887Y-39600000D01*
X78245887Y-41680000D02*
X78245887Y-42293000D01*
X77925887Y-41680000D02*
X77925887Y-42611000D01*
X78165887Y-41680000D02*
X78165887Y-42383000D01*
X77485887Y-38372000D02*
X77485887Y-39600000D01*
X78205887Y-41680000D02*
X78205887Y-42339000D01*
X78445887Y-39257000D02*
X78445887Y-39600000D01*
X77525887Y-38393000D02*
X77525887Y-39600000D01*
X78205887Y-38941000D02*
X78205887Y-39600000D01*
X78405887Y-41680000D02*
X78405887Y-42083000D01*
X78005887Y-38739000D02*
X78005887Y-39600000D01*
X78085887Y-38814000D02*
X78085887Y-39600000D01*
X77245887Y-41680000D02*
X77245887Y-43022000D01*
X76844887Y-38129000D02*
X76844887Y-39600000D01*
X76284887Y-38060000D02*
X76284887Y-43220000D01*
X78405887Y-39197000D02*
X78405887Y-39600000D01*
X77045887Y-41680000D02*
X77045887Y-43095000D01*
X77485887Y-41680000D02*
X77485887Y-42908000D01*
X78005887Y-41680000D02*
X78005887Y-42541000D01*
X78365887Y-41680000D02*
X78365887Y-42140000D01*
X77405887Y-41680000D02*
X77405887Y-42950000D01*
X76524887Y-41680000D02*
X76524887Y-43205000D01*
X77845887Y-38605000D02*
X77845887Y-39600000D01*
X73440112Y-39165000D02*
X73940112Y-39165000D01*
X77005887Y-41680000D02*
X77005887Y-43108000D01*
X77725887Y-41680000D02*
X77725887Y-42762000D01*
X76804887Y-41680000D02*
X76804887Y-43160000D01*
X78765887Y-39963000D02*
X78765887Y-41317000D01*
X78525887Y-41680000D02*
X78525887Y-41891000D01*
X78485887Y-39321000D02*
X78485887Y-39600000D01*
X77605887Y-41680000D02*
X77605887Y-42840000D01*
X77805887Y-41680000D02*
X77805887Y-42705000D01*
X76764887Y-38112000D02*
X76764887Y-39600000D01*
X76484887Y-41680000D02*
X76484887Y-43209000D01*
X77565887Y-41680000D02*
X77565887Y-42864000D01*
X77965887Y-38703000D02*
X77965887Y-39600000D01*
X76244887Y-38060000D02*
X76244887Y-43220000D01*
X77165887Y-41680000D02*
X77165887Y-43054000D01*
X78605887Y-39542000D02*
X78605887Y-41738000D01*
X78565887Y-39462000D02*
X78565887Y-41818000D01*
X76404887Y-38064000D02*
X76404887Y-43216000D01*
X77085887Y-38198000D02*
X77085887Y-39600000D01*
X77125887Y-38212000D02*
X77125887Y-39600000D01*
X77925887Y-38669000D02*
X77925887Y-39600000D01*
X76524887Y-38075000D02*
X76524887Y-39600000D01*
X78485887Y-41680000D02*
X78485887Y-41959000D01*
X78045887Y-41680000D02*
X78045887Y-42504000D01*
X78085887Y-41680000D02*
X78085887Y-42466000D01*
X77245887Y-38258000D02*
X77245887Y-39600000D01*
X76564887Y-38079000D02*
X76564887Y-39600000D01*
X78125887Y-38855000D02*
X78125887Y-39600000D01*
X77885887Y-41680000D02*
X77885887Y-42644000D01*
X77365887Y-38311000D02*
X77365887Y-39600000D01*
X77165887Y-38226000D02*
X77165887Y-39600000D01*
X77605887Y-38440000D02*
X77605887Y-39600000D01*
X77205887Y-41680000D02*
X77205887Y-43038000D01*
X76924887Y-41680000D02*
X76924887Y-43131000D01*
X77085887Y-41680000D02*
X77085887Y-43082000D01*
X76684887Y-41680000D02*
X76684887Y-43183000D01*
X77565887Y-38416000D02*
X77565887Y-39600000D01*
X78325887Y-39086000D02*
X78325887Y-39600000D01*
X76724887Y-41680000D02*
X76724887Y-43176000D01*
X76644887Y-38090000D02*
X76644887Y-39600000D01*
X76364887Y-38062000D02*
X76364887Y-43218000D01*
X76764887Y-41680000D02*
X76764887Y-43168000D01*
X77445887Y-41680000D02*
X77445887Y-42930000D01*
X73690112Y-38915000D02*
X73690112Y-39415000D01*
X76444887Y-38067000D02*
X76444887Y-43213000D01*
X77365887Y-41680000D02*
X77365887Y-42969000D01*
X78525887Y-39389000D02*
X78525887Y-39600000D01*
X78285887Y-39035000D02*
X78285887Y-39600000D01*
X76484887Y-38071000D02*
X76484887Y-39600000D01*
X78685887Y-39725000D02*
X78685887Y-41555000D01*
X76564887Y-41680000D02*
X76564887Y-43201000D01*
X76724887Y-38104000D02*
X76724887Y-39600000D01*
X76804887Y-38120000D02*
X76804887Y-39600000D01*
X78365887Y-39140000D02*
X78365887Y-39600000D01*
X77765887Y-41680000D02*
X77765887Y-42735000D01*
X78725887Y-39835000D02*
X78725887Y-41445000D01*
X77405887Y-38330000D02*
X77405887Y-39600000D01*
X76924887Y-38149000D02*
X76924887Y-39600000D01*
X76965887Y-38160000D02*
X76965887Y-39600000D01*
X77645887Y-41680000D02*
X77645887Y-42815000D01*
X77765887Y-38545000D02*
X77765887Y-39600000D01*
X77205887Y-38242000D02*
X77205887Y-39600000D01*
X77325887Y-41680000D02*
X77325887Y-42988000D01*
X77325887Y-38292000D02*
X77325887Y-39600000D01*
X77045887Y-38185000D02*
X77045887Y-39600000D01*
X77285887Y-38275000D02*
X77285887Y-39600000D01*
X77685887Y-41680000D02*
X77685887Y-42789000D01*
X78045887Y-38776000D02*
X78045887Y-39600000D01*
X76884887Y-41680000D02*
X76884887Y-43141000D01*
X78645887Y-39629000D02*
X78645887Y-41651000D01*
X77125887Y-41680000D02*
X77125887Y-43068000D01*
X76604887Y-38084000D02*
X76604887Y-39600000D01*
X77525887Y-41680000D02*
X77525887Y-42887000D01*
X78864887Y-40640000D02*
G75*
G03*
X78864887Y-40640000I-2620000J0D01*
G01*
%TO.C,C2*%
X61365000Y-28989112D02*
X61879000Y-28989112D01*
X59807000Y-28509112D02*
X60843000Y-28509112D01*
X58626000Y-29109112D02*
X59285000Y-29109112D01*
X61365000Y-30430112D02*
X62826000Y-30430112D01*
X61365000Y-29069112D02*
X61978000Y-29069112D01*
X61365000Y-29589112D02*
X62447000Y-29589112D01*
X58321000Y-29429112D02*
X59285000Y-29429112D01*
X57943000Y-30069112D02*
X59285000Y-30069112D01*
X61365000Y-29629112D02*
X62474000Y-29629112D01*
X61365000Y-30069112D02*
X62707000Y-30069112D01*
X61365000Y-30229112D02*
X62767000Y-30229112D01*
X61365000Y-30630112D02*
X62868000Y-30630112D01*
X61365000Y-29029112D02*
X61930000Y-29029112D01*
X57752000Y-30870112D02*
X62898000Y-30870112D01*
X58203000Y-29589112D02*
X59285000Y-29589112D01*
X57911000Y-30149112D02*
X59285000Y-30149112D01*
X59314000Y-28669112D02*
X61336000Y-28669112D01*
X58720000Y-29029112D02*
X59285000Y-29029112D01*
X58078000Y-29789112D02*
X59285000Y-29789112D01*
X58260000Y-29509112D02*
X59285000Y-29509112D01*
X57764000Y-30750112D02*
X59285000Y-30750112D01*
X61365000Y-29269112D02*
X62189000Y-29269112D01*
X58424000Y-29309112D02*
X59285000Y-29309112D01*
X59074000Y-28789112D02*
X59285000Y-28789112D01*
X61365000Y-28909112D02*
X61768000Y-28909112D01*
X61365000Y-30590112D02*
X62861000Y-30590112D01*
X57782000Y-30630112D02*
X59285000Y-30630112D01*
X61365000Y-29709112D02*
X62525000Y-29709112D01*
X61365000Y-29989112D02*
X62673000Y-29989112D01*
X61365000Y-29189112D02*
X62110000Y-29189112D01*
X58230000Y-29549112D02*
X59285000Y-29549112D01*
X61365000Y-29389112D02*
X62296000Y-29389112D01*
X61365000Y-29109112D02*
X62024000Y-29109112D01*
X61365000Y-30349112D02*
X62805000Y-30349112D01*
X58150000Y-29669112D02*
X59285000Y-29669112D01*
X61365000Y-30149112D02*
X62739000Y-30149112D01*
X61365000Y-28789112D02*
X61576000Y-28789112D01*
X57960000Y-30029112D02*
X59285000Y-30029112D01*
X57760000Y-30790112D02*
X59285000Y-30790112D01*
X61365000Y-29909112D02*
X62635000Y-29909112D01*
X58825000Y-28949112D02*
X59285000Y-28949112D01*
X58850000Y-33874887D02*
X58850000Y-33374887D01*
X57824000Y-30430112D02*
X59285000Y-30430112D01*
X58499000Y-29229112D02*
X59285000Y-29229112D01*
X57775000Y-30670112D02*
X59285000Y-30670112D01*
X61365000Y-28829112D02*
X61644000Y-28829112D01*
X58882000Y-28909112D02*
X59285000Y-28909112D01*
X61365000Y-29229112D02*
X62151000Y-29229112D01*
X58942000Y-28869112D02*
X59285000Y-28869112D01*
X58354000Y-29389112D02*
X59285000Y-29389112D01*
X61365000Y-30029112D02*
X62690000Y-30029112D01*
X61365000Y-30109112D02*
X62723000Y-30109112D01*
X57857000Y-30309112D02*
X59285000Y-30309112D01*
X59520000Y-28589112D02*
X61130000Y-28589112D01*
X61365000Y-30710112D02*
X62881000Y-30710112D01*
X59227000Y-28709112D02*
X61423000Y-28709112D01*
X59648000Y-28549112D02*
X61002000Y-28549112D01*
X61365000Y-30510112D02*
X62845000Y-30510112D01*
X61365000Y-28869112D02*
X61708000Y-28869112D01*
X61365000Y-28949112D02*
X61825000Y-28949112D01*
X58461000Y-29269112D02*
X59285000Y-29269112D01*
X61365000Y-29309112D02*
X62226000Y-29309112D01*
X61365000Y-29829112D02*
X62593000Y-29829112D01*
X59147000Y-28749112D02*
X61503000Y-28749112D01*
X61365000Y-30550112D02*
X62853000Y-30550112D01*
X58035000Y-29869112D02*
X59285000Y-29869112D01*
X58176000Y-29629112D02*
X59285000Y-29629112D01*
X61365000Y-29469112D02*
X62360000Y-29469112D01*
X57870000Y-30269112D02*
X59285000Y-30269112D01*
X57746000Y-30990112D02*
X62904000Y-30990112D01*
X57797000Y-30550112D02*
X59285000Y-30550112D01*
X61365000Y-29549112D02*
X62420000Y-29549112D01*
X58771000Y-28989112D02*
X59285000Y-28989112D01*
X58290000Y-29469112D02*
X59285000Y-29469112D01*
X57805000Y-30510112D02*
X59285000Y-30510112D01*
X58600000Y-33624887D02*
X59100000Y-33624887D01*
X58540000Y-29189112D02*
X59285000Y-29189112D01*
X58388000Y-29349112D02*
X59285000Y-29349112D01*
X61365000Y-30830112D02*
X62894000Y-30830112D01*
X57769000Y-30710112D02*
X59285000Y-30710112D01*
X58672000Y-29069112D02*
X59285000Y-29069112D01*
X59006000Y-28829112D02*
X59285000Y-28829112D01*
X57749000Y-30910112D02*
X62901000Y-30910112D01*
X61365000Y-29429112D02*
X62329000Y-29429112D01*
X57745000Y-31030112D02*
X62905000Y-31030112D01*
X61365000Y-29669112D02*
X62500000Y-29669112D01*
X57745000Y-31070112D02*
X62905000Y-31070112D01*
X61365000Y-29749112D02*
X62549000Y-29749112D01*
X61365000Y-29349112D02*
X62262000Y-29349112D01*
X61365000Y-29149112D02*
X62068000Y-29149112D01*
X61365000Y-29869112D02*
X62615000Y-29869112D01*
X61365000Y-29789112D02*
X62572000Y-29789112D01*
X61365000Y-30790112D02*
X62890000Y-30790112D01*
X61365000Y-30309112D02*
X62793000Y-30309112D01*
X58057000Y-29829112D02*
X59285000Y-29829112D01*
X59410000Y-28629112D02*
X61240000Y-28629112D01*
X61365000Y-30189112D02*
X62753000Y-30189112D01*
X58125000Y-29709112D02*
X59285000Y-29709112D01*
X61365000Y-29949112D02*
X62654000Y-29949112D01*
X61365000Y-30670112D02*
X62875000Y-30670112D01*
X57845000Y-30349112D02*
X59285000Y-30349112D01*
X57834000Y-30390112D02*
X59285000Y-30390112D01*
X57927000Y-30109112D02*
X59285000Y-30109112D01*
X57996000Y-29949112D02*
X59285000Y-29949112D01*
X57883000Y-30229112D02*
X59285000Y-30229112D01*
X57747000Y-30950112D02*
X62903000Y-30950112D01*
X58015000Y-29909112D02*
X59285000Y-29909112D01*
X60041000Y-28469112D02*
X60609000Y-28469112D01*
X58101000Y-29749112D02*
X59285000Y-29749112D01*
X61365000Y-30750112D02*
X62886000Y-30750112D01*
X61365000Y-30390112D02*
X62816000Y-30390112D01*
X57756000Y-30830112D02*
X59285000Y-30830112D01*
X61365000Y-30470112D02*
X62836000Y-30470112D01*
X57897000Y-30189112D02*
X59285000Y-30189112D01*
X58582000Y-29149112D02*
X59285000Y-29149112D01*
X61365000Y-30269112D02*
X62780000Y-30269112D01*
X61365000Y-29509112D02*
X62390000Y-29509112D01*
X57977000Y-29989112D02*
X59285000Y-29989112D01*
X57789000Y-30590112D02*
X59285000Y-30590112D01*
X57814000Y-30470112D02*
X59285000Y-30470112D01*
X62945000Y-31070112D02*
G75*
G03*
X62945000Y-31070112I-2620000J0D01*
G01*
%TO.C,R5*%
X66370000Y-53340000D02*
X65420000Y-53340000D01*
X60630000Y-53340000D02*
X61580000Y-53340000D01*
X65420000Y-52420000D02*
X61580000Y-52420000D01*
X61580000Y-54260000D02*
X65420000Y-54260000D01*
X61580000Y-52420000D02*
X61580000Y-54260000D01*
X65420000Y-54260000D02*
X65420000Y-52420000D01*
%TO.C,D4*%
X73865000Y-32185000D02*
X73865000Y-35125000D01*
X78285000Y-32185000D02*
X78285000Y-32515000D01*
X78285000Y-35125000D02*
X78285000Y-34795000D01*
X72845000Y-35125000D02*
X78285000Y-35125000D01*
X72845000Y-34795000D02*
X72845000Y-35125000D01*
X72845000Y-32515000D02*
X72845000Y-32185000D01*
X73625000Y-32185000D02*
X73625000Y-35125000D01*
X72845000Y-32185000D02*
X78285000Y-32185000D01*
X73745000Y-32185000D02*
X73745000Y-35125000D01*
%TO.C,R2*%
X47910000Y-56530000D02*
X47910000Y-52690000D01*
X46990000Y-51740000D02*
X46990000Y-52690000D01*
X46070000Y-56530000D02*
X47910000Y-56530000D01*
X47910000Y-52690000D02*
X46070000Y-52690000D01*
X46070000Y-52690000D02*
X46070000Y-56530000D01*
X46990000Y-57480000D02*
X46990000Y-56530000D01*
%TO.C,TR1*%
X85605000Y-39890000D02*
X123945000Y-39890000D01*
X123945000Y-64250000D02*
X123945000Y-39890000D01*
X85605000Y-39890000D02*
X85605000Y-64250000D01*
X123945000Y-64250000D02*
X85605000Y-64250000D01*
%TO.C,D3*%
X49380000Y-55060000D02*
X49560000Y-55060000D01*
X49560000Y-51620000D02*
X49380000Y-51620000D01*
X52040000Y-51620000D02*
X52220000Y-51620000D01*
X52220000Y-52340000D02*
X49380000Y-52340000D01*
X52220000Y-55060000D02*
X52040000Y-55060000D01*
X49380000Y-51620000D02*
X49380000Y-55060000D01*
X52220000Y-52100000D02*
X49380000Y-52100000D01*
X52220000Y-51620000D02*
X52220000Y-55060000D01*
X52220000Y-52220000D02*
X49380000Y-52220000D01*
%TO.C,R8*%
X94600000Y-35910000D02*
X94600000Y-37750000D01*
X94600000Y-37750000D02*
X98440000Y-37750000D01*
X93650000Y-36830000D02*
X94600000Y-36830000D01*
X98440000Y-37750000D02*
X98440000Y-35910000D01*
X99390000Y-36830000D02*
X98440000Y-36830000D01*
X98440000Y-35910000D02*
X94600000Y-35910000D01*
%TO.C,C3*%
X66604888Y-58432000D02*
X66604888Y-59920000D01*
X67725888Y-62000000D02*
X67725888Y-62964000D01*
X67205888Y-62000000D02*
X67205888Y-63289000D01*
X68245888Y-62000000D02*
X68245888Y-62403000D01*
X68325888Y-59641000D02*
X68325888Y-59920000D01*
X68085888Y-59307000D02*
X68085888Y-59920000D01*
X67605888Y-58865000D02*
X67605888Y-59920000D01*
X63530113Y-59235000D02*
X63530113Y-59735000D01*
X68245888Y-59517000D02*
X68245888Y-59920000D01*
X67645888Y-62000000D02*
X67645888Y-63025000D01*
X66845888Y-58492000D02*
X66845888Y-59920000D01*
X66684888Y-62000000D02*
X66684888Y-63471000D01*
X66564888Y-62000000D02*
X66564888Y-63496000D01*
X66484888Y-62000000D02*
X66484888Y-63510000D01*
X67285888Y-58670000D02*
X67285888Y-59920000D01*
X67565888Y-62000000D02*
X67565888Y-63082000D01*
X67645888Y-58895000D02*
X67645888Y-59920000D01*
X67165888Y-58612000D02*
X67165888Y-59920000D01*
X68285888Y-59577000D02*
X68285888Y-59920000D01*
X67885888Y-59096000D02*
X67885888Y-59920000D01*
X66564888Y-58424000D02*
X66564888Y-59920000D01*
X63280113Y-59485000D02*
X63780113Y-59485000D01*
X66084888Y-58380000D02*
X66084888Y-63540000D01*
X67365888Y-58713000D02*
X67365888Y-59920000D01*
X66364888Y-62000000D02*
X66364888Y-63525000D01*
X67205888Y-58631000D02*
X67205888Y-59920000D01*
X67845888Y-62000000D02*
X67845888Y-62861000D01*
X68045888Y-62000000D02*
X68045888Y-62659000D01*
X67845888Y-59059000D02*
X67845888Y-59920000D01*
X67445888Y-58760000D02*
X67445888Y-59920000D01*
X67525888Y-62000000D02*
X67525888Y-63109000D01*
X67885888Y-62000000D02*
X67885888Y-62824000D01*
X67765888Y-62000000D02*
X67765888Y-62931000D01*
X68565888Y-60155000D02*
X68565888Y-61765000D01*
X66404888Y-62000000D02*
X66404888Y-63521000D01*
X67365888Y-62000000D02*
X67365888Y-63207000D01*
X68005888Y-59217000D02*
X68005888Y-59920000D01*
X66644888Y-58440000D02*
X66644888Y-59920000D01*
X67245888Y-62000000D02*
X67245888Y-63270000D01*
X66364888Y-58395000D02*
X66364888Y-59920000D01*
X67485888Y-62000000D02*
X67485888Y-63135000D01*
X66805888Y-62000000D02*
X66805888Y-63440000D01*
X66644888Y-62000000D02*
X66644888Y-63480000D01*
X68605888Y-60283000D02*
X68605888Y-61637000D01*
X67005888Y-62000000D02*
X67005888Y-63374000D01*
X66885888Y-58505000D02*
X66885888Y-59920000D01*
X66845888Y-62000000D02*
X66845888Y-63428000D01*
X66965888Y-62000000D02*
X66965888Y-63388000D01*
X68205888Y-62000000D02*
X68205888Y-62460000D01*
X67045888Y-58562000D02*
X67045888Y-59920000D01*
X67405888Y-58736000D02*
X67405888Y-59920000D01*
X68125888Y-59355000D02*
X68125888Y-59920000D01*
X66885888Y-62000000D02*
X66885888Y-63415000D01*
X66764888Y-62000000D02*
X66764888Y-63451000D01*
X67285888Y-62000000D02*
X67285888Y-63250000D01*
X67325888Y-62000000D02*
X67325888Y-63228000D01*
X67605888Y-62000000D02*
X67605888Y-63055000D01*
X67965888Y-62000000D02*
X67965888Y-62745000D01*
X67125888Y-58595000D02*
X67125888Y-59920000D01*
X66524888Y-58417000D02*
X66524888Y-59920000D01*
X67245888Y-58650000D02*
X67245888Y-59920000D01*
X67405888Y-62000000D02*
X67405888Y-63184000D01*
X66284888Y-58387000D02*
X66284888Y-63533000D01*
X66484888Y-58410000D02*
X66484888Y-59920000D01*
X68165888Y-62000000D02*
X68165888Y-62514000D01*
X66764888Y-58469000D02*
X66764888Y-59920000D01*
X67685888Y-62000000D02*
X67685888Y-62995000D01*
X67925888Y-62000000D02*
X67925888Y-62786000D01*
X67085888Y-62000000D02*
X67085888Y-63342000D01*
X66805888Y-58480000D02*
X66805888Y-59920000D01*
X66724888Y-58459000D02*
X66724888Y-59920000D01*
X67925888Y-59134000D02*
X67925888Y-59920000D01*
X67725888Y-58956000D02*
X67725888Y-59920000D01*
X68685888Y-60676000D02*
X68685888Y-61244000D01*
X66965888Y-58532000D02*
X66965888Y-59920000D01*
X68045888Y-59261000D02*
X68045888Y-59920000D01*
X68405888Y-59782000D02*
X68405888Y-62138000D01*
X68325888Y-62000000D02*
X68325888Y-62279000D01*
X66724888Y-62000000D02*
X66724888Y-63461000D01*
X67445888Y-62000000D02*
X67445888Y-63160000D01*
X67165888Y-62000000D02*
X67165888Y-63308000D01*
X66925888Y-62000000D02*
X66925888Y-63402000D01*
X66244888Y-58384000D02*
X66244888Y-63536000D01*
X66444888Y-58404000D02*
X66444888Y-59920000D01*
X67805888Y-59023000D02*
X67805888Y-59920000D01*
X66684888Y-58449000D02*
X66684888Y-59920000D01*
X68085888Y-62000000D02*
X68085888Y-62613000D01*
X68485888Y-59949000D02*
X68485888Y-61971000D01*
X68645888Y-60442000D02*
X68645888Y-61478000D01*
X66524888Y-62000000D02*
X66524888Y-63503000D01*
X67765888Y-58989000D02*
X67765888Y-59920000D01*
X68285888Y-62000000D02*
X68285888Y-62343000D01*
X66324888Y-58391000D02*
X66324888Y-59920000D01*
X66404888Y-58399000D02*
X66404888Y-59920000D01*
X66604888Y-62000000D02*
X66604888Y-63488000D01*
X68205888Y-59460000D02*
X68205888Y-59920000D01*
X66124888Y-58380000D02*
X66124888Y-63540000D01*
X68365888Y-62000000D02*
X68365888Y-62211000D01*
X67965888Y-59175000D02*
X67965888Y-59920000D01*
X67005888Y-58546000D02*
X67005888Y-59920000D01*
X68445888Y-59862000D02*
X68445888Y-62058000D01*
X67685888Y-58925000D02*
X67685888Y-59920000D01*
X66444888Y-62000000D02*
X66444888Y-63516000D01*
X68365888Y-59709000D02*
X68365888Y-59920000D01*
X67485888Y-58785000D02*
X67485888Y-59920000D01*
X68005888Y-62000000D02*
X68005888Y-62703000D01*
X68125888Y-62000000D02*
X68125888Y-62565000D01*
X66324888Y-62000000D02*
X66324888Y-63529000D01*
X67565888Y-58838000D02*
X67565888Y-59920000D01*
X67325888Y-58692000D02*
X67325888Y-59920000D01*
X67525888Y-58811000D02*
X67525888Y-59920000D01*
X67045888Y-62000000D02*
X67045888Y-63358000D01*
X66925888Y-58518000D02*
X66925888Y-59920000D01*
X68525888Y-60045000D02*
X68525888Y-61875000D01*
X68165888Y-59406000D02*
X68165888Y-59920000D01*
X67805888Y-62000000D02*
X67805888Y-62897000D01*
X67125888Y-62000000D02*
X67125888Y-63325000D01*
X66204888Y-58382000D02*
X66204888Y-63538000D01*
X67085888Y-58578000D02*
X67085888Y-59920000D01*
X66164888Y-58381000D02*
X66164888Y-63539000D01*
X68704888Y-60960000D02*
G75*
G03*
X68704888Y-60960000I-2620000J0D01*
G01*
%TO.C,R6*%
X83490000Y-36322000D02*
X84440000Y-36322000D01*
X89230000Y-36322000D02*
X88280000Y-36322000D01*
X84440000Y-35402000D02*
X84440000Y-37242000D01*
X88280000Y-37242000D02*
X88280000Y-35402000D01*
X84440000Y-37242000D02*
X88280000Y-37242000D01*
X88280000Y-35402000D02*
X84440000Y-35402000D01*
%TO.C,J2*%
X142115000Y-57225000D02*
X136615000Y-57225000D01*
X148855000Y-57475000D02*
X148855000Y-58975000D01*
X136615000Y-54475000D02*
X129115000Y-54475000D01*
X148855000Y-35235000D02*
X151555000Y-35235000D01*
X136615000Y-35485000D02*
X136615000Y-38235000D01*
X151555000Y-35235000D02*
X151555000Y-57475000D01*
X148855000Y-33735000D02*
X148855000Y-35235000D01*
X136615000Y-38235000D02*
X129115000Y-38235000D01*
X136615000Y-54475000D02*
X136615000Y-57225000D01*
X129115000Y-38235000D02*
X129115000Y-54475000D01*
X148855000Y-33735000D02*
X142115000Y-33735000D01*
X142115000Y-35485000D02*
X136615000Y-35485000D01*
X148855000Y-57475000D02*
X151555000Y-57475000D01*
X148855000Y-58975000D02*
X142115000Y-58975000D01*
X142115000Y-35485000D02*
X142115000Y-33735000D01*
X142115000Y-58975000D02*
X142115000Y-57225000D01*
%TD*%
M02*
