M48
; DRILL file {KiCad (6.0.4)} date Fr 22 Apr 2022 11:51:45 CEST
; FORMAT={-:-/ absolute / metric / decimal}
; #@! TF.CreationDate,2022-04-22T11:51:45+02:00
; #@! TF.GenerationSoftware,Kicad,Pcbnew,(6.0.4)
; #@! TF.FileFunction,Plated,1,2,PTH
FMAT,2
METRIC
; #@! TA.AperFunction,Plated,PTH,ComponentDrill
T1C0.700
; #@! TA.AperFunction,Plated,PTH,ComponentDrill
T2C0.750
; #@! TA.AperFunction,Plated,PTH,ComponentDrill
T3C0.800
; #@! TA.AperFunction,Plated,PTH,ComponentDrill
T4C0.900
; #@! TA.AperFunction,Plated,PTH,ComponentDrill
T5C1.000
; #@! TA.AperFunction,Plated,PTH,ComponentDrill
T6C1.200
; #@! TA.AperFunction,Plated,PTH,ComponentDrill
T7C1.500
; #@! TA.AperFunction,Plated,PTH,ComponentDrill
T8C1.520
; #@! TA.AperFunction,Plated,PTH,ComponentDrill
T9C1.600
; #@! TA.AperFunction,Plated,PTH,ComponentDrill
T10C1.700
; #@! TA.AperFunction,Plated,PTH,ComponentDrill
T11C3.200
%
G90
G05
T1
X39.37Y-38.1
X46.99Y-38.1
X46.99Y-50.8
X46.99Y-58.42
X59.69Y-42.545
X59.69Y-53.34
X60.96Y-36.83
X67.31Y-42.545
X67.31Y-53.34
X68.58Y-36.83
X82.55Y-36.322
X90.17Y-36.322
X92.71Y-32.385
X92.71Y-36.83
X100.33Y-32.385
X100.33Y-36.83
T2
X57.15Y-48.26
X58.42Y-48.26
X59.69Y-48.26
T3
X40.64Y-45.72
X43.14Y-45.72
X55.875Y-57.14
X55.875Y-64.76
X58.415Y-57.14
X58.415Y-64.76
X60.325Y-29.82
X60.325Y-32.32
X64.835Y-60.96
X67.335Y-60.96
X68.645Y-48.895
X71.145Y-48.895
X74.995Y-40.64
X77.495Y-40.64
X78.17Y-48.895
X80.67Y-48.895
T4
X52.07Y-29.21
X52.07Y-36.83
X71.755Y-33.655
X79.375Y-33.655
T5
X50.8Y-40.64
X50.8Y-45.72
X50.8Y-50.8
X50.8Y-55.88
T6
X131.585Y-46.355
T7
X33.02Y-45.72
T8
X90.805Y-44.45
X90.805Y-49.53
X90.805Y-54.61
X90.805Y-59.69
X115.805Y-52.19
X118.745Y-44.45
X118.745Y-49.69
X118.745Y-54.61
X118.745Y-59.69
T9
X135.4Y-50.165
X136.035Y-42.545
T10
X30.48Y-43.18
X30.48Y-48.26
X35.56Y-43.18
X35.56Y-48.26
T11
X30.48Y-30.48
X30.48Y-63.5
X127.0Y-30.48
X127.0Y-63.5
T0
M30
